<svg width="20" height="20" viewBox="0 0 20 20" fill="none" xmlns="http://www.w3.org/2000/svg">
<mask id="mask0_593_20694" style="mask-type:alpha" maskUnits="userSpaceOnUse" x="0" y="0" width="20" height="20">
<rect width="20" height="20" fill="#D9D9D9"/>
</mask>
<g mask="url(#mask0_593_20694)">
<path d="M3.10891 5.23082V3.35894C3.10891 3.22228 3.16821 3.11623 3.28682 3.04082C3.40543 2.96554 3.52884 2.95991 3.65703 3.02394L5.50807 3.95998C5.64474 4.02943 5.71307 4.14103 5.71307 4.29478C5.71307 4.44867 5.64474 4.56033 5.50807 4.62978L3.65703 5.56561C3.52884 5.62978 3.40543 5.62422 3.28682 5.54894C3.16821 5.47353 3.10891 5.36748 3.10891 5.23082ZM14.6474 5.23082V3.35894C14.6474 3.22228 14.7067 3.11623 14.8252 3.04082C14.9438 2.96554 15.0672 2.95991 15.1954 3.02394L17.0464 3.95998C17.1831 4.02943 17.2514 4.14103 17.2514 4.29478C17.2514 4.44867 17.1831 4.56033 17.0464 4.62978L15.1954 5.56561C15.0672 5.62978 14.9438 5.62422 14.8252 5.54894C14.7067 5.47353 14.6474 5.36748 14.6474 5.23082ZM9.26286 4.46144V2.58978C9.26286 2.45297 9.3221 2.34693 9.44057 2.27165C9.55918 2.19637 9.68259 2.19075 9.81078 2.25478L11.6618 3.19061C11.7985 3.26005 11.8668 3.37172 11.8668 3.52561C11.8668 3.6795 11.7985 3.79116 11.6618 3.86061L9.81078 4.79644C9.68259 4.86061 9.55918 4.85498 9.44057 4.77957C9.3221 4.70429 9.26286 4.59825 9.26286 4.46144ZM8.28203 18.0079C6.43911 17.8968 4.93724 17.63 3.77641 17.2075C2.61557 16.785 2.03516 16.3002 2.03516 15.7531V8.57373C2.03516 8.25318 2.23925 7.95561 2.64745 7.68103C3.0555 7.40644 3.61585 7.16526 4.32849 6.95748C5.04113 6.74971 5.883 6.58519 6.85411 6.46394C7.82523 6.34269 8.87384 6.28207 9.99995 6.28207C11.1261 6.28207 12.1747 6.34269 13.1458 6.46394C14.1169 6.58519 14.9588 6.74971 15.6714 6.95748C16.384 7.16526 16.9444 7.40644 17.3524 7.68103C17.7606 7.95561 17.9647 8.25318 17.9647 8.57373V15.7531C17.9647 16.3087 17.3809 16.7956 16.2131 17.2139C15.0453 17.6321 13.5399 17.8968 11.697 18.0079C11.5133 18.0218 11.3581 17.9668 11.2316 17.8429C11.1049 17.719 11.0416 17.5652 11.0416 17.3814V14.7114H8.95828V17.3606C8.95828 17.5444 8.89148 17.7017 8.75786 17.8325C8.62439 17.9633 8.46578 18.0218 8.28203 18.0079ZM9.99995 9.6154C11.3631 9.6154 12.5904 9.52082 13.6818 9.33165C14.7732 9.14262 15.6132 8.90651 16.2018 8.62332C16.111 8.44179 15.5152 8.2145 14.4143 7.94144C13.3134 7.66853 11.8419 7.53207 9.99995 7.53207C8.158 7.53207 6.68654 7.66853 5.58557 7.94144C4.48474 8.2145 3.88891 8.44179 3.79807 8.62332C4.38668 8.90651 5.19599 9.14262 6.22599 9.33165C7.25585 9.52082 8.51384 9.6154 9.99995 9.6154ZM7.70828 16.6939V14.7114C7.70828 14.3706 7.83141 14.0771 8.07766 13.8308C8.32391 13.5846 8.61745 13.4614 8.95828 13.4614H11.0416C11.3824 13.4614 11.676 13.5846 11.9222 13.8308C12.1685 14.0771 12.2916 14.3706 12.2916 14.7114V16.6939C13.5043 16.5881 14.4874 16.4196 15.2412 16.1883C15.9949 15.9571 16.4861 15.7394 16.7147 15.5352V9.76915C15.876 10.1335 14.8883 10.4073 13.7516 10.5906C12.6148 10.7738 11.3643 10.8654 9.99995 10.8654C8.63564 10.8654 7.38509 10.7738 6.24828 10.5906C5.11161 10.4073 4.12391 10.1335 3.28516 9.76915V15.5352C3.51377 15.7394 3.98898 15.9571 4.71078 16.1883C5.43245 16.4196 6.43161 16.5881 7.70828 16.6939Z" fill="#201E22"/>
</g>
</svg>
