<svg width="20" height="20" viewBox="0 0 20 20" fill="none" xmlns="http://www.w3.org/2000/svg">
<mask id="mask0_738_3697" style="mask-type:alpha" maskUnits="userSpaceOnUse" x="0" y="0" width="20" height="20">
<rect width="20" height="20" fill="#D9D9D9"/>
</mask>
<g mask="url(#mask0_738_3697)">
<path d="M4.79447 14.1762C5.45155 13.6794 5.96252 13.0651 6.32738 12.3333C6.69224 11.6015 6.87467 10.8237 6.87467 10C6.87467 9.17625 6.69224 8.39847 6.32738 7.66667C5.96252 6.93486 5.45155 6.32055 4.79447 5.82375C4.32127 6.42305 3.9594 7.07771 3.70884 7.78771C3.45829 8.49757 3.33301 9.235 3.33301 10C3.33301 10.765 3.45829 11.5024 3.70884 12.2123C3.9594 12.9223 4.32127 13.5769 4.79447 14.1762ZM9.99967 16.6667C10.7956 16.6667 11.5633 16.5331 12.3026 16.266C13.0419 15.999 13.7112 15.6037 14.3105 15.0802C13.5402 14.4519 12.9417 13.6962 12.5149 12.8133C12.0881 11.9303 11.8747 10.9925 11.8747 10C11.8747 9.0075 12.0881 8.06972 12.5149 7.18667C12.9417 6.30375 13.5402 5.54812 14.3105 4.91979C13.7112 4.39632 13.0419 4.00104 12.3026 3.73396C11.5633 3.46687 10.7956 3.33333 9.99967 3.33333C9.2037 3.33333 8.43606 3.46687 7.69676 3.73396C6.95745 4.00104 6.28815 4.39632 5.68884 4.91979C6.45912 5.54812 7.05766 6.30375 7.48447 7.18667C7.91127 8.06972 8.12467 9.0075 8.12467 10C8.12467 10.9925 7.91127 11.9303 7.48447 12.8133C7.05766 13.6962 6.45912 14.4519 5.68884 15.0802C6.28815 15.6037 6.95745 15.999 7.69676 16.266C8.43606 16.5331 9.2037 16.6667 9.99967 16.6667ZM15.2049 14.1762C15.6781 13.5769 16.04 12.9223 16.2905 12.2123C16.5411 11.5024 16.6663 10.765 16.6663 10C16.6663 9.235 16.5411 8.49757 16.2905 7.78771C16.04 7.07771 15.6781 6.42305 15.2049 5.82375C14.5478 6.32055 14.0368 6.93486 13.672 7.66667C13.3071 8.39847 13.1247 9.17625 13.1247 10C13.1247 10.8237 13.3071 11.6015 13.672 12.3333C14.0368 13.0651 14.5478 13.6794 15.2049 14.1762ZM10.0011 17.9167C8.90613 17.9167 7.8769 17.7089 6.91342 17.2933C5.94995 16.8778 5.1119 16.3138 4.39926 15.6015C3.68662 14.8891 3.12238 14.0514 2.70655 13.0883C2.29085 12.1253 2.08301 11.0963 2.08301 10.0015C2.08301 8.90646 2.29079 7.87722 2.70634 6.91375C3.1219 5.95028 3.68586 5.11222 4.39822 4.39958C5.11058 3.68694 5.94829 3.12271 6.91134 2.70687C7.8744 2.29118 8.90335 2.08333 9.99822 2.08333C11.0932 2.08333 12.1225 2.29111 13.0859 2.70667C14.0494 3.12222 14.8875 3.68618 15.6001 4.39854C16.3127 5.1109 16.877 5.94861 17.2928 6.91167C17.7085 7.87472 17.9163 8.90368 17.9163 9.99854C17.9163 11.0935 17.7086 12.1228 17.293 13.0862C16.8775 14.0497 16.3135 14.8878 15.6011 15.6004C14.8888 16.3131 14.0511 16.8773 13.088 17.2931C12.125 17.7088 11.096 17.9167 10.0011 17.9167Z" fill="#4D4B4E"/>
</g>
</svg>
