<svg width="20" height="20" viewBox="0 0 20 20" fill="none" xmlns="http://www.w3.org/2000/svg">
<mask id="mask0_738_1508" style="mask-type:alpha" maskUnits="userSpaceOnUse" x="0" y="0" width="20" height="20">
<rect width="20" height="20" fill="#D9D9D9"/>
</mask>
<g mask="url(#mask0_738_1508)">
<path d="M4.79447 14.1764C5.45155 13.6796 5.96252 13.0653 6.32738 12.3335C6.69224 11.6017 6.87467 10.8239 6.87467 10.0002C6.87467 9.17641 6.69224 8.39863 6.32738 7.66683C5.96252 6.93502 5.45155 6.32072 4.79447 5.82391C4.32127 6.42322 3.9594 7.07787 3.70884 7.78787C3.45829 8.49773 3.33301 9.23516 3.33301 10.0002C3.33301 10.7652 3.45829 11.5026 3.70884 12.2125C3.9594 12.9225 4.32127 13.5771 4.79447 14.1764ZM9.99967 16.6668C10.7956 16.6668 11.5633 16.5333 12.3026 16.2662C13.0419 15.9991 13.7112 15.6038 14.3105 15.0804C13.5402 14.452 12.9417 13.6964 12.5149 12.8135C12.0881 11.9304 11.8747 10.9927 11.8747 10.0002C11.8747 9.00766 12.0881 8.06989 12.5149 7.18683C12.9417 6.30391 13.5402 5.54829 14.3105 4.91996C13.7112 4.39648 13.0419 4.0012 12.3026 3.73412C11.5633 3.46704 10.7956 3.3335 9.99967 3.3335C9.2037 3.3335 8.43606 3.46704 7.69676 3.73412C6.95745 4.0012 6.28815 4.39648 5.68884 4.91996C6.45912 5.54829 7.05766 6.30391 7.48447 7.18683C7.91127 8.06989 8.12467 9.00766 8.12467 10.0002C8.12467 10.9927 7.91127 11.9304 7.48447 12.8135C7.05766 13.6964 6.45912 14.452 5.68884 15.0804C6.28815 15.6038 6.95745 15.9991 7.69676 16.2662C8.43606 16.5333 9.2037 16.6668 9.99967 16.6668ZM15.2049 14.1764C15.6781 13.5771 16.04 12.9225 16.2905 12.2125C16.5411 11.5026 16.6663 10.7652 16.6663 10.0002C16.6663 9.23516 16.5411 8.49773 16.2905 7.78787C16.04 7.07787 15.6781 6.42322 15.2049 5.82391C14.5478 6.32072 14.0368 6.93502 13.672 7.66683C13.3071 8.39863 13.1247 9.17641 13.1247 10.0002C13.1247 10.8239 13.3071 11.6017 13.672 12.3335C14.0368 13.0653 14.5478 13.6796 15.2049 14.1764ZM10.0011 17.9168C8.90613 17.9168 7.8769 17.7091 6.91342 17.2935C5.94995 16.8779 5.1119 16.314 4.39926 15.6016C3.68662 14.8893 3.12238 14.0516 2.70655 13.0885C2.29085 12.1254 2.08301 11.0965 2.08301 10.0016C2.08301 8.90662 2.29079 7.87738 2.70634 6.91391C3.1219 5.95044 3.68586 5.11238 4.39822 4.39975C5.11058 3.68711 5.94829 3.12287 6.91134 2.70704C7.8744 2.29134 8.90335 2.0835 9.99822 2.0835C11.0932 2.0835 12.1225 2.29127 13.0859 2.70683C14.0494 3.12238 14.8875 3.68634 15.6001 4.3987C16.3127 5.11107 16.877 5.94877 17.2928 6.91183C17.7085 7.87489 17.9163 8.90384 17.9163 9.9987C17.9163 11.0937 17.7086 12.1229 17.293 13.0864C16.8775 14.0499 16.3135 14.8879 15.6011 15.6006C14.8888 16.3132 14.0511 16.8775 13.088 17.2933C12.125 17.709 11.096 17.9168 10.0011 17.9168Z" fill="#E11936"/>
</g>
</svg>
