<svg width="20" height="20" viewBox="0 0 20 20" fill="none" xmlns="http://www.w3.org/2000/svg">
<mask id="mask0_622_18033" style="mask-type:alpha" maskUnits="userSpaceOnUse" x="0" y="0" width="20" height="20">
<rect width="20" height="20" fill="#D9D9D9"/>
</mask>
<g mask="url(#mask0_622_18033)">
<path d="M14.3743 15.625H12.4993C12.3223 15.625 12.1739 15.5651 12.0541 15.4452C11.9343 15.3254 11.8743 15.1769 11.8743 14.9998C11.8743 14.8226 11.9343 14.6742 12.0541 14.5546C12.1739 14.4349 12.3223 14.375 12.4993 14.375H14.3743V12.5C14.3743 12.3229 14.4343 12.1745 14.5541 12.0548C14.674 11.9349 14.8225 11.875 14.9996 11.875C15.1768 11.875 15.3252 11.9349 15.4448 12.0548C15.5645 12.1745 15.6243 12.3229 15.6243 12.5V14.375H17.4993C17.6764 14.375 17.8248 14.4349 17.9446 14.5548C18.0644 14.6747 18.1243 14.8231 18.1243 15.0002C18.1243 15.1774 18.0644 15.3258 17.9446 15.4454C17.8248 15.5652 17.6764 15.625 17.4993 15.625H15.6243V17.5C15.6243 17.6771 15.5644 17.8255 15.4446 17.9452C15.3247 18.0651 15.1762 18.125 14.9991 18.125C14.8219 18.125 14.6735 18.0651 14.5539 17.9452C14.4342 17.8255 14.3743 17.6771 14.3743 17.5V15.625ZM4.42247 16.25C4.0015 16.25 3.64518 16.1042 3.35352 15.8125C3.06185 15.5208 2.91602 15.1645 2.91602 14.7436V5.25647C2.91602 4.8355 3.06185 4.47918 3.35352 4.18751C3.64518 3.89585 4.0015 3.75001 4.42247 3.75001H5.57622V2.62814C5.57622 2.44661 5.63782 2.29439 5.76102 2.17147C5.88407 2.04869 6.03657 1.9873 6.21852 1.9873C6.40046 1.9873 6.55254 2.04869 6.67477 2.17147C6.79713 2.29439 6.85831 2.44661 6.85831 2.62814V3.75001H11.5058V2.6123C11.5058 2.43522 11.5657 2.28675 11.6856 2.16689C11.8053 2.04717 11.9538 1.9873 12.131 1.9873C12.3082 1.9873 12.4566 2.04717 12.5762 2.16689C12.6959 2.28675 12.7558 2.43522 12.7558 2.6123V3.75001H13.9096C14.3305 3.75001 14.6868 3.89585 14.9785 4.18751C15.2702 4.47918 15.416 4.8355 15.416 5.25647V9.50335C15.416 9.68029 15.3561 9.82869 15.2362 9.94855C15.1164 10.0683 14.9679 10.1281 14.7908 10.1281C14.6136 10.1281 14.4652 10.0683 14.3456 9.94855C14.2259 9.82869 14.166 9.68029 14.166 9.50335V8.5898H4.16602V14.7436C4.16602 14.8077 4.19275 14.8665 4.24622 14.9198C4.29956 14.9733 4.35831 15 4.42247 15H9.49456C9.67164 15 9.82004 15.0599 9.93977 15.1798C10.0596 15.2997 10.1196 15.4481 10.1196 15.6252C10.1196 15.8024 10.0596 15.9508 9.93977 16.0704C9.82004 16.1902 9.67164 16.25 9.49456 16.25H4.42247ZM4.16602 7.3398H14.166V5.25647C14.166 5.1923 14.1393 5.13355 14.0858 5.08022C14.0325 5.02675 13.9737 5.00001 13.9096 5.00001H4.42247C4.35831 5.00001 4.29956 5.02675 4.24622 5.08022C4.19275 5.13355 4.16602 5.1923 4.16602 5.25647V7.3398Z" fill="white"/>
</g>
</svg>
