<svg width="20" height="20" viewBox="0 0 20 20" fill="none" xmlns="http://www.w3.org/2000/svg">
<mask id="mask0_738_3704" style="mask-type:alpha" maskUnits="userSpaceOnUse" x="0" y="0" width="20" height="20">
<rect width="20" height="20" fill="#D9D9D9"/>
</mask>
<g mask="url(#mask0_738_3704)">
</g>
<g clip-path="url(#clip0_738_3704)">
<path d="M6.78516 12.6486L16.6594 15.94C16.8528 16.0038 17.0585 16.0207 17.2597 15.9894C17.4608 15.9581 17.6518 15.8794 17.8166 15.76C17.9827 15.6417 18.1183 15.4856 18.2123 15.3045C18.3062 15.1234 18.3557 14.9226 18.3566 14.7186V4.13717C18.3557 3.93319 18.3062 3.73236 18.2123 3.55128C18.1183 3.3702 17.9827 3.21405 17.8166 3.09574C17.6506 2.97841 17.4593 2.90209 17.2581 2.87303C17.057 2.84398 16.8518 2.86303 16.6594 2.9286L6.78516 6.22003V12.6486Z" stroke="#4D4B4E" stroke-width="1.5" stroke-linecap="round" stroke-linejoin="round"/>
<path d="M1.64258 9.43436C1.64258 9.85646 1.72572 10.2744 1.88725 10.6644C2.04878 11.0544 2.28555 11.4087 2.58402 11.7072C3.18681 12.31 4.00438 12.6486 4.85686 12.6486H6.78544V6.22008H4.85686C4.43476 6.22008 4.01679 6.30321 3.62681 6.46475C3.23684 6.62629 2.8825 6.86305 2.58402 7.16152C1.98122 7.76431 1.64258 8.58188 1.64258 9.43436Z" stroke="#4D4B4E" stroke-width="1.5" stroke-linecap="round" stroke-linejoin="round"/>
<path d="M4.85645 12.6486V13.9344C4.85645 14.3565 4.93958 14.7745 5.10112 15.1645C5.26265 15.5544 5.49942 15.9088 5.79788 16.2072C6.09636 16.5057 6.45071 16.7424 6.84068 16.904C7.23066 17.0655 7.64863 17.1487 8.07073 17.1487" stroke="#4D4B4E" stroke-width="1.5" stroke-linecap="round" stroke-linejoin="round"/>
</g>
<defs>
<clipPath id="clip0_738_3704">
<rect width="18" height="18" fill="white" transform="translate(1 1)"/>
</clipPath>
</defs>
</svg>
