<svg width="20" height="20" viewBox="0 0 20 20" fill="none" xmlns="http://www.w3.org/2000/svg">
<mask id="mask0_738_1652" style="mask-type:alpha" maskUnits="userSpaceOnUse" x="0" y="0" width="20" height="20">
<rect width="20" height="20" fill="#D9D9D9"/>
</mask>
<g mask="url(#mask0_738_1652)">
<path d="M4.42247 16.2502C4.0015 16.2502 3.64518 16.1043 3.35352 15.8127C3.06185 15.521 2.91602 15.1647 2.91602 14.7437V9.16683C2.91602 8.19252 3.10192 7.27586 3.47372 6.41683C3.84553 5.5578 4.35303 4.80676 4.99622 4.1637C5.63928 3.52051 6.39032 3.01301 7.24935 2.6412C8.10838 2.2694 9.02504 2.0835 9.99935 2.0835C10.9737 2.0835 11.8903 2.2694 12.7494 2.6412C13.6084 3.01301 14.3594 3.52051 15.0025 4.1637C15.6457 4.80676 16.1532 5.5578 16.525 6.41683C16.8968 7.27586 17.0827 8.19252 17.0827 9.16683V16.9872C17.0827 17.4082 16.9369 17.7645 16.6452 18.0562C16.3535 18.3479 15.9972 18.4937 15.5762 18.4937H10.6244C10.447 18.4937 10.2985 18.4338 10.1789 18.3141C10.0592 18.1945 9.99935 18.0461 9.99935 17.8687C9.99935 17.6913 10.0592 17.5429 10.1789 17.4233C10.2985 17.3036 10.447 17.2437 10.6244 17.2437H15.5762C15.6511 17.2437 15.7125 17.2197 15.7606 17.1716C15.8087 17.1236 15.8327 17.0621 15.8327 16.9872V16.2502H14.3904C13.9748 16.2502 13.6199 16.103 13.3256 15.8087C13.0312 15.5143 12.8839 15.1593 12.8839 14.7437V11.8591C12.8839 11.4436 13.0312 11.0886 13.3256 10.7943C13.6199 10.4999 13.9748 10.3527 14.3904 10.3527H15.8327V9.16683C15.8327 7.55572 15.2632 6.18072 14.1244 5.04183C12.9855 3.90294 11.6105 3.3335 9.99935 3.3335C8.38824 3.3335 7.01324 3.90294 5.87435 5.04183C4.73546 6.18072 4.16602 7.55572 4.16602 9.16683V10.3527H5.60831C6.02386 10.3527 6.37879 10.4999 6.6731 10.7943C6.96754 11.0886 7.11477 11.4436 7.11477 11.8591V14.7437C7.11477 15.1593 6.96754 15.5143 6.6731 15.8087C6.37879 16.103 6.02386 16.2502 5.60831 16.2502H4.42247ZM4.42247 15.0002H5.60831C5.68303 15.0002 5.74449 14.9761 5.79268 14.9281C5.84074 14.88 5.86477 14.8186 5.86477 14.7437V11.8591C5.86477 11.7844 5.84074 11.7229 5.79268 11.6747C5.74449 11.6267 5.68303 11.6027 5.60831 11.6027H4.16602V14.7437C4.16602 14.8186 4.19004 14.88 4.2381 14.9281C4.28615 14.9761 4.34761 15.0002 4.42247 15.0002ZM14.3904 15.0002H15.8327V11.6027H14.3904C14.3157 11.6027 14.2542 11.6267 14.206 11.6747C14.158 11.7229 14.1339 11.7844 14.1339 11.8591V14.7437C14.1339 14.8186 14.158 14.88 14.206 14.9281C14.2542 14.9761 14.3157 15.0002 14.3904 15.0002ZM14.3904 11.6027H14.1339H15.8327H14.3904Z" fill="#E11936"/>
</g>
</svg>
