<svg width="20" height="20" viewBox="0 0 20 20" fill="none" xmlns="http://www.w3.org/2000/svg">
<mask id="mask0_738_3715" style="mask-type:alpha" maskUnits="userSpaceOnUse" x="0" y="0" width="20" height="20">
<rect width="20" height="20" fill="#D9D9D9"/>
</mask>
<g mask="url(#mask0_738_3715)">
<path d="M4.42345 16.25C4.00248 16.25 3.64616 16.1042 3.35449 15.8125C3.06283 15.5208 2.91699 15.1645 2.91699 14.7435V9.16667C2.91699 8.19236 3.1029 7.27569 3.4747 6.41667C3.84651 5.55764 4.35401 4.8066 4.9972 4.16354C5.64026 3.52035 6.3913 3.01285 7.25033 2.64104C8.10935 2.26924 9.02602 2.08333 10.0003 2.08333C10.9746 2.08333 11.8913 2.26924 12.7503 2.64104C13.6094 3.01285 14.3604 3.52035 15.0035 4.16354C15.6466 4.8066 16.1541 5.55764 16.526 6.41667C16.8978 7.27569 17.0837 8.19236 17.0837 9.16667V16.9871C17.0837 17.4081 16.9378 17.7644 16.6462 18.056C16.3545 18.3477 15.9982 18.4935 15.5772 18.4935H10.6253C10.448 18.4935 10.2995 18.4337 10.1799 18.314C10.0602 18.1944 10.0003 18.0459 10.0003 17.8685C10.0003 17.6912 10.0602 17.5427 10.1799 17.4231C10.2995 17.3034 10.448 17.2435 10.6253 17.2435H15.5772C15.6521 17.2435 15.7135 17.2195 15.7616 17.1715C15.8096 17.1234 15.8337 17.0619 15.8337 16.9871V16.25H14.3914C13.9758 16.25 13.6209 16.1028 13.3266 15.8085C13.0321 15.5141 12.8849 15.1591 12.8849 14.7435V11.859C12.8849 11.4434 13.0321 11.0885 13.3266 10.7942C13.6209 10.4997 13.9758 10.3525 14.3914 10.3525H15.8337V9.16667C15.8337 7.55556 15.2642 6.18055 14.1253 5.04167C12.9864 3.90278 11.6114 3.33333 10.0003 3.33333C8.38921 3.33333 7.01421 3.90278 5.87533 5.04167C4.73644 6.18055 4.16699 7.55556 4.16699 9.16667V10.3525H5.60928C6.02484 10.3525 6.37977 10.4997 6.67408 10.7942C6.96852 11.0885 7.11574 11.4434 7.11574 11.859V14.7435C7.11574 15.1591 6.96852 15.5141 6.67408 15.8085C6.37977 16.1028 6.02484 16.25 5.60928 16.25H4.42345ZM4.42345 15H5.60928C5.68401 15 5.74546 14.976 5.79366 14.9279C5.84171 14.8799 5.86574 14.8184 5.86574 14.7435V11.859C5.86574 11.7842 5.84171 11.7228 5.79366 11.6746C5.74546 11.6265 5.68401 11.6025 5.60928 11.6025H4.16699V14.7435C4.16699 14.8184 4.19102 14.8799 4.23908 14.9279C4.28713 14.976 4.34859 15 4.42345 15ZM14.3914 15H15.8337V11.6025H14.3914C14.3166 11.6025 14.2552 11.6265 14.207 11.6746C14.1589 11.7228 14.1349 11.7842 14.1349 11.859V14.7435C14.1349 14.8184 14.1589 14.8799 14.207 14.9279C14.2552 14.976 14.3166 15 14.3914 15ZM14.3914 11.6025H14.1349H15.8337H14.3914Z" fill="#4D4B4E"/>
</g>
</svg>
