<svg width="20" height="20" viewBox="0 0 20 20" fill="none" xmlns="http://www.w3.org/2000/svg">
<mask id="mask0_738_9236" style="mask-type:alpha" maskUnits="userSpaceOnUse" x="0" y="0" width="20" height="20">
<rect width="20" height="20" fill="#D9D9D9"/>
</mask>
<g mask="url(#mask0_738_9236)">
</g>
<g clip-path="url(#clip0_738_9236)">
<path d="M6.78516 12.6486L16.6594 15.94C16.8528 16.0038 17.0585 16.0208 17.2597 15.9894C17.4608 15.9582 17.6518 15.8795 17.8166 15.76C17.9827 15.6417 18.1183 15.4857 18.2123 15.3045C18.3062 15.1235 18.3557 14.9227 18.3566 14.7186V4.1372C18.3557 3.93323 18.3062 3.7324 18.2123 3.55132C18.1183 3.37024 17.9827 3.21409 17.8166 3.09578C17.6506 2.97844 17.4593 2.90212 17.2581 2.87306C17.057 2.84402 16.8518 2.86306 16.6594 2.92863L6.78516 6.22006V12.6486Z" stroke="#E11936" stroke-width="1.5" stroke-linecap="round" stroke-linejoin="round"/>
<path d="M1.64258 9.4345C1.64258 9.8566 1.72572 10.2746 1.88725 10.6646C2.04878 11.0545 2.28555 11.4089 2.58402 11.7073C3.18681 12.3101 4.00438 12.6488 4.85686 12.6488H6.78544V6.22021H4.85686C4.43476 6.22021 4.01679 6.30335 3.62681 6.46489C3.23684 6.62642 2.8825 6.86319 2.58402 7.16165C1.98122 7.76445 1.64258 8.58202 1.64258 9.4345Z" stroke="#E11936" stroke-width="1.5" stroke-linecap="round" stroke-linejoin="round"/>
<path d="M4.85645 12.6489V13.9347C4.85645 14.3568 4.93958 14.7748 5.10112 15.1647C5.26265 15.5547 5.49942 15.909 5.79788 16.2074C6.09636 16.506 6.45071 16.7427 6.84068 16.9043C7.23066 17.0658 7.64863 17.149 8.07073 17.149" stroke="#E11936" stroke-width="1.5" stroke-linecap="round" stroke-linejoin="round"/>
</g>
<defs>
<clipPath id="clip0_738_9236">
<rect width="18" height="18" fill="white" transform="translate(1 1)"/>
</clipPath>
</defs>
</svg>
