<svg width="20" height="20" viewBox="0 0 20 20" fill="none" xmlns="http://www.w3.org/2000/svg">
<path fill-rule="evenodd" clip-rule="evenodd" d="M14.7779 4.4537C14.4515 2.3932 12.5166 0.987401 10.4561 1.31375L4.229 2.30003C2.16851 2.62638 0.762701 4.5613 1.08905 6.6218L2.07533 12.8489C2.33961 14.5175 3.65876 15.7568 5.24523 15.9945C5.69798 17.5737 7.15212 18.7289 8.87667 18.7289H15.1814C17.2676 18.7289 18.9587 17.0378 18.9587 14.9516V8.64684C18.9587 6.56067 17.2676 4.86948 15.1814 4.86948H14.8438L14.7779 4.4537ZM10.6517 2.54836C12.0303 2.33001 13.3249 3.2706 13.5433 4.64924L14.5296 10.8763C14.7479 12.255 13.8073 13.5496 12.4287 13.768L6.20156 14.7543C4.82292 14.9726 3.52829 14.032 3.30994 12.6533L2.32367 6.42626C2.10531 5.04762 3.04591 3.75299 4.42455 3.53463L10.6517 2.54836ZM15.0418 6.11948L15.7642 10.6808C16.0905 12.7413 14.6847 14.6763 12.6242 15.0026L6.55971 15.9631C6.94981 16.8553 7.84062 17.4789 8.87667 17.4789H15.1814C16.5772 17.4789 17.7087 16.3474 17.7087 14.9516V8.64684C17.7087 7.25103 16.5772 6.11948 15.1814 6.11948H15.0418Z" fill="#4D4B4E"/>
</svg>
