<svg width="20" height="20" viewBox="0 0 20 20" fill="none" xmlns="http://www.w3.org/2000/svg">
<path fill-rule="evenodd" clip-rule="evenodd" d="M14.7779 4.45361C14.4515 2.39311 12.5166 0.987309 10.4561 1.31366L4.229 2.29993C2.16851 2.62628 0.762701 4.56121 1.08905 6.62171L2.07533 12.8488C2.33961 14.5174 3.65876 15.7567 5.24523 15.9944C5.69798 17.5736 7.15212 18.7288 8.87667 18.7288H15.1814C17.2676 18.7288 18.9587 17.0377 18.9587 14.9515V8.64675C18.9587 6.56058 17.2676 4.86939 15.1814 4.86939H14.8438L14.7779 4.45361ZM10.6517 2.54827C12.0303 2.32992 13.3249 3.27051 13.5433 4.64915L14.5296 10.8763C14.7479 12.2549 13.8073 13.5495 12.4287 13.7679L6.20156 14.7542C4.82292 14.9725 3.52829 14.0319 3.30994 12.6533L2.32367 6.42617C2.10531 5.04753 3.04591 3.7529 4.42455 3.53454L10.6517 2.54827ZM15.0418 6.11939L15.7642 10.6808C16.0905 12.7413 14.6847 14.6762 12.6242 15.0025L6.55971 15.963C6.94981 16.8552 7.84062 17.4788 8.87667 17.4788H15.1814C16.5772 17.4788 17.7087 16.3473 17.7087 14.9515V8.64675C17.7087 7.25093 16.5772 6.11939 15.1814 6.11939H15.0418Z" fill="#E11936"/>
</svg>
