<svg width="20" height="20" viewBox="0 0 20 20" fill="none" xmlns="http://www.w3.org/2000/svg">
<mask id="mask0_738_3621" style="mask-type:alpha" maskUnits="userSpaceOnUse" x="0" y="0" width="20" height="20">
<rect width="20" height="20" fill="#D9D9D9"/>
</mask>
<g mask="url(#mask0_738_3621)">
<path d="M11.4355 7.44706L15.7336 3.16998C15.849 3.05456 15.9906 2.99602 16.1582 2.99435C16.326 2.99282 16.4718 3.054 16.5957 3.17789C16.7111 3.29331 16.7688 3.43831 16.7688 3.61289C16.7688 3.78762 16.7111 3.93269 16.5957 4.0481L11.9628 8.68102C11.8121 8.83171 11.6363 8.90706 11.4355 8.90706C11.2347 8.90706 11.0589 8.83171 10.9082 8.68102L8.62947 6.40227C8.50558 6.27838 8.4444 6.13199 8.44592 5.9631C8.44759 5.79435 8.51308 5.64803 8.64238 5.52414C8.76627 5.40873 8.91259 5.35019 9.08134 5.34852C9.25023 5.34699 9.39662 5.40817 9.52051 5.53206L11.4355 7.44706ZM12.2257 17.1683C12.2524 17.179 12.2764 17.1844 12.2978 17.1844C12.3192 17.1844 12.3432 17.179 12.3699 17.1683L17.2722 15.6506C17.2294 15.4616 17.1407 15.3166 17.0061 15.2156C16.8714 15.1146 16.7207 15.0641 16.554 15.0641H12.474C12.1097 15.0641 11.8004 15.0503 11.5461 15.0225C11.2918 14.9947 11.0306 14.9338 10.7624 14.8398L9.45488 14.4119C9.28599 14.3584 9.16495 14.2516 9.09176 14.0914C9.01856 13.9312 9.0087 13.7666 9.06217 13.5977C9.11565 13.4342 9.21898 13.3138 9.37217 13.2364C9.52551 13.1589 9.68662 13.1469 9.85551 13.2004L10.9388 13.5802C11.1909 13.6603 11.4729 13.7172 11.7849 13.7508C12.0968 13.7844 12.5018 13.8055 12.9997 13.8141H13.2207C13.2207 13.6079 13.1743 13.43 13.0813 13.2804C12.9884 13.1308 12.8661 13.0298 12.7145 12.9775L7.87947 11.2019C7.86349 11.1966 7.84877 11.1926 7.8353 11.19C7.82197 11.1872 7.80731 11.1858 7.79134 11.1858H6.24967V15.4808L12.2257 17.1683ZM11.9003 18.3927L6.24967 16.7725C6.15454 17.1175 5.96113 17.3944 5.66947 17.6033C5.3778 17.8122 5.06905 17.9166 4.74322 17.9166H3.58947C3.17391 17.9166 2.81891 17.7695 2.52447 17.4752C2.23016 17.1807 2.08301 16.8257 2.08301 16.4102V11.4423C2.08301 11.0267 2.23016 10.6718 2.52447 10.3775C2.81891 10.0832 3.17391 9.93602 3.58947 9.93602H7.78322C7.86988 9.93602 7.9578 9.94505 8.04697 9.9631C8.13613 9.9813 8.21974 10.0043 8.2978 10.0321L13.1534 11.8206C13.5316 11.9605 13.8457 12.208 14.0957 12.5633C14.3457 12.9186 14.4707 13.3355 14.4707 13.8141H16.554C17.1524 13.8141 17.6399 14.0073 18.0166 14.3935C18.3931 14.7796 18.5813 15.281 18.5813 15.8975C18.5813 16.1336 18.5188 16.3237 18.3938 16.4679C18.2688 16.6122 18.0797 16.7265 17.8265 16.8108L12.7705 18.3798C12.6337 18.4246 12.49 18.4484 12.3395 18.451C12.1888 18.4538 12.0424 18.4344 11.9003 18.3927ZM3.33301 16.4102C3.33301 16.485 3.35704 16.5465 3.40509 16.5946C3.45315 16.6426 3.51461 16.6666 3.58947 16.6666H4.74322C4.81808 16.6666 4.87954 16.6466 4.92759 16.6066C4.97565 16.5665 4.99967 16.501 4.99967 16.4102V11.1858H3.58947C3.51461 11.1858 3.45315 11.2099 3.40509 11.2581C3.35704 11.3062 3.33301 11.3675 3.33301 11.4423V16.4102Z" fill="#4D4B4E"/>
</g>
</svg>
