<svg width="20" height="20" viewBox="0 0 20 20" fill="none" xmlns="http://www.w3.org/2000/svg">
<mask id="mask0_738_11515" style="mask-type:alpha" maskUnits="userSpaceOnUse" x="0" y="0" width="20" height="20">
<rect width="20" height="20" fill="#D9D9D9"/>
</mask>
<g mask="url(#mask0_738_11515)">
<path d="M11.4355 7.44688L15.7336 3.16979C15.849 3.05438 15.9906 2.99584 16.1582 2.99417C16.326 2.99264 16.4718 3.05382 16.5957 3.17771C16.7111 3.29313 16.7688 3.43813 16.7688 3.61271C16.7688 3.78743 16.7111 3.9325 16.5957 4.04792L11.9628 8.68084C11.8121 8.83153 11.6363 8.90688 11.4355 8.90688C11.2347 8.90688 11.0589 8.83153 10.9082 8.68084L8.62947 6.40209C8.50558 6.2782 8.4444 6.13181 8.44592 5.96292C8.44759 5.79417 8.51308 5.64785 8.64238 5.52396C8.76627 5.40854 8.91259 5.35 9.08134 5.34834C9.25023 5.34681 9.39662 5.40799 9.52051 5.53188L11.4355 7.44688ZM12.2257 17.1681C12.2524 17.1788 12.2764 17.1842 12.2978 17.1842C12.3192 17.1842 12.3432 17.1788 12.3699 17.1681L17.2722 15.6504C17.2294 15.4614 17.1407 15.3164 17.0061 15.2154C16.8714 15.1144 16.7207 15.064 16.554 15.064H12.474C12.1097 15.064 11.8004 15.0501 11.5461 15.0223C11.2918 14.9945 11.0306 14.9336 10.7624 14.8396L9.45488 14.4117C9.28599 14.3582 9.16495 14.2514 9.09176 14.0913C9.01856 13.931 9.0087 13.7664 9.06217 13.5975C9.11565 13.434 9.21898 13.3136 9.37217 13.2363C9.52551 13.1588 9.68662 13.1467 9.85551 13.2002L10.9388 13.58C11.1909 13.6601 11.4729 13.717 11.7849 13.7506C12.0968 13.7842 12.5018 13.8053 12.9997 13.814H13.2207C13.2207 13.6077 13.1743 13.4298 13.0813 13.2802C12.9884 13.1306 12.8661 13.0297 12.7145 12.9773L7.87947 11.2017C7.86349 11.1964 7.84877 11.1924 7.8353 11.1898C7.82197 11.187 7.80731 11.1856 7.79134 11.1856H6.24967V15.4806L12.2257 17.1681ZM11.9003 18.3925L6.24967 16.7723C6.15454 17.1173 5.96113 17.3942 5.66947 17.6031C5.3778 17.812 5.06905 17.9165 4.74322 17.9165H3.58947C3.17391 17.9165 2.81891 17.7693 2.52447 17.475C2.23016 17.1806 2.08301 16.8256 2.08301 16.41V11.4421C2.08301 11.0265 2.23016 10.6716 2.52447 10.3773C2.81891 10.083 3.17391 9.93584 3.58947 9.93584H7.78322C7.86988 9.93584 7.9578 9.94486 8.04697 9.96292C8.13613 9.98111 8.21974 10.0041 8.2978 10.0319L13.1534 11.8204C13.5316 11.9603 13.8457 12.2079 14.0957 12.5631C14.3457 12.9184 14.4707 13.3353 14.4707 13.814H16.554C17.1524 13.814 17.6399 14.0071 18.0166 14.3933C18.3931 14.7794 18.5813 15.2808 18.5813 15.8973C18.5813 16.1334 18.5188 16.3235 18.3938 16.4677C18.2688 16.612 18.0797 16.7263 17.8265 16.8106L12.7705 18.3796C12.6337 18.4244 12.49 18.4482 12.3395 18.4508C12.1888 18.4536 12.0424 18.4342 11.9003 18.3925ZM3.33301 16.41C3.33301 16.4849 3.35704 16.5463 3.40509 16.5944C3.45315 16.6424 3.51461 16.6665 3.58947 16.6665H4.74322C4.81808 16.6665 4.87954 16.6465 4.92759 16.6065C4.97565 16.5663 4.99967 16.5008 4.99967 16.41V11.1856H3.58947C3.51461 11.1856 3.45315 11.2097 3.40509 11.2579C3.35704 11.306 3.33301 11.3674 3.33301 11.4421V16.41Z" fill="#E11936"/>
</g>
</svg>
