<svg width="40" height="40" viewBox="0 0 40 40" fill="none" xmlns="http://www.w3.org/2000/svg">
<mask id="mask0_262_19145" style="mask-type:alpha" maskUnits="userSpaceOnUse" x="0" y="0" width="40" height="40">
<rect width="40" height="40" fill="#D9D9D9"/>
</mask>
<g mask="url(#mask0_262_19145)">
<path d="M11.6654 21.6667V35C11.6654 35.4722 11.5056 35.8681 11.1862 36.1875C10.8668 36.5069 10.4709 36.6667 9.9987 36.6667C9.52648 36.6667 9.13064 36.5069 8.8112 36.1875C8.49175 35.8681 8.33203 35.4722 8.33203 35V6.66667C8.33203 6.19444 8.49175 5.79861 8.8112 5.47917C9.13064 5.15972 9.52648 5 9.9987 5H32.5404C32.8459 5 33.1168 5.06944 33.3529 5.20833C33.589 5.34722 33.7765 5.52778 33.9154 5.75C34.0543 5.97222 34.1445 6.21528 34.1862 6.47917C34.2279 6.74306 34.1931 7.01389 34.082 7.29167L31.6654 13.3333L34.082 19.375C34.1931 19.6528 34.2279 19.9236 34.1862 20.1875C34.1445 20.4514 34.0543 20.6944 33.9154 20.9167C33.7765 21.1389 33.589 21.3194 33.3529 21.4583C33.1168 21.5972 32.8459 21.6667 32.5404 21.6667H11.6654ZM11.6654 18.3333H30.082L28.582 14.5833C28.4154 14.1944 28.332 13.7778 28.332 13.3333C28.332 12.8889 28.4154 12.4722 28.582 12.0833L30.082 8.33333H11.6654V18.3333Z" fill="white"/>
</g>
</svg>
