<svg width="20" height="20" viewBox="0 0 20 20" fill="none" xmlns="http://www.w3.org/2000/svg">
<mask id="mask0_738_3017" style="mask-type:alpha" maskUnits="userSpaceOnUse" x="0" y="0" width="20" height="20">
<rect width="20" height="20" fill="#D9D9D9"/>
</mask>
<g mask="url(#mask0_738_3017)">
<path d="M9.20009 11.8428L12.458 9.75463C12.6706 9.61463 12.777 9.41859 12.777 9.1665C12.777 8.91442 12.6706 8.71838 12.458 8.57838L9.20009 6.49025C8.97037 6.33636 8.7337 6.3238 8.49009 6.45255C8.24648 6.5813 8.12467 6.7856 8.12467 7.06546V11.2675C8.12467 11.5474 8.24648 11.7517 8.49009 11.8805C8.7337 12.0092 8.97037 11.9966 9.20009 11.8428ZM3.58947 15.4165C3.16849 15.4165 2.81217 15.2707 2.52051 14.979C2.22884 14.6873 2.08301 14.331 2.08301 13.91V4.42296C2.08301 4.00199 2.22884 3.64567 2.52051 3.354C2.81217 3.06234 3.16849 2.9165 3.58947 2.9165H16.4099C16.8309 2.9165 17.1872 3.06234 17.4788 3.354C17.7705 3.64567 17.9163 4.00199 17.9163 4.42296V13.91C17.9163 14.331 17.7705 14.6873 17.4788 14.979C17.1872 15.2707 16.8309 15.4165 16.4099 15.4165H12.9163V16.3298C12.9163 16.5447 12.8445 16.7239 12.7007 16.8675C12.5571 17.0113 12.3779 17.0832 12.163 17.0832H7.83634C7.62148 17.0832 7.44224 17.0113 7.29863 16.8675C7.15488 16.7239 7.08301 16.5447 7.08301 16.3298V15.4165H3.58947ZM3.58947 14.1665H16.4099C16.4741 14.1665 16.5328 14.1398 16.5861 14.0863C16.6396 14.033 16.6663 13.9742 16.6663 13.91V4.42296C16.6663 4.3588 16.6396 4.30005 16.5861 4.24671C16.5328 4.19324 16.4741 4.1665 16.4099 4.1665H3.58947C3.5253 4.1665 3.46655 4.19324 3.41322 4.24671C3.35974 4.30005 3.33301 4.3588 3.33301 4.42296V13.91C3.33301 13.9742 3.35974 14.033 3.41322 14.0863C3.46655 14.1398 3.5253 14.1665 3.58947 14.1665Z" fill="#E11936"/>
</g>
</svg>
