<svg width="20" height="20" viewBox="0 0 20 20" fill="none" xmlns="http://www.w3.org/2000/svg">
<mask id="mask0_738_3689" style="mask-type:alpha" maskUnits="userSpaceOnUse" x="0" y="0" width="20" height="20">
<rect width="20" height="20" fill="#D9D9D9"/>
</mask>
<g mask="url(#mask0_738_3689)">
<path d="M9.20009 11.8429L12.458 9.75479C12.6706 9.61479 12.777 9.41875 12.777 9.16666C12.777 8.91458 12.6706 8.71854 12.458 8.57854L9.20009 6.49041C8.97037 6.33652 8.7337 6.32396 8.49009 6.45271C8.24648 6.58146 8.12467 6.78576 8.12467 7.06562V11.2677C8.12467 11.5476 8.24648 11.7519 8.49009 11.8806C8.7337 12.0094 8.97037 11.9968 9.20009 11.8429ZM3.58947 15.4167C3.16849 15.4167 2.81217 15.2708 2.52051 14.9792C2.22884 14.6875 2.08301 14.3312 2.08301 13.9102V4.42312C2.08301 4.00215 2.22884 3.64583 2.52051 3.35416C2.81217 3.0625 3.16849 2.91666 3.58947 2.91666H16.4099C16.8309 2.91666 17.1872 3.0625 17.4788 3.35416C17.7705 3.64583 17.9163 4.00215 17.9163 4.42312V13.9102C17.9163 14.3312 17.7705 14.6875 17.4788 14.9792C17.1872 15.2708 16.8309 15.4167 16.4099 15.4167H12.9163V16.33C12.9163 16.5449 12.8445 16.7241 12.7007 16.8677C12.5571 17.0115 12.3779 17.0833 12.163 17.0833H7.83634C7.62148 17.0833 7.44224 17.0115 7.29863 16.8677C7.15488 16.7241 7.08301 16.5449 7.08301 16.33V15.4167H3.58947ZM3.58947 14.1667H16.4099C16.4741 14.1667 16.5328 14.1399 16.5861 14.0865C16.6396 14.0331 16.6663 13.9744 16.6663 13.9102V4.42312C16.6663 4.35896 16.6396 4.30021 16.5861 4.24687C16.5328 4.1934 16.4741 4.16666 16.4099 4.16666H3.58947C3.5253 4.16666 3.46655 4.1934 3.41322 4.24687C3.35974 4.30021 3.33301 4.35896 3.33301 4.42312V13.9102C3.33301 13.9744 3.35974 14.0331 3.41322 14.0865C3.46655 14.1399 3.5253 14.1667 3.58947 14.1667Z" fill="#4D4B4E"/>
</g>
</svg>
