<svg width="20" height="20" viewBox="0 0 20 20" fill="none" xmlns="http://www.w3.org/2000/svg">
<mask id="mask0_853_10515" style="mask-type:alpha" maskUnits="userSpaceOnUse" x="0" y="0" width="20" height="20">
<rect width="20" height="20" fill="#D9D9D9"/>
</mask>
<g mask="url(#mask0_853_10515)">
<path d="M11.3799 10.1561L13.7741 8.54065C13.9974 8.3901 14.1091 8.18232 14.1091 7.91732C14.1091 7.65232 13.9974 7.44454 13.7741 7.29398L11.3799 5.67857C11.1288 5.50009 10.8708 5.48621 10.6059 5.6369C10.3409 5.7876 10.2084 6.01357 10.2084 6.31482V9.51982C10.2084 9.82107 10.3409 10.047 10.6059 10.1977C10.8708 10.3484 11.1288 10.3345 11.3799 10.1561ZM7.56426 13.9429C7.14329 13.9429 6.78697 13.7971 6.49531 13.5054C6.20364 13.2138 6.05781 12.8575 6.05781 12.4365V3.59044C6.05781 3.16947 6.20364 2.81315 6.49531 2.52148C6.78697 2.22982 7.14329 2.08398 7.56426 2.08398H16.4103C16.8313 2.08398 17.1876 2.22982 17.4793 2.52148C17.7709 2.81315 17.9168 3.16947 17.9168 3.59044V12.4365C17.9168 12.8575 17.7709 13.2138 17.4793 13.5054C17.1876 13.7971 16.8313 13.9429 16.4103 13.9429H7.56426ZM7.56426 12.6929H16.4103C16.4852 12.6929 16.5466 12.6689 16.5947 12.6209C16.6427 12.5728 16.6668 12.5113 16.6668 12.4365V3.59044C16.6668 3.51558 16.6427 3.45412 16.5947 3.40607C16.5466 3.35801 16.4852 3.33398 16.4103 3.33398H7.56426C7.4894 3.33398 7.42794 3.35801 7.37989 3.40607C7.33183 3.45412 7.30781 3.51558 7.30781 3.59044V12.4365C7.30781 12.5113 7.33183 12.5728 7.37989 12.6209C7.42794 12.6689 7.4894 12.6929 7.56426 12.6929ZM4.95051 17.789C4.53482 17.8393 4.16169 17.7388 3.83114 17.4877C3.50044 17.2368 3.30996 16.9034 3.25968 16.4877L2.19572 7.88857C2.14544 7.47287 2.25149 7.09919 2.51385 6.76753C2.77607 6.43572 3.11496 6.24315 3.53051 6.18982L3.7326 6.18169C3.90982 6.15614 4.06815 6.20398 4.2076 6.32523C4.34704 6.44648 4.41676 6.60273 4.41676 6.79398C4.41676 6.94885 4.36253 7.0853 4.25406 7.20336C4.14572 7.32141 4.01406 7.39329 3.85906 7.41898L3.68593 7.4269C3.61121 7.43232 3.55246 7.46301 3.50968 7.51898C3.4669 7.5751 3.45086 7.64058 3.46156 7.71544L4.5226 16.3275C4.53329 16.4024 4.56531 16.4611 4.61864 16.5038C4.67211 16.5466 4.73621 16.5626 4.81093 16.5519L14.6541 15.3357C14.8313 15.3132 14.9875 15.354 15.1226 15.4582C15.2579 15.5623 15.3367 15.7031 15.3591 15.8804C15.3816 16.0578 15.3407 16.2106 15.2366 16.3388C15.1324 16.467 14.9916 16.5423 14.8143 16.5648L4.95051 17.789Z" fill="#E11936"/>
</g>
</svg>
