<svg width="20" height="20" viewBox="0 0 20 20" fill="none" xmlns="http://www.w3.org/2000/svg">
<mask id="mask0_738_3682" style="mask-type:alpha" maskUnits="userSpaceOnUse" x="0" y="0" width="20" height="20">
<rect width="20" height="20" fill="#D9D9D9"/>
</mask>
<g mask="url(#mask0_738_3682)">
<path d="M2.08301 6.92313V5.25646C2.08301 4.83549 2.22884 4.47917 2.52051 4.1875C2.81217 3.89583 3.16849 3.75 3.58947 3.75H16.4099C16.8309 3.75 17.1872 3.89583 17.4788 4.1875C17.7705 4.47917 17.9163 4.83549 17.9163 5.25646V9.21479C17.9163 9.39215 17.8565 9.54063 17.7368 9.66021C17.6172 9.77993 17.4687 9.83979 17.2913 9.83979C17.114 9.83979 16.9655 9.77993 16.8459 9.66021C16.7262 9.54063 16.6663 9.39215 16.6663 9.21479V5.25646C16.6663 5.19229 16.6396 5.13354 16.5861 5.08021C16.5328 5.02674 16.4741 5 16.4099 5H3.58947C3.5253 5 3.46655 5.02674 3.41322 5.08021C3.35974 5.13354 3.33301 5.19229 3.33301 5.25646V6.92313C3.33301 7.10049 3.27315 7.24896 3.15342 7.36854C3.03384 7.48826 2.88537 7.54813 2.70801 7.54813C2.53065 7.54813 2.38217 7.48826 2.26259 7.36854C2.14287 7.24896 2.08301 7.10049 2.08301 6.92313ZM5.83301 13.9583C5.71231 13.9583 5.6012 13.9308 5.49967 13.8758C5.39815 13.8208 5.32072 13.7356 5.26738 13.6202L3.78655 10.625H2.72092C2.54356 10.625 2.39502 10.5651 2.2753 10.4454C2.15572 10.3258 2.09592 10.1774 2.09592 10C2.09592 9.82264 2.15572 9.67417 2.2753 9.55458C2.39502 9.43486 2.54356 9.375 2.72092 9.375H4.17926C4.29454 9.375 4.40079 9.40597 4.49801 9.46792C4.59523 9.52986 4.67058 9.61431 4.72405 9.72125L5.83301 11.931L8.60072 6.38792C8.65405 6.28639 8.7328 6.21021 8.83697 6.15938C8.94113 6.10868 9.05092 6.08333 9.16634 6.08333C9.28176 6.08333 9.39016 6.10868 9.49155 6.15938C9.59308 6.21021 9.67058 6.28639 9.72405 6.38792L11.248 9.42792C11.0622 9.54861 10.8827 9.67229 10.7097 9.79896C10.5366 9.92549 10.3769 10.0663 10.2305 10.2213L9.15842 8.07688L6.39072 13.6202C6.33724 13.7356 6.25974 13.8208 6.15822 13.8758C6.05683 13.9308 5.94842 13.9583 5.83301 13.9583ZM3.58947 16.25C3.16849 16.25 2.81217 16.1042 2.52051 15.8125C2.22884 15.5208 2.08301 15.1645 2.08301 14.7435V13.0769C2.08301 12.8995 2.14287 12.751 2.26259 12.6315C2.38217 12.5117 2.53065 12.4519 2.70801 12.4519C2.88537 12.4519 3.03384 12.5117 3.15342 12.6315C3.27315 12.751 3.33301 12.8995 3.33301 13.0769V14.7435C3.33301 14.8077 3.35974 14.8665 3.41322 14.9198C3.46655 14.9733 3.5253 15 3.58947 15H8.20488C8.38224 15 8.53072 15.0599 8.6503 15.1796C8.77002 15.2992 8.82988 15.4476 8.82988 15.625C8.82988 15.8024 8.77002 15.9508 8.6503 16.0704C8.53072 16.1901 8.38224 16.25 8.20488 16.25H3.58947ZM14.1663 17.9167C13.1258 17.9167 12.2406 17.5518 11.5109 16.8221C10.7812 16.0924 10.4163 15.2072 10.4163 14.1667C10.4163 13.1261 10.7812 12.241 11.5109 11.5113C12.2406 10.7815 13.1258 10.4167 14.1663 10.4167C15.2069 10.4167 16.092 10.7815 16.8218 11.5113C17.5515 12.241 17.9163 13.1261 17.9163 14.1667C17.9163 15.2072 17.5515 16.0924 16.8218 16.8221C16.092 17.5518 15.2069 17.9167 14.1663 17.9167ZM15.8249 13.0273C15.8977 12.9547 15.9354 12.8694 15.938 12.7717C15.9406 12.6739 15.9029 12.586 15.8249 12.5081C15.7522 12.4353 15.6657 12.399 15.5653 12.399C15.4649 12.399 15.3784 12.4353 15.3057 12.5081L14.0734 13.7275C14.0008 13.8001 13.9631 13.8875 13.9605 13.9896C13.9577 14.0917 13.9954 14.1817 14.0734 14.2596C14.1461 14.3322 14.2347 14.3685 14.3395 14.3685C14.4442 14.3685 14.5329 14.3322 14.6055 14.2596L15.8249 13.0273Z" fill="#4D4B4E"/>
</g>
</svg>
