<svg width="20" height="20" viewBox="0 0 20 20" fill="none" xmlns="http://www.w3.org/2000/svg">
<mask id="mask0_738_3673" style="mask-type:alpha" maskUnits="userSpaceOnUse" x="0" y="0" width="20" height="20">
<rect width="20" height="20" fill="#D9D9D9"/>
</mask>
<g mask="url(#mask0_738_3673)">
<path d="M10.125 13.6185C10.5993 13.6185 11.025 13.5002 11.4023 13.2635C11.7793 13.027 11.9679 12.6475 11.9679 12.125C11.9679 11.6901 11.8058 11.3438 11.4816 11.0858C11.1573 10.8278 10.5523 10.5363 9.66663 10.2115C8.80982 9.90382 8.19177 9.55931 7.81246 9.17792C7.43316 8.79653 7.2435 8.29278 7.2435 7.66667C7.2435 7.12931 7.43746 6.63729 7.82538 6.19063C8.21315 5.7441 8.75531 5.45938 9.45184 5.33646V4.89583C9.45184 4.74417 9.50878 4.61146 9.62267 4.49771C9.73642 4.38382 9.86913 4.32687 10.0208 4.32687C10.1725 4.32687 10.3052 4.38382 10.4189 4.49771C10.5328 4.61146 10.5898 4.74417 10.5898 4.89583V5.33646C10.9818 5.36424 11.3467 5.49167 11.6843 5.71875C12.0218 5.94583 12.2975 6.22764 12.5112 6.56417C12.587 6.67944 12.594 6.80257 12.532 6.93354C12.4701 7.06437 12.3659 7.15653 12.2195 7.21C12.0818 7.26333 11.9426 7.27028 11.802 7.23083C11.6616 7.19125 11.5465 7.11111 11.4566 6.99042C11.2965 6.79694 11.1002 6.64014 10.8677 6.52C10.6353 6.39986 10.36 6.33979 10.0416 6.33979C9.52343 6.33979 9.11718 6.46264 8.82288 6.70833C8.52857 6.95403 8.38142 7.27347 8.38142 7.66667C8.38142 8.05986 8.5251 8.36597 8.81246 8.585C9.09982 8.80403 9.68156 9.06313 10.5577 9.36229C11.5577 9.7234 12.2297 10.1283 12.5737 10.5769C12.9177 11.0256 13.0898 11.5417 13.0898 12.125C13.0898 12.5225 13.0163 12.8713 12.8693 13.1715C12.7224 13.4717 12.5304 13.7242 12.2933 13.9287C12.0561 14.1333 11.786 14.2949 11.4831 14.4135C11.1802 14.532 10.8685 14.6153 10.5481 14.6635V15.1042C10.5481 15.2558 10.4911 15.3885 10.3773 15.5023C10.2635 15.6162 10.1308 15.6731 9.97913 15.6731C9.82746 15.6731 9.69475 15.6162 9.581 15.5023C9.46711 15.3885 9.41017 15.2558 9.41017 15.1042V14.6219C8.8985 14.5108 8.45517 14.3117 8.08017 14.0248C7.70517 13.738 7.40121 13.3638 7.16829 12.9023C7.10093 12.7559 7.10038 12.6111 7.16663 12.4679C7.23288 12.3247 7.3392 12.2265 7.48559 12.1731C7.62336 12.1197 7.76385 12.1204 7.90704 12.1754C8.05024 12.2306 8.15975 12.3227 8.23559 12.4519C8.45142 12.8344 8.72197 13.1244 9.04725 13.3221C9.37253 13.5197 9.73177 13.6185 10.125 13.6185ZM9.99996 18.75C8.37496 18.75 6.90031 18.3477 5.576 17.5431C4.25184 16.7387 3.21316 15.6607 2.45996 14.3092V16.1698C2.45996 16.3472 2.4001 16.4957 2.28038 16.6154C2.16079 16.735 2.01232 16.7948 1.83496 16.7948C1.6576 16.7948 1.50906 16.735 1.38934 16.6154C1.26975 16.4957 1.20996 16.3472 1.20996 16.1698V12.9648C1.20996 12.7499 1.28177 12.5707 1.42538 12.4271C1.56913 12.2833 1.74836 12.2115 1.96309 12.2115H5.16829C5.34566 12.2115 5.49413 12.2713 5.61371 12.391C5.73343 12.5106 5.79329 12.6591 5.79329 12.8365C5.79329 13.0138 5.73343 13.1624 5.61371 13.2821C5.49413 13.4017 5.34566 13.4615 5.16829 13.4615H3.42621C4.02871 14.6752 4.9192 15.6517 6.09767 16.391C7.27614 17.1303 8.5769 17.5 9.99996 17.5C11.9369 17.5 13.6089 16.8606 15.016 15.5817C16.4231 14.3029 17.2345 12.7068 17.4504 10.7933C17.4727 10.6192 17.5459 10.4781 17.6698 10.3702C17.7938 10.2623 17.9428 10.2083 18.1168 10.2083C18.2942 10.2083 18.4435 10.2679 18.5648 10.3871C18.686 10.5061 18.7354 10.6485 18.7131 10.8142C18.6104 11.9306 18.3129 12.9698 17.8204 13.9319C17.3279 14.894 16.692 15.7321 15.9127 16.4462C15.1332 17.1604 14.239 17.7229 13.23 18.1337C12.2208 18.5446 11.1441 18.75 9.99996 18.75ZM9.99996 2.5C8.0951 2.5 6.43246 3.13007 5.01204 4.39021C3.59163 5.65035 2.77079 7.25319 2.54954 9.19875C2.52718 9.37292 2.45406 9.51528 2.33017 9.62583C2.20614 9.73639 2.05711 9.79167 1.88309 9.79167C1.70031 9.79167 1.54961 9.73208 1.431 9.61292C1.31253 9.49389 1.26447 9.34889 1.28684 9.17792C1.40003 8.04014 1.70691 6.98882 2.20746 6.02396C2.70802 5.05924 3.34802 4.22382 4.12746 3.51771C4.90677 2.81146 5.79829 2.25694 6.80204 1.85417C7.80579 1.45139 8.87177 1.25 9.99996 1.25C11.609 1.25 13.0836 1.65361 14.4239 2.46083C15.7642 3.26792 16.8029 4.35528 17.54 5.72292V3.83021C17.54 3.65285 17.5998 3.50431 17.7195 3.38458C17.8391 3.265 17.9876 3.20521 18.165 3.20521C18.3423 3.20521 18.4909 3.265 18.6106 3.38458C18.7302 3.50431 18.79 3.65285 18.79 3.83021V7.03521C18.79 7.25007 18.7182 7.42931 18.5745 7.57292C18.4308 7.71667 18.2516 7.78854 18.0368 7.78854H14.8316C14.6543 7.78854 14.5058 7.72868 14.3862 7.60896C14.2665 7.48937 14.2066 7.3409 14.2066 7.16354C14.2066 6.98618 14.2665 6.83764 14.3862 6.71792C14.5058 6.59833 14.6543 6.53854 14.8316 6.53854H16.5737C15.9872 5.34618 15.1034 4.375 13.9223 3.625C12.7411 2.875 11.4337 2.5 9.99996 2.5Z" fill="#4D4B4E"/>
</g>
</svg>
