<svg width="20" height="20" viewBox="0 0 20 20" fill="none" xmlns="http://www.w3.org/2000/svg">
<mask id="mask0_827_16945" style="mask-type:alpha" maskUnits="userSpaceOnUse" x="0" y="0" width="20" height="20">
<rect width="20" height="20" fill="#D9D9D9"/>
</mask>
<g mask="url(#mask0_827_16945)">
<path d="M3.33203 15.8337H6.94578V9.16699H3.33203V15.8337ZM8.19578 15.8337H11.8016V4.16699H8.19578V15.8337ZM13.0516 15.8337H16.6654V10.8337H13.0516V15.8337ZM2.08203 15.5772V9.42345C2.08203 9.00915 2.22953 8.65449 2.52453 8.35949C2.81953 8.06449 3.17418 7.91699 3.58849 7.91699H6.94578V4.42345C6.94578 4.00915 7.09328 3.65449 7.38828 3.35949C7.68328 3.06449 8.03793 2.91699 8.45224 2.91699H11.5452C11.9595 2.91699 12.3141 3.06449 12.6091 3.35949C12.9041 3.65449 13.0516 4.00915 13.0516 4.42345V9.58366H16.4089C16.8232 9.58366 17.1779 9.73116 17.4729 10.0262C17.7679 10.3212 17.9154 10.6758 17.9154 11.0901V15.5772C17.9154 15.9915 17.7679 16.3462 17.4729 16.6412C17.1779 16.9362 16.8232 17.0837 16.4089 17.0837H3.58849C3.17418 17.0837 2.81953 16.9362 2.52453 16.6412C2.22953 16.3462 2.08203 15.9915 2.08203 15.5772Z" fill="#E11936"/>
</g>
</svg>
