<svg width="20" height="20" viewBox="0 0 20 20" fill="none" xmlns="http://www.w3.org/2000/svg">
<mask id="mask0_827_16952" style="mask-type:alpha" maskUnits="userSpaceOnUse" x="0" y="0" width="20" height="20">
<rect width="20" height="20" fill="#D9D9D9"/>
</mask>
<g mask="url(#mask0_827_16952)">
<path d="M6.18073 17.0837C5.81545 17.0837 5.49469 16.9685 5.21844 16.7383C4.94233 16.508 4.77219 16.2102 4.70802 15.8449L3.20802 7.67992C2.76899 7.73964 2.38628 7.62694 2.0599 7.3418C1.73351 7.05652 1.57031 6.69541 1.57031 6.25846C1.57031 5.86416 1.7108 5.52652 1.99177 5.24555C2.27274 4.96457 2.61302 4.82409 3.0126 4.82409C3.40677 4.82409 3.74434 4.96457 4.02531 5.24555C4.30628 5.52652 4.44677 5.86416 4.44677 6.25846C4.44677 6.4368 4.41767 6.60395 4.35948 6.75992C4.30128 6.91589 4.21663 7.05534 4.10552 7.17825C4.38427 7.33214 4.66656 7.46006 4.9524 7.56201C5.23823 7.66409 5.53872 7.71513 5.85385 7.71513C6.50233 7.71513 7.09767 7.54096 7.6399 7.19263C8.18212 6.8443 8.6124 6.38756 8.93073 5.82242L9.32344 5.1045C9.09163 4.97839 8.90733 4.80506 8.77052 4.5845C8.63372 4.36395 8.56531 4.11527 8.56531 3.83846C8.56531 3.4443 8.70587 3.10673 8.98698 2.82575C9.26795 2.54478 9.60552 2.4043 9.99969 2.4043C10.3939 2.4043 10.7314 2.54478 11.0124 2.82575C11.2935 3.10673 11.4341 3.4443 11.4341 3.83846C11.4341 4.11527 11.3657 4.36395 11.2289 4.5845C11.092 4.80506 10.9077 4.97839 10.6759 5.1045L11.0686 5.82242C11.387 6.38756 11.8173 6.8443 12.3595 7.19263C12.9017 7.54096 13.497 7.71513 14.1455 7.71513C14.4607 7.71513 14.7611 7.66624 15.047 7.56846C15.3328 7.47069 15.6151 7.34492 15.8939 7.19117C15.7827 7.06825 15.6981 6.92666 15.6399 6.76638C15.5817 6.6061 15.5526 6.4368 15.5526 6.25846C15.5526 5.86416 15.6931 5.52652 15.9741 5.24555C16.255 4.96457 16.5926 4.82409 16.9868 4.82409C17.3864 4.82409 17.7266 4.96457 18.0076 5.24555C18.2886 5.52652 18.4291 5.86416 18.4291 6.25846C18.4291 6.69541 18.2659 7.05652 17.9395 7.3418C17.6131 7.62694 17.233 7.73964 16.7993 7.67992L15.2914 15.8449C15.2272 16.2049 15.057 16.5014 14.7809 16.7343C14.5047 16.9672 14.1839 17.0837 13.8186 17.0837H6.18073ZM6.20156 15.8337H13.7978C13.8566 15.8337 13.9113 15.8137 13.962 15.7737C14.0128 15.7335 14.0436 15.6841 14.0543 15.6253L15.3203 8.78555C15.13 8.83471 14.9355 8.8777 14.7368 8.91451C14.5382 8.95145 14.3411 8.96992 14.1455 8.96992C13.2758 8.96992 12.4766 8.74818 11.748 8.30471C11.0194 7.86138 10.4366 7.26207 9.99969 6.5068C9.55733 7.2568 8.97184 7.85478 8.24323 8.30075C7.51462 8.74687 6.71816 8.96992 5.85385 8.96992C5.6583 8.96992 5.46122 8.95145 5.2626 8.91451C5.06385 8.8777 4.86934 8.83471 4.67906 8.78555L5.9451 15.6253C5.9558 15.6841 5.98656 15.7335 6.0374 15.7737C6.08809 15.8137 6.14281 15.8337 6.20156 15.8337Z" fill="#4D4B4E"/>
</g>
</svg>
