<svg width="20" height="20" viewBox="0 0 20 20" fill="none" xmlns="http://www.w3.org/2000/svg">
<mask id="mask0_738_11857" style="mask-type:alpha" maskUnits="userSpaceOnUse" x="0" y="0" width="20" height="20">
<rect width="20" height="20" fill="#D9D9D9"/>
</mask>
<g mask="url(#mask0_738_11857)">
<path d="M4.42247 17.0832C4.00817 17.0832 3.65352 16.9357 3.35852 16.6407C3.06352 16.3457 2.91602 15.991 2.91602 15.5767V4.42296C2.91602 4.00866 3.06352 3.654 3.35852 3.359C3.65352 3.064 4.00817 2.9165 4.42247 2.9165H15.5762C15.9905 2.9165 16.3452 3.064 16.6402 3.359C16.9352 3.654 17.0827 4.00866 17.0827 4.42296V8.63775C17.0827 8.81484 17.0228 8.96324 16.9029 9.08296C16.783 9.20282 16.6346 9.26275 16.4575 9.26275C16.2803 9.26275 16.1318 9.20282 16.0123 9.08296C15.8925 8.96324 15.8327 8.81484 15.8327 8.63775V4.42296C15.8327 4.3588 15.8059 4.30005 15.7525 4.24671C15.6991 4.19324 15.6404 4.1665 15.5762 4.1665H4.42247C4.35831 4.1665 4.29956 4.19324 4.24622 4.24671C4.19275 4.30005 4.16602 4.3588 4.16602 4.42296V15.5767C4.16602 15.6409 4.19275 15.6996 4.24622 15.753C4.29956 15.8064 4.35831 15.8332 4.42247 15.8332H8.63727C8.81435 15.8332 8.96275 15.8931 9.08247 16.013C9.20233 16.1328 9.26227 16.2813 9.26227 16.4584C9.26227 16.6356 9.20233 16.784 9.08247 16.9036C8.96275 17.0233 8.81435 17.0832 8.63727 17.0832H4.42247ZM4.16602 15.8332V4.1665V9.32525V9.26275V15.8332ZM6.04102 13.2373C6.04102 13.4144 6.10095 13.5628 6.22081 13.6825C6.34053 13.8021 6.48893 13.8619 6.66602 13.8619H8.76372C8.94081 13.8619 9.08928 13.802 9.20914 13.6821C9.32886 13.5624 9.38872 13.4139 9.38872 13.2367C9.38872 13.0596 9.32886 12.9112 9.20914 12.7915C9.08928 12.6719 8.94081 12.6121 8.76372 12.6121H6.66602C6.48893 12.6121 6.34053 12.672 6.22081 12.7917C6.10095 12.9116 6.04102 13.0601 6.04102 13.2373ZM6.04102 10C6.04102 10.1773 6.10095 10.3257 6.22081 10.4453C6.34053 10.565 6.48893 10.6248 6.66602 10.6248H11.4498C11.6268 10.6248 11.7753 10.5649 11.895 10.445C12.0148 10.3252 12.0748 10.1767 12.0748 9.99963C12.0748 9.82241 12.0148 9.674 11.895 9.55442C11.7753 9.4347 11.6268 9.37484 11.4498 9.37484H6.66602C6.48893 9.37484 6.34053 9.43477 6.22081 9.55463C6.10095 9.67449 6.04102 9.82296 6.04102 10ZM6.04102 6.76296C6.04102 6.94005 6.10095 7.08845 6.22081 7.20817C6.34053 7.32775 6.48893 7.38755 6.66602 7.38755H13.3327C13.5098 7.38755 13.6582 7.32768 13.7779 7.20796C13.8978 7.0881 13.9577 6.93956 13.9577 6.76234C13.9577 6.58525 13.8978 6.43685 13.7779 6.31713C13.6582 6.19755 13.5098 6.13775 13.3327 6.13775H6.66602C6.48893 6.13775 6.34053 6.19768 6.22081 6.31755C6.10095 6.43727 6.04102 6.58574 6.04102 6.76296ZM14.9993 18.798C13.9588 18.798 13.0737 18.4331 12.3439 17.7034C11.6142 16.9737 11.2493 16.0885 11.2493 15.048C11.2493 14.0074 11.6142 13.1223 12.3439 12.3925C13.0737 11.6628 13.9588 11.298 14.9993 11.298C16.0399 11.298 16.925 11.6628 17.6548 12.3925C18.3845 13.1223 18.7493 14.0074 18.7493 15.048C18.7493 16.0885 18.3845 16.9737 17.6548 17.7034C16.925 18.4331 16.0399 18.798 14.9993 18.798ZM14.9993 15.048C15.3466 15.048 15.6417 14.9264 15.8848 14.6834C16.1278 14.4403 16.2493 14.1452 16.2493 13.798C16.2493 13.4507 16.1278 13.1556 15.8848 12.9125C15.6417 12.6695 15.3466 12.548 14.9993 12.548C14.6521 12.548 14.357 12.6695 14.1139 12.9125C13.8709 13.1556 13.7493 13.4507 13.7493 13.798C13.7493 14.1452 13.8709 14.4403 14.1139 14.6834C14.357 14.9264 14.6521 15.048 14.9993 15.048ZM14.9993 17.548C15.3691 17.548 15.7064 17.4793 16.0114 17.3419C16.3164 17.2047 16.587 17.0057 16.8231 16.745C16.8957 16.667 16.9238 16.5791 16.9073 16.4815C16.8906 16.3837 16.8348 16.3055 16.7398 16.2467C16.4791 16.0992 16.2037 15.9929 15.9135 15.9278C15.6235 15.8626 15.3188 15.83 14.9993 15.83C14.6799 15.83 14.3752 15.8648 14.0852 15.9342C13.795 16.0037 13.5196 16.1078 13.2589 16.2467C13.1639 16.2969 13.1081 16.373 13.0914 16.475C13.0749 16.577 13.103 16.667 13.1756 16.745C13.4117 17.0057 13.6823 17.2047 13.9873 17.3419C14.2923 17.4793 14.6296 17.548 14.9993 17.548Z" fill="#E11936"/>
</g>
</svg>
