<svg width="20" height="20" viewBox="0 0 20 20" fill="none" xmlns="http://www.w3.org/2000/svg">
<mask id="mask0_738_3722" style="mask-type:alpha" maskUnits="userSpaceOnUse" x="0" y="0" width="20" height="20">
<rect width="20" height="20" fill="#D9D9D9"/>
</mask>
<g mask="url(#mask0_738_3722)">
<path d="M4.42345 17.0833C4.00914 17.0833 3.65449 16.9358 3.35949 16.6408C3.06449 16.3458 2.91699 15.9912 2.91699 15.5769V4.42312C2.91699 4.00882 3.06449 3.65416 3.35949 3.35916C3.65449 3.06416 4.00914 2.91666 4.42345 2.91666H15.5772C15.9915 2.91666 16.3462 3.06416 16.6412 3.35916C16.9362 3.65416 17.0837 4.00882 17.0837 4.42312V8.63791C17.0837 8.815 17.0237 8.9634 16.9039 9.08312C16.784 9.20298 16.6355 9.26291 16.4585 9.26291C16.2812 9.26291 16.1328 9.20298 16.0132 9.08312C15.8935 8.9634 15.8337 8.815 15.8337 8.63791V4.42312C15.8337 4.35896 15.8069 4.30021 15.7535 4.24687C15.7001 4.1934 15.6414 4.16666 15.5772 4.16666H4.42345C4.35928 4.16666 4.30053 4.1934 4.2472 4.24687C4.19373 4.30021 4.16699 4.35896 4.16699 4.42312V15.5769C4.16699 15.641 4.19373 15.6998 4.2472 15.7531C4.30053 15.8066 4.35928 15.8333 4.42345 15.8333H8.63824C8.81533 15.8333 8.96373 15.8933 9.08345 16.0131C9.20331 16.133 9.26324 16.2815 9.26324 16.4585C9.26324 16.6358 9.20331 16.7842 9.08345 16.9037C8.96373 17.0235 8.81533 17.0833 8.63824 17.0833H4.42345ZM4.16699 15.8333V4.16666V9.32541V9.26291V15.8333ZM6.04199 13.2375C6.04199 13.4146 6.10192 13.563 6.22178 13.6827C6.34151 13.8023 6.48991 13.8621 6.66699 13.8621H8.7647C8.94178 13.8621 9.09026 13.8022 9.21012 13.6823C9.32984 13.5626 9.3897 13.4141 9.3897 13.2369C9.3897 13.0598 9.32984 12.9114 9.21012 12.7917C9.09026 12.6721 8.94178 12.6123 8.7647 12.6123H6.66699C6.48991 12.6123 6.34151 12.6722 6.22178 12.7919C6.10192 12.9117 6.04199 13.0603 6.04199 13.2375ZM6.04199 10.0002C6.04199 10.1774 6.10192 10.3258 6.22178 10.4454C6.34151 10.5651 6.48991 10.625 6.66699 10.625H11.4507C11.6278 10.625 11.7762 10.5651 11.896 10.4452C12.0158 10.3253 12.0757 10.1769 12.0757 9.99979C12.0757 9.82257 12.0158 9.67416 11.896 9.55458C11.7762 9.43486 11.6278 9.375 11.4507 9.375H6.66699C6.48991 9.375 6.34151 9.43493 6.22178 9.55479C6.10192 9.67465 6.04199 9.82312 6.04199 10.0002ZM6.04199 6.76312C6.04199 6.94021 6.10192 7.08861 6.22178 7.20833C6.34151 7.32791 6.48991 7.38771 6.66699 7.38771H13.3337C13.5107 7.38771 13.6591 7.32784 13.7789 7.20812C13.8987 7.08826 13.9587 6.93972 13.9587 6.7625C13.9587 6.58541 13.8987 6.43701 13.7789 6.31729C13.6591 6.19771 13.5107 6.13791 13.3337 6.13791H6.66699C6.48991 6.13791 6.34151 6.19784 6.22178 6.31771C6.10192 6.43743 6.04199 6.5859 6.04199 6.76312ZM15.0003 18.7981C13.9598 18.7981 13.0746 18.4333 12.3449 17.7035C11.6152 16.9738 11.2503 16.0887 11.2503 15.0481C11.2503 14.0076 11.6152 13.1224 12.3449 12.3927C13.0746 11.663 13.9598 11.2981 15.0003 11.2981C16.0409 11.2981 16.926 11.663 17.6557 12.3927C18.3855 13.1224 18.7503 14.0076 18.7503 15.0481C18.7503 16.0887 18.3855 16.9738 17.6557 17.7035C16.926 18.4333 16.0409 18.7981 15.0003 18.7981ZM15.0003 15.0481C15.3475 15.0481 15.6427 14.9266 15.8857 14.6835C16.1288 14.4405 16.2503 14.1453 16.2503 13.7981C16.2503 13.4509 16.1288 13.1558 15.8857 12.9127C15.6427 12.6697 15.3475 12.5481 15.0003 12.5481C14.6531 12.5481 14.358 12.6697 14.1149 12.9127C13.8719 13.1558 13.7503 13.4509 13.7503 13.7981C13.7503 14.1453 13.8719 14.4405 14.1149 14.6835C14.358 14.9266 14.6531 15.0481 15.0003 15.0481ZM15.0003 17.5481C15.37 17.5481 15.7074 17.4794 16.0124 17.3421C16.3174 17.2049 16.588 17.0059 16.8241 16.7452C16.8967 16.6672 16.9248 16.5793 16.9082 16.4817C16.8916 16.3839 16.8357 16.3056 16.7407 16.2469C16.48 16.0994 16.2046 15.9931 15.9145 15.9279C15.6245 15.8628 15.3198 15.8302 15.0003 15.8302C14.6809 15.8302 14.3762 15.8649 14.0862 15.9344C13.796 16.0038 13.5206 16.108 13.2599 16.2469C13.1649 16.297 13.1091 16.3731 13.0924 16.4752C13.0759 16.5772 13.1039 16.6672 13.1766 16.7452C13.4127 17.0059 13.6832 17.2049 13.9882 17.3421C14.2932 17.4794 14.6306 17.5481 15.0003 17.5481Z" fill="#4D4B4E"/>
</g>
</svg>
