<svg width="20" height="20" viewBox="0 0 20 20" fill="none" xmlns="http://www.w3.org/2000/svg">
<mask id="mask0_853_10522" style="mask-type:alpha" maskUnits="userSpaceOnUse" x="0" y="0" width="20" height="20">
<rect width="20" height="20" fill="#D9D9D9"/>
</mask>
<g mask="url(#mask0_853_10522)">
<path d="M9.88922 12.3791C10.0323 12.3791 10.1508 12.3321 10.2448 12.2381C10.3389 12.1441 10.3859 12.0255 10.3859 11.8823V8.13227C10.3859 7.98921 10.3389 7.87067 10.2448 7.77664C10.1508 7.68261 10.0323 7.6356 9.88922 7.6356C9.74603 7.6356 9.62741 7.68261 9.53339 7.77664C9.43936 7.87067 9.39234 7.98921 9.39234 8.13227V11.8823C9.39234 12.0255 9.43936 12.1441 9.53339 12.2381C9.62741 12.3321 9.74603 12.3791 9.88922 12.3791ZM6.07505 12.3791H7.48526C7.74276 12.3791 7.95936 12.2913 8.13505 12.1156C8.31089 11.9398 8.3988 11.7231 8.3988 11.4656V10.5683C8.3988 10.4251 8.35179 10.3065 8.25776 10.2125C8.16373 10.1184 8.04512 10.0714 7.90193 10.0714C7.75873 10.0714 7.64012 10.1184 7.54609 10.2125C7.45221 10.3065 7.40526 10.4251 7.40526 10.5683V11.2093C7.40526 11.2574 7.3879 11.2988 7.35318 11.3335C7.31846 11.3682 7.277 11.3856 7.2288 11.3856H6.33151C6.28332 11.3856 6.24186 11.3682 6.20714 11.3335C6.17241 11.2988 6.15505 11.2574 6.15505 11.2093V8.80539C6.15505 8.75734 6.17241 8.71595 6.20714 8.68122C6.24186 8.6465 6.28332 8.62914 6.33151 8.62914H7.90193C8.04512 8.62914 8.16373 8.58213 8.25776 8.4881C8.35179 8.39407 8.3988 8.27546 8.3988 8.13227C8.3988 7.98921 8.35179 7.87067 8.25776 7.77664C8.16373 7.68261 8.04512 7.6356 7.90193 7.6356H6.07505C5.81755 7.6356 5.60096 7.72345 5.42526 7.89914C5.24943 8.07497 5.16151 8.29164 5.16151 8.54914V11.4656C5.16151 11.7231 5.24943 11.9398 5.42526 12.1156C5.60096 12.2913 5.81755 12.3791 6.07505 12.3791ZM12.1328 12.3791C12.2758 12.3791 12.3944 12.3321 12.4884 12.2381C12.5824 12.1441 12.6294 12.0255 12.6294 11.8823V10.6483H13.7673C13.9105 10.6483 14.0292 10.6013 14.1232 10.5073C14.2171 10.4132 14.264 10.2947 14.264 10.1516C14.264 10.0084 14.2171 9.88984 14.1232 9.79581C14.0292 9.70178 13.9105 9.65477 13.7673 9.65477H12.6294V8.62914H14.6007C14.7439 8.62914 14.8625 8.58213 14.9565 8.4881C15.0504 8.39407 15.0973 8.27546 15.0973 8.13227C15.0973 7.98921 15.0504 7.87067 14.9565 7.77664C14.8625 7.68261 14.7439 7.6356 14.6007 7.6356H12.1328C11.9896 7.6356 11.871 7.68261 11.7769 7.77664C11.6829 7.87067 11.6359 7.98921 11.6359 8.13227V11.8823C11.6359 12.0255 11.6829 12.1441 11.7769 12.2381C11.871 12.3321 11.9896 12.3791 12.1328 12.3791ZM4.42443 17.0827C4.00345 17.0827 3.64714 16.9368 3.35547 16.6452C3.0638 16.3535 2.91797 15.9972 2.91797 15.5762V4.42247C2.91797 4.0015 3.0638 3.64518 3.35547 3.35352C3.64714 3.06185 4.00345 2.91602 4.42443 2.91602H15.5782C15.9992 2.91602 16.3555 3.06185 16.6471 3.35352C16.9388 3.64518 17.0846 4.0015 17.0846 4.42247V15.5762C17.0846 15.9972 16.9388 16.3535 16.6471 16.6452C16.3555 16.9368 15.9992 17.0827 15.5782 17.0827H4.42443ZM4.42443 15.8327H15.5782C15.6423 15.8327 15.7011 15.8059 15.7544 15.7525C15.8079 15.6991 15.8346 15.6404 15.8346 15.5762V4.42247C15.8346 4.35831 15.8079 4.29956 15.7544 4.24622C15.7011 4.19275 15.6423 4.16602 15.5782 4.16602H4.42443C4.36026 4.16602 4.30151 4.19275 4.24818 4.24622C4.19471 4.29956 4.16797 4.35831 4.16797 4.42247V15.5762C4.16797 15.6404 4.19471 15.6991 4.24818 15.7525C4.30151 15.8059 4.36026 15.8327 4.42443 15.8327Z" fill="#4D4B4E"/>
</g>
</svg>
