<svg width="20" height="20" viewBox="0 0 20 20" fill="none" xmlns="http://www.w3.org/2000/svg">
<mask id="mask0_738_11075" style="mask-type:alpha" maskUnits="userSpaceOnUse" x="0" y="0" width="20" height="20">
<rect width="20" height="20" fill="#D9D9D9"/>
</mask>
<g mask="url(#mask0_738_11075)">
<path d="M8.7577 15.3686C7.50242 15.3686 6.43277 14.9266 5.54874 14.0426C4.66457 13.1584 4.22249 12.0887 4.22249 10.8334C4.22249 10.661 4.23346 10.4887 4.2554 10.3163C4.27735 10.144 4.30485 9.98938 4.3379 9.85257C4.27388 9.88035 4.20124 9.89854 4.11999 9.90715C4.03874 9.91563 3.96742 9.91986 3.90603 9.91986C3.3895 9.91986 2.9552 9.74327 2.60311 9.39007C2.25117 9.03688 2.0752 8.60452 2.0752 8.09299C2.0752 7.58146 2.24346 7.1491 2.57999 6.7959C2.91638 6.44271 3.34158 6.26611 3.85561 6.26611C4.27658 6.26611 4.65103 6.3866 4.97895 6.62757C5.307 6.8684 5.52603 7.17424 5.63603 7.54507C6.04089 7.16035 6.51575 6.85639 7.06061 6.6332C7.60547 6.40986 8.17117 6.2982 8.7577 6.2982H17.1712C17.3846 6.2982 17.5635 6.37035 17.7079 6.51465C17.8522 6.6591 17.9244 6.83799 17.9244 7.05132V8.07695C17.9244 8.28125 17.8553 8.4525 17.7171 8.5907C17.5789 8.72903 17.4076 8.7982 17.2033 8.7982H13.2929V10.8334C13.2929 12.0931 12.852 13.164 11.9702 14.0459C11.0884 14.9277 10.0176 15.3686 8.7577 15.3686ZM3.90207 8.92632C4.13818 8.92632 4.3361 8.84646 4.49582 8.68674C4.65554 8.52702 4.7354 8.3291 4.7354 8.09299C4.7354 7.85688 4.65554 7.65896 4.49582 7.49924C4.3361 7.33952 4.13818 7.25966 3.90207 7.25966C3.66596 7.25966 3.46804 7.33952 3.30832 7.49924C3.1486 7.65896 3.06874 7.85688 3.06874 8.09299C3.06874 8.3291 3.1486 8.52702 3.30832 8.68674C3.46804 8.84646 3.66596 8.92632 3.90207 8.92632ZM8.75895 13.8624C9.59575 13.8624 10.3096 13.5665 10.9004 12.9749C11.4912 12.3833 11.7867 11.6692 11.7867 10.8324C11.7867 9.99542 11.4909 9.28153 10.8994 8.6907C10.3077 8.09986 9.59346 7.80445 8.75665 7.80445C7.91985 7.80445 7.20603 8.10028 6.6152 8.69195C6.02436 9.28347 5.72895 9.99764 5.72895 10.8344C5.72895 11.6714 6.02471 12.3853 6.61624 12.9761C7.20777 13.5669 7.922 13.8624 8.75895 13.8624ZM8.75915 12.3399C9.17388 12.3399 9.52839 12.1922 9.8227 11.8969C10.117 11.6017 10.2642 11.2467 10.2642 10.8319C10.2642 10.4174 10.1165 10.0629 9.82124 9.76861C9.52596 9.47417 9.17103 9.32695 8.75645 9.32695C8.34172 9.32695 7.98721 9.47459 7.6929 9.76986C7.3986 10.0651 7.25145 10.4201 7.25145 10.8349C7.25145 11.2494 7.39908 11.6039 7.69436 11.8982C7.98964 12.1926 8.34457 12.3399 8.75915 12.3399Z" fill="#E11936"/>
</g>
</svg>
