<svg width="20" height="20" viewBox="0 0 20 20" fill="none" xmlns="http://www.w3.org/2000/svg">
<mask id="mask0_738_3665" style="mask-type:alpha" maskUnits="userSpaceOnUse" x="0" y="0" width="20" height="20">
<rect width="20" height="20" fill="#D9D9D9"/>
</mask>
<g mask="url(#mask0_738_3665)">
<path d="M7.57655 17.9167C7.43127 17.9167 7.30419 17.8766 7.1953 17.7965C7.08627 17.7163 7.00933 17.6074 6.96447 17.4696L4.87155 10.625H2.70801C2.53092 10.625 2.38252 10.5651 2.2628 10.4452C2.14294 10.3253 2.08301 10.1769 2.08301 9.99979C2.08301 9.82256 2.14294 9.67416 2.2628 9.55458C2.38252 9.43486 2.53092 9.37499 2.70801 9.37499H5.33613C5.47183 9.37499 5.59447 9.41374 5.70405 9.49124C5.81349 9.56861 5.89065 9.67624 5.93551 9.81416L7.47884 14.8302L10.2049 2.58979C10.2359 2.44201 10.3084 2.32069 10.4224 2.22583C10.5364 2.13083 10.6659 2.08333 10.8109 2.08333C10.9559 2.08333 11.0849 2.12847 11.1978 2.21874C11.3106 2.30888 11.3824 2.42826 11.4132 2.57687L13.3378 10.851L14.6728 6.57687C14.7177 6.43909 14.7949 6.33013 14.9045 6.24999C15.0139 6.16986 15.1365 6.12979 15.2722 6.12979C15.41 6.12979 15.5296 6.16638 15.6311 6.23958C15.7325 6.31277 15.81 6.41402 15.8634 6.54333L16.929 9.37499H17.2832C17.4603 9.37499 17.6088 9.43493 17.7286 9.55479C17.8484 9.67465 17.9082 9.82312 17.9082 10.0002C17.9082 10.1774 17.8484 10.3258 17.7286 10.4454C17.6088 10.5651 17.4603 10.625 17.2832 10.625H16.482C16.3442 10.625 16.224 10.5886 16.1215 10.5158C16.0189 10.4431 15.942 10.3443 15.8907 10.2196L15.3186 8.67625L13.8361 13.4231C13.7913 13.5609 13.7138 13.672 13.6038 13.7565C13.4938 13.8408 13.3656 13.8787 13.2193 13.8702C13.0729 13.8616 12.9465 13.8119 12.8401 13.721C12.7337 13.6303 12.6646 13.5155 12.6328 13.3767L10.809 5.53354L8.17592 17.4231C8.13967 17.5694 8.06704 17.6855 7.95801 17.7715C7.84898 17.8574 7.72183 17.9058 7.57655 17.9167Z" fill="#4D4B4E"/>
</g>
</svg>
