<svg width="20" height="20" viewBox="0 0 20 20" fill="none" xmlns="http://www.w3.org/2000/svg">
<mask id="mask0_738_16129" style="mask-type:alpha" maskUnits="userSpaceOnUse" x="0" y="0" width="20" height="20">
<rect width="20" height="20" fill="#D9D9D9"/>
</mask>
<g mask="url(#mask0_738_16129)">
<path d="M4.16634 18.4934C3.98898 18.4934 3.84051 18.4336 3.72092 18.3138C3.6012 18.1943 3.54134 18.0458 3.54134 17.8684C3.54134 17.6911 3.6012 17.5426 3.72092 17.423C3.84051 17.3033 3.98898 17.2434 4.16634 17.2434H15.833C16.0104 17.2434 16.1588 17.3033 16.2784 17.423C16.3981 17.5426 16.458 17.6911 16.458 17.8684C16.458 18.0458 16.3981 18.1943 16.2784 18.3138C16.1588 18.4336 16.0104 18.4934 15.833 18.4934H4.16634ZM4.16634 2.75635C3.98898 2.75635 3.84051 2.69649 3.72092 2.57676C3.6012 2.45718 3.54134 2.30871 3.54134 2.13135C3.54134 1.95399 3.6012 1.80551 3.72092 1.68593C3.84051 1.56621 3.98898 1.50635 4.16634 1.50635H15.833C16.0104 1.50635 16.1588 1.56621 16.2784 1.68593C16.3981 1.80551 16.458 1.95399 16.458 2.13135C16.458 2.30871 16.3981 2.45718 16.2784 2.57676C16.1588 2.69649 16.0104 2.75635 15.833 2.75635H4.16634ZM9.99967 11.2499C10.6354 11.2499 11.1762 11.0269 11.6222 10.5809C12.0683 10.1348 12.2913 9.59392 12.2913 8.95822C12.2913 8.32253 12.0683 7.78169 11.6222 7.33572C11.1762 6.88961 10.6354 6.66656 9.99967 6.66656C9.36398 6.66656 8.82315 6.88961 8.37717 7.33572C7.93106 7.78169 7.70801 8.32253 7.70801 8.95822C7.70801 9.59392 7.93106 10.1348 8.37717 10.5809C8.82315 11.0269 9.36398 11.2499 9.99967 11.2499ZM3.58947 16.2499C3.16849 16.2499 2.81217 16.1041 2.52051 15.8124C2.22884 15.5207 2.08301 15.1644 2.08301 14.7434V5.25635C2.08301 4.83538 2.22884 4.47906 2.52051 4.18739C2.81217 3.89572 3.16849 3.74989 3.58947 3.74989H16.4099C16.8309 3.74989 17.1872 3.89572 17.4788 4.18739C17.7705 4.47906 17.9163 4.83538 17.9163 5.25635V14.7434C17.9163 15.1644 17.7705 15.5207 17.4788 15.8124C17.1872 16.1041 16.8309 16.2499 16.4099 16.2499H3.58947ZM5.33634 14.9999C5.96134 14.3289 6.66752 13.814 7.45488 13.4551C8.24224 13.0961 9.09051 12.9166 9.99967 12.9166C10.9088 12.9166 11.7571 13.0961 12.5445 13.4551C13.3318 13.814 14.038 14.3289 14.663 14.9999H16.4099C16.4741 14.9999 16.5328 14.9732 16.5861 14.9197C16.6396 14.8663 16.6663 14.8076 16.6663 14.7434V5.25635C16.6663 5.19218 16.6396 5.13343 16.5861 5.0801C16.5328 5.02662 16.4741 4.99989 16.4099 4.99989H3.58947C3.5253 4.99989 3.46655 5.02662 3.41322 5.0801C3.35974 5.13343 3.33301 5.19218 3.33301 5.25635V14.7434C3.33301 14.8076 3.35974 14.8663 3.41322 14.9197C3.46655 14.9732 3.5253 14.9999 3.58947 14.9999H5.33634ZM7.24967 14.9999H12.7497C12.3469 14.7221 11.9129 14.5138 11.4476 14.3749C10.9823 14.236 10.4997 14.1666 9.99967 14.1666C9.49967 14.1666 9.01704 14.236 8.55176 14.3749C8.08648 14.5138 7.65245 14.7221 7.24967 14.9999ZM9.99967 9.99989C9.71009 9.99989 9.46412 9.89871 9.26176 9.69635C9.05926 9.49385 8.95801 9.24781 8.95801 8.95822C8.95801 8.66878 9.05926 8.42281 9.26176 8.22031C9.46412 8.01781 9.71009 7.91656 9.99967 7.91656C10.2893 7.91656 10.5352 8.01781 10.7376 8.22031C10.9401 8.42281 11.0413 8.66878 11.0413 8.95822C11.0413 9.24781 10.9401 9.49385 10.7376 9.69635C10.5352 9.89871 10.2893 9.99989 9.99967 9.99989Z" fill="#E11936"/>
</g>
</svg>
