<svg width="20" height="20" viewBox="0 0 20 20" fill="none" xmlns="http://www.w3.org/2000/svg">
<mask id="mask0_738_17944" style="mask-type:alpha" maskUnits="userSpaceOnUse" x="0" y="0" width="20" height="20">
<rect width="20" height="20" fill="#D9D9D9"/>
</mask>
<g mask="url(#mask0_738_17944)">
<path d="M7.57655 17.9168C7.43127 17.9168 7.30419 17.8768 7.1953 17.7966C7.08627 17.7165 7.00933 17.6075 6.96447 17.4697L4.87155 10.6252H2.70801C2.53092 10.6252 2.38252 10.5652 2.2628 10.4454C2.14294 10.3255 2.08301 10.177 2.08301 9.99995C2.08301 9.82273 2.14294 9.67433 2.2628 9.55475C2.38252 9.43502 2.53092 9.37516 2.70801 9.37516H5.33613C5.47183 9.37516 5.59447 9.41391 5.70405 9.49141C5.81349 9.56877 5.89065 9.67641 5.93551 9.81433L7.47884 14.8304L10.2049 2.58995C10.2359 2.44218 10.3084 2.32086 10.4224 2.226C10.5364 2.131 10.6659 2.0835 10.8109 2.0835C10.9559 2.0835 11.0849 2.12863 11.1978 2.21891C11.3106 2.30905 11.3824 2.42843 11.4132 2.57704L13.3378 10.8512L14.6728 6.57704C14.7177 6.43926 14.7949 6.3303 14.9045 6.25016C15.0139 6.17002 15.1365 6.12995 15.2722 6.12995C15.41 6.12995 15.5296 6.16655 15.6311 6.23975C15.7325 6.31294 15.81 6.41419 15.8634 6.5435L16.929 9.37516H17.2832C17.4603 9.37516 17.6088 9.43509 17.7286 9.55496C17.8484 9.67482 17.9082 9.82329 17.9082 10.0004C17.9082 10.1776 17.8484 10.326 17.7286 10.4456C17.6088 10.5653 17.4603 10.6252 17.2832 10.6252H16.482C16.3442 10.6252 16.224 10.5888 16.1215 10.516C16.0189 10.4432 15.942 10.3445 15.8907 10.2197L15.3186 8.67641L13.8361 13.4233C13.7913 13.5611 13.7138 13.6722 13.6038 13.7566C13.4938 13.8409 13.3656 13.8788 13.2193 13.8704C13.0729 13.8618 12.9465 13.812 12.8401 13.7212C12.7337 13.6305 12.6646 13.5157 12.6328 13.3768L10.809 5.5337L8.17592 17.4233C8.13967 17.5695 8.06704 17.6856 7.95801 17.7716C7.84898 17.8576 7.72183 17.906 7.57655 17.9168Z" fill="#E11936"/>
</g>
</svg>
