<svg width="20" height="20" viewBox="0 0 20 20" fill="none" xmlns="http://www.w3.org/2000/svg">
<mask id="mask0_738_3658" style="mask-type:alpha" maskUnits="userSpaceOnUse" x="0" y="0" width="20" height="20">
<rect width="20" height="20" fill="#D9D9D9"/>
</mask>
<g mask="url(#mask0_738_3658)">
<path d="M8.7577 15.3688C7.50242 15.3688 6.43277 14.9268 5.54874 14.0427C4.66457 13.1586 4.22249 12.0888 4.22249 10.8336C4.22249 10.6612 4.23346 10.4888 4.2554 10.3165C4.27735 10.1441 4.30485 9.98953 4.3379 9.85272C4.27388 9.8805 4.20124 9.8987 4.11999 9.90731C4.03874 9.91578 3.96742 9.92002 3.90603 9.92002C3.3895 9.92002 2.9552 9.74342 2.60311 9.39022C2.25117 9.03703 2.0752 8.60467 2.0752 8.09314C2.0752 7.58161 2.24346 7.14925 2.57999 6.79606C2.91638 6.44286 3.34158 6.26627 3.85561 6.26627C4.27658 6.26627 4.65103 6.38675 4.97895 6.62772C5.307 6.86856 5.52603 7.17439 5.63603 7.54522C6.04089 7.1605 6.51575 6.85654 7.06061 6.63335C7.60547 6.41002 8.17117 6.29835 8.7577 6.29835H17.1712C17.3846 6.29835 17.5635 6.3705 17.7079 6.51481C17.8522 6.65925 17.9244 6.83814 17.9244 7.05147V8.0771C17.9244 8.2814 17.8553 8.45265 17.7171 8.59085C17.5789 8.72918 17.4076 8.79835 17.2033 8.79835H13.2929V10.8336C13.2929 12.0933 12.852 13.1641 11.9702 14.0461C11.0884 14.9279 10.0176 15.3688 8.7577 15.3688ZM3.90207 8.92647C4.13818 8.92647 4.3361 8.84661 4.49582 8.68689C4.65554 8.52717 4.7354 8.32925 4.7354 8.09314C4.7354 7.85703 4.65554 7.65911 4.49582 7.49939C4.3361 7.33967 4.13818 7.25981 3.90207 7.25981C3.66596 7.25981 3.46804 7.33967 3.30832 7.49939C3.1486 7.65911 3.06874 7.85703 3.06874 8.09314C3.06874 8.32925 3.1486 8.52717 3.30832 8.68689C3.46804 8.84661 3.66596 8.92647 3.90207 8.92647ZM8.75895 13.8625C9.59575 13.8625 10.3096 13.5667 10.9004 12.975C11.4912 12.3835 11.7867 11.6693 11.7867 10.8325C11.7867 9.99557 11.4909 9.28168 10.8994 8.69085C10.3077 8.10002 9.59346 7.8046 8.75665 7.8046C7.91985 7.8046 7.20603 8.10043 6.6152 8.6921C6.02436 9.28363 5.72895 9.99779 5.72895 10.8346C5.72895 11.6715 6.02471 12.3854 6.61624 12.9763C7.20777 13.5671 7.922 13.8625 8.75895 13.8625ZM8.75915 12.34C9.17388 12.34 9.52839 12.1924 9.8227 11.8971C10.117 11.6018 10.2642 11.2468 10.2642 10.8321C10.2642 10.4175 10.1165 10.0631 9.82124 9.76877C9.52596 9.47432 9.17103 9.3271 8.75645 9.3271C8.34172 9.3271 7.98721 9.47474 7.6929 9.77002C7.3986 10.0653 7.25145 10.4203 7.25145 10.835C7.25145 11.2496 7.39908 11.604 7.69436 11.8983C7.98964 12.1928 8.34457 12.34 8.75915 12.34Z" fill="#4D4B4E"/>
</g>
</svg>
