<svg width="20" height="20" viewBox="0 0 20 20" fill="none" xmlns="http://www.w3.org/2000/svg">
<mask id="mask0_261_16335" style="mask-type:alpha" maskUnits="userSpaceOnUse" x="0" y="0" width="20" height="20">
<rect width="20" height="20" fill="#D9D9D9"/>
</mask>
<g mask="url(#mask0_261_16335)">
<path d="M14.8884 10.609C15.0657 10.609 15.2143 10.5491 15.334 10.4294C15.4536 10.3098 15.5134 10.1613 15.5134 9.98396C15.5134 9.8066 15.4536 9.65813 15.334 9.53854C15.2143 9.41882 15.0657 9.35896 14.8884 9.35896H12.3565C12.1791 9.35896 12.0306 9.41882 11.9109 9.53854C11.7913 9.65813 11.7315 9.8066 11.7315 9.98396C11.7315 10.1613 11.7913 10.3098 11.9109 10.4294C12.0306 10.5491 12.1791 10.609 12.3565 10.609H14.8884ZM14.8884 8.20521C15.0657 8.20521 15.2143 8.14535 15.334 8.02562C15.4536 7.90604 15.5134 7.75757 15.5134 7.58021C15.5134 7.40285 15.4536 7.25431 15.334 7.13458C15.2143 7.015 15.0657 6.95521 14.8884 6.95521H12.3565C12.1791 6.95521 12.0306 7.015 11.9109 7.13458C11.7913 7.25431 11.7315 7.40285 11.7315 7.58021C11.7315 7.75757 11.7913 7.90604 11.9109 8.02562C12.0306 8.14535 12.1791 8.20521 12.3565 8.20521H14.8884ZM7.53273 10.9615C7.05412 10.9615 6.63475 10.9999 6.27461 11.0769C5.91461 11.1538 5.59516 11.2762 5.31628 11.444C5.06211 11.5924 4.86933 11.7585 4.73794 11.9423C4.60642 12.126 4.54065 12.3231 4.54065 12.5335C4.54065 12.679 4.59648 12.8005 4.70815 12.8981C4.81982 12.9959 4.95794 13.0448 5.12253 13.0448H9.94294C10.1075 13.0448 10.2456 12.9924 10.3571 12.8877C10.4688 12.7831 10.5246 12.6539 10.5246 12.5C10.5246 12.3119 10.4602 12.1295 10.3315 11.9527C10.2027 11.7759 10.0086 11.6063 9.74898 11.444C9.47023 11.2762 9.15079 11.1538 8.79065 11.0769C8.43065 10.9999 8.01135 10.9615 7.53273 10.9615ZM7.53273 9.87187C7.9376 9.87187 8.28183 9.73 8.56544 9.44625C8.84919 9.16264 8.99107 8.8184 8.99107 8.41354C8.99107 8.00854 8.84919 7.66424 8.56544 7.38063C8.28183 7.09701 7.9376 6.95521 7.53273 6.95521C7.12787 6.95521 6.78357 7.09701 6.49982 7.38063C6.21621 7.66424 6.0744 8.00854 6.0744 8.41354C6.0744 8.8184 6.21621 9.16264 6.49982 9.44625C6.78357 9.73 7.12787 9.87187 7.53273 9.87187ZM3.59044 16.25C3.16947 16.25 2.81315 16.1042 2.52148 15.8125C2.22982 15.5208 2.08398 15.1645 2.08398 14.7435V5.25646C2.08398 4.83549 2.22982 4.47917 2.52148 4.1875C2.81315 3.89583 3.16947 3.75 3.59044 3.75H16.4109C16.8318 3.75 17.1882 3.89583 17.4798 4.1875C17.7715 4.47917 17.9173 4.83549 17.9173 5.25646V14.7435C17.9173 15.1645 17.7715 15.5208 17.4798 15.8125C17.1882 16.1042 16.8318 16.25 16.4109 16.25H3.59044ZM3.59044 15H16.4109C16.475 15 16.5338 14.9733 16.5871 14.9198C16.6406 14.8665 16.6673 14.8077 16.6673 14.7435V5.25646C16.6673 5.19229 16.6406 5.13354 16.5871 5.08021C16.5338 5.02674 16.475 5 16.4109 5H3.59044C3.52628 5 3.46753 5.02674 3.41419 5.08021C3.36072 5.13354 3.33398 5.19229 3.33398 5.25646V14.7435C3.33398 14.8077 3.36072 14.8665 3.41419 14.9198C3.46753 14.9733 3.52628 15 3.59044 15Z" fill="#414141"/>
</g>
</svg>
