<svg width="20" height="20" viewBox="0 0 20 20" fill="none" xmlns="http://www.w3.org/2000/svg">
<mask id="mask0_261_16373" style="mask-type:alpha" maskUnits="userSpaceOnUse" x="0" y="0" width="20" height="20">
<rect width="20" height="20" fill="#D9D9D9"/>
</mask>
<g mask="url(#mask0_261_16373)">
<path d="M16.1996 17.0834C14.6291 17.0834 13.0514 16.7183 11.4664 15.988C9.88157 15.2577 8.42539 14.2276 7.09789 12.8976C5.77053 11.5674 4.74171 10.1112 4.01143 8.52883C3.28115 6.94661 2.91602 5.37029 2.91602 3.79987C2.91602 3.54751 2.99935 3.33723 3.16602 3.16904C3.33268 3.00084 3.54102 2.91675 3.79102 2.91675H6.50893C6.71935 2.91675 6.90497 2.98543 7.06581 3.12279C7.22664 3.26001 7.32893 3.4296 7.37268 3.63154L7.85039 6.08341C7.88345 6.31091 7.8765 6.5064 7.82956 6.66987C7.78247 6.83335 7.69803 6.97064 7.57622 7.08175L5.65164 8.95529C5.96136 9.52251 6.31525 10.0591 6.71331 10.5651C7.11122 11.0709 7.54206 11.554 8.00581 12.0145C8.46303 12.4718 8.94914 12.8965 9.46414 13.2886C9.97914 13.6807 10.5353 14.0456 11.1325 14.3832L13.0025 12.497C13.1329 12.3613 13.2908 12.2661 13.4762 12.2115C13.6615 12.1571 13.8541 12.1438 14.0539 12.1715L16.3679 12.6428C16.5783 12.6983 16.75 12.8057 16.8831 12.9649C17.0162 13.124 17.0827 13.3046 17.0827 13.5065V16.2084C17.0827 16.4584 16.9986 16.6667 16.8304 16.8334C16.6622 17.0001 16.4519 17.0834 16.1996 17.0834ZM5.06018 7.77258L6.54747 6.34946C6.57414 6.32807 6.5915 6.29869 6.59956 6.26133C6.60761 6.22397 6.60629 6.18925 6.5956 6.15716L6.23331 4.29487C6.22261 4.25223 6.20393 4.22022 6.17727 4.19883C6.1506 4.17744 6.11588 4.16675 6.0731 4.16675H4.29102C4.25893 4.16675 4.2322 4.17744 4.21081 4.19883C4.18956 4.22022 4.17893 4.24696 4.17893 4.27904C4.22157 4.84848 4.31477 5.42696 4.45852 6.01446C4.60213 6.6021 4.80268 7.18814 5.06018 7.77258ZM12.3102 14.9745C12.8625 15.232 13.4387 15.4288 14.0385 15.5651C14.6385 15.7012 15.1991 15.7821 15.7204 15.8078C15.7525 15.8078 15.7792 15.7971 15.8006 15.7757C15.822 15.7543 15.8327 15.7276 15.8327 15.6955V13.9424C15.8327 13.8996 15.822 13.8649 15.8006 13.8382C15.7792 13.8115 15.7472 13.7929 15.7046 13.7822L13.9546 13.4263C13.9225 13.4156 13.8944 13.4143 13.8704 13.4224C13.8464 13.4304 13.8209 13.4478 13.7941 13.4745L12.3102 14.9745Z" fill="#414141"/>
</g>
</svg>
