<svg width="20" height="20" viewBox="0 0 20 20" fill="none" xmlns="http://www.w3.org/2000/svg">
<mask id="mask0_738_3644" style="mask-type:alpha" maskUnits="userSpaceOnUse" x="0" y="0" width="20" height="20">
<rect width="20" height="20" fill="#D9D9D9"/>
</mask>
<g mask="url(#mask0_738_3644)">
<path d="M4.42345 17.0833C4.00248 17.0833 3.64616 16.9375 3.35449 16.6458C3.06283 16.3542 2.91699 15.9978 2.91699 15.5769V4.42313C2.91699 4.00215 3.06283 3.64583 3.35449 3.35417C3.64616 3.0625 4.00248 2.91667 4.42345 2.91667H8.13178C8.19803 2.44875 8.40477 2.05403 8.75199 1.7325C9.09922 1.41083 9.51533 1.25 10.0003 1.25C10.4853 1.25 10.9014 1.41083 11.2487 1.7325C11.5959 2.05403 11.8026 2.44875 11.8689 2.91667H15.5772C15.9982 2.91667 16.3545 3.0625 16.6462 3.35417C16.9378 3.64583 17.0837 4.00215 17.0837 4.42313V15.5769C17.0837 15.9978 16.9378 16.3542 16.6462 16.6458C16.3545 16.9375 15.9982 17.0833 15.5772 17.0833H4.42345ZM10.0003 3.62187C10.1809 3.62187 10.3302 3.56285 10.4482 3.44479C10.5663 3.32674 10.6253 3.17743 10.6253 2.99687C10.6253 2.81632 10.5663 2.66701 10.4482 2.54896C10.3302 2.4309 10.1809 2.37187 10.0003 2.37187C9.81977 2.37187 9.67047 2.4309 9.55241 2.54896C9.43435 2.66701 9.37533 2.81632 9.37533 2.99687C9.37533 3.17743 9.43435 3.32674 9.55241 3.44479C9.67047 3.56285 9.81977 3.62187 10.0003 3.62187ZM4.16699 15.0352C4.91699 14.2991 5.78852 13.7192 6.78158 13.2956C7.77463 12.872 8.84755 12.6602 10.0003 12.6602C11.1531 12.6602 12.226 12.872 13.2191 13.2956C14.2121 13.7192 15.0837 14.2991 15.8337 15.0352V4.42313C15.8337 4.35896 15.8069 4.30021 15.7535 4.24687C15.7001 4.1934 15.6414 4.16667 15.5772 4.16667H4.42345C4.35928 4.16667 4.30053 4.1934 4.2472 4.24687C4.19373 4.30021 4.16699 4.35896 4.16699 4.42313V15.0352ZM10.0003 10.8654C10.7524 10.8654 11.3919 10.6021 11.9187 10.0754C12.4453 9.54861 12.7087 8.90917 12.7087 8.15708C12.7087 7.405 12.4453 6.76556 11.9187 6.23875C11.3919 5.71208 10.7524 5.44875 10.0003 5.44875C9.24824 5.44875 8.6088 5.71208 8.08199 6.23875C7.55533 6.76556 7.29199 7.405 7.29199 8.15708C7.29199 8.90917 7.55533 9.54861 8.08199 10.0754C8.6088 10.6021 9.24824 10.8654 10.0003 10.8654ZM5.36887 15.8333H14.6318V15.6571C13.9736 15.0694 13.2516 14.6314 12.466 14.3429C11.6801 14.0544 10.8582 13.9102 10.0003 13.9102C9.1531 13.9102 8.33526 14.0531 7.54678 14.339C6.75831 14.6248 6.03234 15.0588 5.36887 15.641V15.8333ZM10.0003 9.61542C9.59963 9.61542 9.25644 9.4725 8.97074 9.18667C8.68491 8.90097 8.54199 8.55778 8.54199 8.15708C8.54199 7.75639 8.68491 7.41319 8.97074 7.1275C9.25644 6.84167 9.59963 6.69875 10.0003 6.69875C10.401 6.69875 10.7442 6.84167 11.0299 7.1275C11.3157 7.41319 11.4587 7.75639 11.4587 8.15708C11.4587 8.55778 11.3157 8.90097 11.0299 9.18667C10.7442 9.4725 10.401 9.61542 10.0003 9.61542Z" fill="#4D4B4E"/>
</g>
</svg>
