<svg width="20" height="20" viewBox="0 0 20 20" fill="none" xmlns="http://www.w3.org/2000/svg">
<mask id="mask0_738_11330" style="mask-type:alpha" maskUnits="userSpaceOnUse" x="0" y="0" width="20" height="20">
<rect width="20" height="20" fill="#D9D9D9"/>
</mask>
<g mask="url(#mask0_738_11330)">
<path d="M4.42247 17.0833C4.0015 17.0833 3.64518 16.9375 3.35352 16.6458C3.06185 16.3542 2.91602 15.9978 2.91602 15.5769V4.42313C2.91602 4.00215 3.06185 3.64583 3.35352 3.35417C3.64518 3.0625 4.0015 2.91667 4.42247 2.91667H8.13081C8.19706 2.44875 8.40379 2.05403 8.75102 1.7325C9.09824 1.41083 9.51435 1.25 9.99935 1.25C10.4843 1.25 10.9005 1.41083 11.2477 1.7325C11.5949 2.05403 11.8016 2.44875 11.8679 2.91667H15.5762C15.9972 2.91667 16.3535 3.0625 16.6452 3.35417C16.9369 3.64583 17.0827 4.00215 17.0827 4.42313V15.5769C17.0827 15.9978 16.9369 16.3542 16.6452 16.6458C16.3535 16.9375 15.9972 17.0833 15.5762 17.0833H4.42247ZM9.99935 3.62187C10.1799 3.62187 10.3292 3.56285 10.4473 3.44479C10.5653 3.32674 10.6244 3.17743 10.6244 2.99687C10.6244 2.81632 10.5653 2.66701 10.4473 2.54896C10.3292 2.4309 10.1799 2.37187 9.99935 2.37187C9.81879 2.37187 9.66949 2.4309 9.55143 2.54896C9.43338 2.66701 9.37435 2.81632 9.37435 2.99687C9.37435 3.17743 9.43338 3.32674 9.55143 3.44479C9.66949 3.56285 9.81879 3.62187 9.99935 3.62187ZM4.16602 15.0352C4.91602 14.2991 5.78754 13.7192 6.7806 13.2956C7.77366 12.872 8.84657 12.6602 9.99935 12.6602C11.1521 12.6602 12.225 12.872 13.2181 13.2956C14.2112 13.7192 15.0827 14.2991 15.8327 15.0352V4.42313C15.8327 4.35896 15.8059 4.30021 15.7525 4.24687C15.6991 4.1934 15.6404 4.16667 15.5762 4.16667H4.42247C4.35831 4.16667 4.29956 4.1934 4.24622 4.24687C4.19275 4.30021 4.16602 4.35896 4.16602 4.42313V15.0352ZM9.99935 10.8654C10.7514 10.8654 11.3909 10.6021 11.9177 10.0754C12.4444 9.54861 12.7077 8.90917 12.7077 8.15708C12.7077 7.405 12.4444 6.76556 11.9177 6.23875C11.3909 5.71208 10.7514 5.44875 9.99935 5.44875C9.24727 5.44875 8.60782 5.71208 8.08102 6.23875C7.55435 6.76556 7.29102 7.405 7.29102 8.15708C7.29102 8.90917 7.55435 9.54861 8.08102 10.0754C8.60782 10.6021 9.24727 10.8654 9.99935 10.8654ZM5.36789 15.8333H14.6308V15.6571C13.9726 15.0694 13.2507 14.6314 12.465 14.3429C11.6791 14.0544 10.8573 13.9102 9.99935 13.9102C9.15213 13.9102 8.33428 14.0531 7.54581 14.339C6.75734 14.6248 6.03136 15.0588 5.36789 15.641V15.8333ZM9.99935 9.61542C9.59866 9.61542 9.25546 9.4725 8.96977 9.18667C8.68393 8.90097 8.54102 8.55778 8.54102 8.15708C8.54102 7.75639 8.68393 7.41319 8.96977 7.1275C9.25546 6.84167 9.59866 6.69875 9.99935 6.69875C10.4 6.69875 10.7432 6.84167 11.0289 7.1275C11.3148 7.41319 11.4577 7.75639 11.4577 8.15708C11.4577 8.55778 11.3148 8.90097 11.0289 9.18667C10.7432 9.4725 10.4 9.61542 9.99935 9.61542Z" fill="#E11936"/>
</g>
</svg>
