<svg width="20" height="20" viewBox="0 0 20 20" fill="none" xmlns="http://www.w3.org/2000/svg">
<mask id="mask0_738_3628" style="mask-type:alpha" maskUnits="userSpaceOnUse" x="0" y="0" width="20" height="20">
<rect width="20" height="20" fill="#D9D9D9"/>
</mask>
<g mask="url(#mask0_738_3628)">
<path d="M10.4967 9.70188C10.8513 9.31619 11.1136 8.87334 11.2836 8.37334C11.4535 7.87334 11.5384 7.35786 11.5384 6.82688C11.5384 6.29591 11.4535 5.78043 11.2836 5.28043C11.1136 4.78043 10.8513 4.33758 10.4967 3.95188C11.2286 4.03633 11.8362 4.3523 12.3197 4.8998C12.803 5.44744 13.0447 6.0898 13.0447 6.82688C13.0447 7.56411 12.803 8.20647 12.3197 8.75397C11.8362 9.30147 11.2286 9.61744 10.4967 9.70188ZM14.5495 16.0898C14.6542 15.8986 14.734 15.695 14.789 15.4792C14.8442 15.2633 14.8717 15.0449 14.8717 14.8238V14.1346C14.8717 13.6803 14.7793 13.2481 14.5945 12.8379C14.4096 12.4278 14.1473 12.0758 13.8076 11.7821C14.4465 11.9947 15.0346 12.2816 15.572 12.6427C16.1093 13.0038 16.378 13.5011 16.378 14.1346V14.8238C16.378 15.1751 16.2549 15.474 16.0086 15.7204C15.7624 15.9667 15.4636 16.0898 15.1122 16.0898H14.5495ZM16.378 8.95834H15.3363C15.1592 8.95834 15.0108 8.89841 14.8911 8.77855C14.7713 8.65869 14.7113 8.51022 14.7113 8.33313C14.7113 8.15591 14.7713 8.00751 14.8911 7.88793C15.0108 7.7682 15.1592 7.70834 15.3363 7.70834H16.378V6.66668C16.378 6.48959 16.4379 6.34119 16.5578 6.22147C16.6777 6.10161 16.8262 6.04168 17.0034 6.04168C17.1805 6.04168 17.3289 6.10161 17.4486 6.22147C17.5682 6.34119 17.628 6.48959 17.628 6.66668V7.70834H18.6697C18.8467 7.70834 18.9952 7.76827 19.1151 7.88813C19.2348 8.008 19.2947 8.15647 19.2947 8.33355C19.2947 8.51077 19.2348 8.65918 19.1151 8.77876C18.9952 8.89848 18.8467 8.95834 18.6697 8.95834H17.628V10C17.628 10.1771 17.5681 10.3255 17.4482 10.4452C17.3283 10.5651 17.1799 10.625 17.0028 10.625C16.8256 10.625 16.6772 10.5651 16.5576 10.4452C16.4379 10.3255 16.378 10.1771 16.378 10V8.95834ZM6.95508 9.74355C6.153 9.74355 5.46633 9.45799 4.89508 8.88688C4.32397 8.31563 4.03841 7.62897 4.03841 6.82688C4.03841 6.0248 4.32397 5.3382 4.89508 4.76709C5.46633 4.19584 6.153 3.91022 6.95508 3.91022C7.75716 3.91022 8.44376 4.19584 9.01487 4.76709C9.58612 5.3382 9.87175 6.0248 9.87175 6.82688C9.87175 7.62897 9.58612 8.31563 9.01487 8.88688C8.44376 9.45799 7.75716 9.74355 6.95508 9.74355ZM0.705078 14.8238V14.2371C0.705078 13.829 0.815912 13.4511 1.03758 13.1033C1.25924 12.7556 1.55543 12.4882 1.92612 12.3013C2.74987 11.8975 3.58084 11.5947 4.41904 11.3927C5.25709 11.1908 6.10244 11.0898 6.95508 11.0898C7.80758 11.0898 8.65293 11.1908 9.49112 11.3927C10.3292 11.5947 11.1601 11.8975 11.9838 12.3013C12.3545 12.4882 12.6507 12.7556 12.8724 13.1033C13.0942 13.4511 13.2051 13.829 13.2051 14.2371V14.8238C13.2051 15.1751 13.082 15.474 12.8357 15.7204C12.5895 15.9667 12.2906 16.0898 11.939 16.0898H1.97112C1.61959 16.0898 1.3207 15.9667 1.07445 15.7204C0.828203 15.474 0.705078 15.1751 0.705078 14.8238ZM6.95508 8.49355C7.41341 8.49355 7.80577 8.33036 8.13216 8.00397C8.45855 7.67758 8.62175 7.28522 8.62175 6.82688C8.62175 6.36855 8.45855 5.97619 8.13216 5.6498C7.80577 5.32341 7.41341 5.16022 6.95508 5.16022C6.49675 5.16022 6.10438 5.32341 5.778 5.6498C5.45161 5.97619 5.28841 6.36855 5.28841 6.82688C5.28841 7.28522 5.45161 7.67758 5.778 8.00397C6.10438 8.33036 6.49675 8.49355 6.95508 8.49355ZM1.95508 14.8398H11.9551V14.2371C11.9551 14.0683 11.9062 13.9121 11.8084 13.7683C11.7106 13.6247 11.5779 13.5075 11.4101 13.4167C10.6922 13.0631 9.96015 12.7951 9.21404 12.6129C8.46779 12.4308 7.7148 12.3398 6.95508 12.3398C6.19522 12.3398 5.44223 12.4308 4.69612 12.6129C3.94987 12.7951 3.21779 13.0631 2.49987 13.4167C2.33209 13.5075 2.19938 13.6247 2.10174 13.7683C2.00397 13.9121 1.95508 14.0683 1.95508 14.2371V14.8398Z" fill="#4D4B4E"/>
</g>
</svg>
