<svg width="20" height="20" viewBox="0 0 20 20" fill="none" xmlns="http://www.w3.org/2000/svg">
<mask id="mask0_738_4562" style="mask-type:alpha" maskUnits="userSpaceOnUse" x="0" y="0" width="20" height="20">
<rect width="20" height="20" fill="#D9D9D9"/>
</mask>
<g mask="url(#mask0_738_4562)">
<path d="M10.4967 9.70182C10.8513 9.31613 11.1136 8.87328 11.2836 8.37328C11.4535 7.87328 11.5384 7.3578 11.5384 6.82682C11.5384 6.29585 11.4535 5.78036 11.2836 5.28036C11.1136 4.78036 10.8513 4.33752 10.4967 3.95182C11.2286 4.03627 11.8362 4.35224 12.3197 4.89974C12.803 5.44738 13.0447 6.08974 13.0447 6.82682C13.0447 7.56404 12.803 8.20641 12.3197 8.75391C11.8362 9.30141 11.2286 9.61738 10.4967 9.70182ZM14.5495 16.0897C14.6542 15.8985 14.734 15.6949 14.789 15.4791C14.8442 15.2633 14.8717 15.0448 14.8717 14.8237V14.1345C14.8717 13.6802 14.7793 13.248 14.5945 12.8379C14.4096 12.4277 14.1473 12.0758 13.8076 11.782C14.4465 11.9947 15.0346 12.2815 15.572 12.6427C16.1093 13.0038 16.378 13.5011 16.378 14.1345V14.8237C16.378 15.1751 16.2549 15.474 16.0086 15.7204C15.7624 15.9666 15.4636 16.0897 15.1122 16.0897H14.5495ZM16.378 8.95828H15.3363C15.1592 8.95828 15.0108 8.89835 14.8911 8.77849C14.7713 8.65863 14.7113 8.51016 14.7113 8.33307C14.7113 8.15585 14.7713 8.00745 14.8911 7.88786C15.0108 7.76814 15.1592 7.70828 15.3363 7.70828H16.378V6.66661C16.378 6.48953 16.4379 6.34113 16.5578 6.22141C16.6777 6.10155 16.8262 6.04161 17.0034 6.04161C17.1805 6.04161 17.3289 6.10155 17.4486 6.22141C17.5682 6.34113 17.628 6.48953 17.628 6.66661V7.70828H18.6697C18.8467 7.70828 18.9952 7.76821 19.1151 7.88807C19.2348 8.00793 19.2947 8.15641 19.2947 8.33349C19.2947 8.51071 19.2348 8.65911 19.1151 8.7787C18.9952 8.89842 18.8467 8.95828 18.6697 8.95828H17.628V9.99995C17.628 10.177 17.5681 10.3254 17.4482 10.4452C17.3283 10.565 17.1799 10.6249 17.0028 10.6249C16.8256 10.6249 16.6772 10.565 16.5576 10.4452C16.4379 10.3254 16.378 10.177 16.378 9.99995V8.95828ZM6.95508 9.74349C6.153 9.74349 5.46633 9.45793 4.89508 8.88682C4.32397 8.31557 4.03841 7.62891 4.03841 6.82682C4.03841 6.02474 4.32397 5.33814 4.89508 4.76703C5.46633 4.19578 6.153 3.91016 6.95508 3.91016C7.75716 3.91016 8.44376 4.19578 9.01487 4.76703C9.58612 5.33814 9.87175 6.02474 9.87175 6.82682C9.87175 7.62891 9.58612 8.31557 9.01487 8.88682C8.44376 9.45793 7.75716 9.74349 6.95508 9.74349ZM0.705078 14.8237V14.237C0.705078 13.829 0.815912 13.4511 1.03758 13.1033C1.25924 12.7555 1.55543 12.4881 1.92612 12.3012C2.74987 11.8974 3.58084 11.5946 4.41904 11.3927C5.25709 11.1907 6.10244 11.0897 6.95508 11.0897C7.80758 11.0897 8.65293 11.1907 9.49112 11.3927C10.3292 11.5946 11.1601 11.8974 11.9838 12.3012C12.3545 12.4881 12.6507 12.7555 12.8724 13.1033C13.0942 13.4511 13.2051 13.829 13.2051 14.237V14.8237C13.2051 15.1751 13.082 15.474 12.8357 15.7204C12.5895 15.9666 12.2906 16.0897 11.939 16.0897H1.97112C1.61959 16.0897 1.3207 15.9666 1.07445 15.7204C0.828203 15.474 0.705078 15.1751 0.705078 14.8237ZM6.95508 8.49349C7.41341 8.49349 7.80577 8.3303 8.13216 8.00391C8.45855 7.67752 8.62175 7.28516 8.62175 6.82682C8.62175 6.36849 8.45855 5.97613 8.13216 5.64974C7.80577 5.32335 7.41341 5.16016 6.95508 5.16016C6.49675 5.16016 6.10438 5.32335 5.778 5.64974C5.45161 5.97613 5.28841 6.36849 5.28841 6.82682C5.28841 7.28516 5.45161 7.67752 5.778 8.00391C6.10438 8.3303 6.49675 8.49349 6.95508 8.49349ZM1.95508 14.8397H11.9551V14.237C11.9551 14.0683 11.9062 13.912 11.8084 13.7683C11.7106 13.6247 11.5779 13.5074 11.4101 13.4166C10.6922 13.063 9.96015 12.7951 9.21404 12.6129C8.46779 12.4308 7.7148 12.3397 6.95508 12.3397C6.19522 12.3397 5.44223 12.4308 4.69612 12.6129C3.94987 12.7951 3.21779 13.063 2.49987 13.4166C2.33209 13.5074 2.19938 13.6247 2.10174 13.7683C2.00397 13.912 1.95508 14.0683 1.95508 14.237V14.8397Z" fill="#E11936"/>
</g>
</svg>
