<svg width="20" height="20" viewBox="0 0 20 20" fill="none" xmlns="http://www.w3.org/2000/svg">
<mask id="mask0_738_15479" style="mask-type:alpha" maskUnits="userSpaceOnUse" x="0" y="0" width="20" height="20">
<rect width="20" height="20" fill="#D9D9D9"/>
</mask>
<g mask="url(#mask0_738_15479)">
<path d="M4.16699 15.8332V4.1665V7.77546V7.33963V15.8332ZM6.66699 10.6248H9.81283C9.98991 10.6248 10.1384 10.5649 10.2582 10.445C10.378 10.3252 10.4378 10.1767 10.4378 9.99963C10.4378 9.82241 10.378 9.674 10.2582 9.55442C10.1384 9.4347 9.98991 9.37484 9.81283 9.37484H6.66699C6.48991 9.37484 6.34151 9.43477 6.22178 9.55463C6.10192 9.67449 6.04199 9.82296 6.04199 10C6.04199 10.1773 6.10192 10.3257 6.22178 10.4453C6.34151 10.565 6.48991 10.6248 6.66699 10.6248ZM6.66699 13.9582H9.81283C9.98991 13.9582 10.1384 13.8982 10.2582 13.7784C10.378 13.6585 10.4378 13.51 10.4378 13.333C10.4378 13.1557 10.378 13.0073 10.2582 12.8878C10.1384 12.768 9.98991 12.7082 9.81283 12.7082H6.66699C6.48991 12.7082 6.34151 12.7681 6.22178 12.888C6.10192 13.0078 6.04199 13.1563 6.04199 13.3334C6.04199 13.5106 6.10192 13.659 6.22178 13.7786C6.34151 13.8983 6.48991 13.9582 6.66699 13.9582ZM6.66699 7.2915H13.3337C13.5107 7.2915 13.6591 7.23157 13.7789 7.11171C13.8987 6.99185 13.9587 6.84338 13.9587 6.6663C13.9587 6.48907 13.8987 6.34067 13.7789 6.22109C13.6591 6.10137 13.5107 6.0415 13.3337 6.0415H6.66699C6.48991 6.0415 6.34151 6.10143 6.22178 6.2213C6.10192 6.34116 6.04199 6.48963 6.04199 6.66671C6.04199 6.84394 6.10192 6.99234 6.22178 7.11192C6.34151 7.23164 6.48991 7.2915 6.66699 7.2915ZM4.42345 17.0832C4.00248 17.0832 3.64616 16.9373 3.35449 16.6457C3.06283 16.354 2.91699 15.9977 2.91699 15.5767V4.42296C2.91699 4.00199 3.06283 3.64567 3.35449 3.354C3.64616 3.06234 4.00248 2.9165 4.42345 2.9165H15.5772C15.9982 2.9165 16.3545 3.06234 16.6462 3.354C16.9378 3.64567 17.0837 4.00199 17.0837 4.42296V7.73067C17.0837 7.90775 17.0237 8.05616 16.9039 8.17588C16.784 8.29574 16.6355 8.35567 16.4585 8.35567C16.2812 8.35567 16.1328 8.29574 16.0132 8.17588C15.8935 8.05616 15.8337 7.90775 15.8337 7.73067V4.42296C15.8337 4.3588 15.8069 4.30005 15.7535 4.24671C15.7001 4.19324 15.6414 4.1665 15.5772 4.1665H4.42345C4.35928 4.1665 4.30053 4.19324 4.2472 4.24671C4.19373 4.30005 4.16699 4.3588 4.16699 4.42296V15.5767C4.16699 15.6409 4.19373 15.6996 4.2472 15.753C4.30053 15.8064 4.35928 15.8332 4.42345 15.8332H7.70866C7.88574 15.8332 8.03421 15.8931 8.15408 16.013C8.2738 16.1328 8.33366 16.2813 8.33366 16.4584C8.33366 16.6356 8.2738 16.784 8.15408 16.9036C8.03421 17.0233 7.88574 17.0832 7.70866 17.0832H4.42345ZM14.1189 12.9165C13.5997 12.9165 13.1574 12.7338 12.792 12.3684C12.4266 12.003 12.2439 11.5607 12.2439 11.0415C12.2439 10.5222 12.4266 10.0799 12.792 9.71463C13.1574 9.34921 13.5997 9.1665 14.1189 9.1665C14.6382 9.1665 15.0805 9.34921 15.4457 9.71463C15.8112 10.0799 15.9939 10.5222 15.9939 11.0415C15.9939 11.5607 15.8112 12.003 15.4457 12.3684C15.0805 12.7338 14.6382 12.9165 14.1189 12.9165ZM14.1189 14.1665C14.6444 14.1665 15.1666 14.2173 15.6853 14.3188C16.2041 14.4203 16.7108 14.5725 17.2055 14.7755C17.484 14.8841 17.6989 15.0621 17.8501 15.3096C18.0015 15.5571 18.0772 15.8289 18.0772 16.1248V16.3298C18.0772 16.5433 18.005 16.7222 17.8607 16.8665C17.7163 17.0109 17.5374 17.0832 17.3241 17.0832H10.9139C10.7004 17.0832 10.5215 17.0109 10.3772 16.8665C10.2328 16.7222 10.1605 16.5433 10.1605 16.3298V16.1248C10.1605 15.8289 10.2362 15.5571 10.3876 15.3096C10.539 15.0621 10.7539 14.8841 11.0324 14.7755C11.5171 14.5725 12.0187 14.4203 12.537 14.3188C13.0553 14.2173 13.5826 14.1665 14.1189 14.1665Z" fill="#4D4B4E"/>
</g>
</svg>
