<svg width="20" height="20" viewBox="0 0 20 20" fill="none" xmlns="http://www.w3.org/2000/svg">
<mask id="mask0_738_3614" style="mask-type:alpha" maskUnits="userSpaceOnUse" x="0" y="0" width="20" height="20">
<rect width="20" height="20" fill="#D9D9D9"/>
</mask>
<g mask="url(#mask0_738_3614)">
<path d="M4.16699 15.8334V4.16669V7.77565V7.33981V15.8334ZM6.66699 10.625H9.81283C9.98991 10.625 10.1384 10.5651 10.2582 10.4452C10.378 10.3254 10.4378 10.1769 10.4378 9.99981C10.4378 9.82259 10.378 9.67419 10.2582 9.5546C10.1384 9.43488 9.98991 9.37502 9.81283 9.37502H6.66699C6.48991 9.37502 6.34151 9.43495 6.22178 9.55481C6.10192 9.67467 6.04199 9.82315 6.04199 10.0002C6.04199 10.1775 6.10192 10.3259 6.22178 10.4454C6.34151 10.5652 6.48991 10.625 6.66699 10.625ZM6.66699 13.9584H9.81283C9.98991 13.9584 10.1384 13.8984 10.2582 13.7786C10.378 13.6587 10.4378 13.5102 10.4378 13.3331C10.4378 13.1559 10.378 13.0075 10.2582 12.8879C10.1384 12.7682 9.98991 12.7084 9.81283 12.7084H6.66699C6.48991 12.7084 6.34151 12.7683 6.22178 12.8881C6.10192 13.008 6.04199 13.1565 6.04199 13.3336C6.04199 13.5108 6.10192 13.6592 6.22178 13.7788C6.34151 13.8985 6.48991 13.9584 6.66699 13.9584ZM6.66699 7.29169H13.3337C13.5107 7.29169 13.6591 7.23176 13.7789 7.1119C13.8987 6.99203 13.9587 6.84356 13.9587 6.66648C13.9587 6.48926 13.8987 6.34085 13.7789 6.22127C13.6591 6.10155 13.5107 6.04169 13.3337 6.04169H6.66699C6.48991 6.04169 6.34151 6.10162 6.22178 6.22148C6.10192 6.34134 6.04199 6.48981 6.04199 6.6669C6.04199 6.84412 6.10192 6.99252 6.22178 7.1121C6.34151 7.23183 6.48991 7.29169 6.66699 7.29169ZM4.42345 17.0834C4.00248 17.0834 3.64616 16.9375 3.35449 16.6459C3.06283 16.3542 2.91699 15.9979 2.91699 15.5769V4.42315C2.91699 4.00217 3.06283 3.64585 3.35449 3.35419C3.64616 3.06252 4.00248 2.91669 4.42345 2.91669H15.5772C15.9982 2.91669 16.3545 3.06252 16.6462 3.35419C16.9378 3.64585 17.0837 4.00217 17.0837 4.42315V7.73085C17.0837 7.90794 17.0237 8.05634 16.9039 8.17606C16.784 8.29592 16.6355 8.35585 16.4585 8.35585C16.2812 8.35585 16.1328 8.29592 16.0132 8.17606C15.8935 8.05634 15.8337 7.90794 15.8337 7.73085V4.42315C15.8337 4.35898 15.8069 4.30023 15.7535 4.24689C15.7001 4.19342 15.6414 4.16669 15.5772 4.16669H4.42345C4.35928 4.16669 4.30053 4.19342 4.2472 4.24689C4.19373 4.30023 4.16699 4.35898 4.16699 4.42315V15.5769C4.16699 15.6411 4.19373 15.6998 4.2472 15.7531C4.30053 15.8066 4.35928 15.8334 4.42345 15.8334H7.70866C7.88574 15.8334 8.03421 15.8933 8.15408 16.0131C8.2738 16.133 8.33366 16.2815 8.33366 16.4586C8.33366 16.6358 8.2738 16.7842 8.15408 16.9038C8.03421 17.0235 7.88574 17.0834 7.70866 17.0834H4.42345ZM14.1189 12.9167C13.5997 12.9167 13.1574 12.734 12.792 12.3686C12.4266 12.0031 12.2439 11.5609 12.2439 11.0417C12.2439 10.5224 12.4266 10.0801 12.792 9.71481C13.1574 9.3494 13.5997 9.16669 14.1189 9.16669C14.6382 9.16669 15.0805 9.3494 15.4457 9.71481C15.8112 10.0801 15.9939 10.5224 15.9939 11.0417C15.9939 11.5609 15.8112 12.0031 15.4457 12.3686C15.0805 12.734 14.6382 12.9167 14.1189 12.9167ZM14.1189 14.1667C14.6444 14.1667 15.1666 14.2175 15.6853 14.319C16.2041 14.4205 16.7108 14.5727 17.2055 14.7756C17.484 14.8843 17.6989 15.0623 17.8501 15.3098C18.0015 15.5573 18.0772 15.829 18.0772 16.125V16.33C18.0772 16.5435 18.005 16.7224 17.8607 16.8667C17.7163 17.0111 17.5374 17.0834 17.3241 17.0834H10.9139C10.7004 17.0834 10.5215 17.0111 10.3772 16.8667C10.2328 16.7224 10.1605 16.5435 10.1605 16.33V16.125C10.1605 15.829 10.2362 15.5573 10.3876 15.3098C10.539 15.0623 10.7539 14.8843 11.0324 14.7756C11.5171 14.5727 12.0187 14.4205 12.537 14.319C13.0553 14.2175 13.5826 14.1667 14.1189 14.1667Z" fill="#E11936"/>
</g>
</svg>
