<svg width="20" height="20" viewBox="0 0 20 20" fill="none" xmlns="http://www.w3.org/2000/svg">
<path fill-rule="evenodd" clip-rule="evenodd" d="M16.533 15.1609C16.533 17.9076 12.7663 18.2251 9.93384 18.2251L9.73114 18.2249C7.92651 18.2206 3.33301 18.1066 3.33301 15.1443C3.33301 12.4537 6.9483 12.0941 9.75924 12.0805L10.1365 12.0803C11.941 12.0847 16.533 12.1986 16.533 15.1609ZM9.93384 13.3301C6.38301 13.3301 4.58301 13.9401 4.58301 15.1443C4.58301 16.3593 6.38301 16.9751 9.93384 16.9751C13.4838 16.9751 15.283 16.3651 15.283 15.1609C15.283 13.9459 13.4838 13.3301 9.93384 13.3301ZM9.93384 1.66644C12.3738 1.66644 14.358 3.65144 14.358 6.09144C14.358 8.53144 12.3738 10.5156 9.93384 10.5156H9.90717C7.47217 10.5081 5.49967 8.52228 5.50798 6.08894C5.50798 3.65144 7.49301 1.66644 9.93384 1.66644ZM9.93384 2.85644C8.14967 2.85644 6.69799 4.30728 6.69799 6.09144C6.69217 7.86978 8.13301 9.31978 9.90967 9.32644L9.93384 9.92144V9.32644C11.7172 9.32644 13.168 7.87478 13.168 6.09144C13.168 4.30728 11.7172 2.85644 9.93384 2.85644Z" fill="#E11936"/>
</svg>
