<svg width="32" height="32" viewBox="0 0 32 32" fill="none" xmlns="http://www.w3.org/2000/svg">
<path d="M6.66667 28C5.93333 28 5.30556 27.7389 4.78333 27.2167C4.26111 26.6944 4 26.0667 4 25.3333V6.66667C4 5.93333 4.26111 5.30556 4.78333 4.78333C5.30556 4.26111 5.93333 4 6.66667 4H25.3333C26.0667 4 26.6944 4.26111 27.2167 4.78333C27.7389 5.30556 28 5.93333 28 6.66667V25.3333C28 26.0667 27.7389 26.6944 27.2167 27.2167C26.6944 27.7389 26.0667 28 25.3333 28H6.66667ZM6.66667 11.1H25.3333V6.66667H6.66667V11.1ZM6.66667 18.2333H25.3333V13.7667H6.66667V18.2333ZM6.66667 25.3333H25.3333V20.9H6.66667V25.3333ZM9.33333 10.2C8.95556 10.2 8.63889 10.0722 8.38333 9.81667C8.12778 9.56111 8 9.24444 8 8.86667C8 8.48889 8.12778 8.17222 8.38333 7.91667C8.63889 7.66111 8.95556 7.53333 9.33333 7.53333C9.71111 7.53333 10.0278 7.66111 10.2833 7.91667C10.5389 8.17222 10.6667 8.48889 10.6667 8.86667C10.6667 9.24444 10.5389 9.56111 10.2833 9.81667C10.0278 10.0722 9.71111 10.2 9.33333 10.2ZM9.33333 17.3333C8.95556 17.3333 8.63889 17.2056 8.38333 16.95C8.12778 16.6944 8 16.3778 8 16C8 15.6222 8.12778 15.3056 8.38333 15.05C8.63889 14.7944 8.95556 14.6667 9.33333 14.6667C9.71111 14.6667 10.0278 14.7944 10.2833 15.05C10.5389 15.3056 10.6667 15.6222 10.6667 16C10.6667 16.3778 10.5389 16.6944 10.2833 16.95C10.0278 17.2056 9.71111 17.3333 9.33333 17.3333ZM9.33333 24.4667C8.95556 24.4667 8.63889 24.3389 8.38333 24.0833C8.12778 23.8278 8 23.5111 8 23.1333C8 22.7556 8.12778 22.4389 8.38333 22.1833C8.63889 21.9278 8.95556 21.8 9.33333 21.8C9.71111 21.8 10.0278 21.9278 10.2833 22.1833C10.5389 22.4389 10.6667 22.7556 10.6667 23.1333C10.6667 23.5111 10.5389 23.8278 10.2833 24.0833C10.0278 24.3389 9.71111 24.4667 9.33333 24.4667Z" fill="#201E22"/>
</svg>
