<svg width="20" height="20" viewBox="0 0 20 20" fill="none" xmlns="http://www.w3.org/2000/svg">
<path fill-rule="evenodd" clip-rule="evenodd" d="M16.533 15.161C16.533 17.9077 12.7663 18.2252 9.93384 18.2252L9.73114 18.225C7.92651 18.2206 3.33301 18.1067 3.33301 15.1443C3.33301 12.4537 6.9483 12.0941 9.75924 12.0806L10.1365 12.0803C11.941 12.0847 16.533 12.1987 16.533 15.161ZM9.93384 13.3302C6.38301 13.3302 4.58301 13.9402 4.58301 15.1443C4.58301 16.3593 6.38301 16.9752 9.93384 16.9752C13.4838 16.9752 15.283 16.3652 15.283 15.161C15.283 13.946 13.4838 13.3302 9.93384 13.3302ZM9.93384 1.6665C12.3738 1.6665 14.358 3.6515 14.358 6.0915C14.358 8.5315 12.3738 10.5157 9.93384 10.5157H9.90717C7.47217 10.5082 5.49967 8.52234 5.50798 6.089C5.50798 3.6515 7.49301 1.6665 9.93384 1.6665ZM9.93384 2.8565C8.14967 2.8565 6.69799 4.30734 6.69799 6.0915C6.69217 7.86984 8.13301 9.31984 9.90967 9.3265L9.93384 9.9215V9.3265C11.7172 9.3265 13.168 7.87484 13.168 6.0915C13.168 4.30734 11.7172 2.8565 9.93384 2.8565Z" fill="#4D4B4E"/>
</svg>
