<svg width="24" height="24" viewBox="0 0 24 24" fill="none" xmlns="http://www.w3.org/2000/svg">
<mask id="mask0_693_3508" style="mask-type:alpha" maskUnits="userSpaceOnUse" x="0" y="0" width="24" height="24">
<rect width="24" height="24" fill="#FDE047"/>
</mask>
<g mask="url(#mask0_693_3508)">
<path d="M5.2505 10.7499C4.97067 10.7499 4.734 10.6534 4.5405 10.4602C4.34683 10.2669 4.25 10.0303 4.25 9.75045C4.25 9.47061 4.34667 9.23395 4.54 9.04045C4.73317 8.84678 4.96967 8.74995 5.2495 8.74995C5.52933 8.74995 5.76608 8.84653 5.95975 9.0397C6.15325 9.23303 6.25 9.46961 6.25 9.74945C6.25 10.0293 6.15342 10.2659 5.96025 10.4594C5.76692 10.6531 5.53033 10.7499 5.2505 10.7499ZM18.7505 10.7499C18.4707 10.7499 18.2339 10.6534 18.0403 10.4602C17.8468 10.2669 17.75 10.0303 17.75 9.75045C17.75 9.47061 17.8466 9.23395 18.0398 9.04045C18.2331 8.84678 18.4697 8.74995 18.7495 8.74995C19.0293 8.74995 19.266 8.84653 19.4595 9.0397C19.6532 9.23303 19.75 9.46961 19.75 9.74945C19.75 10.0293 19.6533 10.2659 19.46 10.4594C19.2668 10.6531 19.0303 10.7499 18.7505 10.7499ZM4 19.4999V20.7499C4 20.9624 3.92808 21.1405 3.78425 21.2842C3.64042 21.428 3.46225 21.4999 3.24975 21.4999C3.03708 21.4999 2.859 21.428 2.7155 21.2842C2.57183 21.1405 2.5 20.9624 2.5 20.7499V18.9084C2.5 18.6476 2.58667 18.431 2.76 18.2587C2.93317 18.0862 3.14783 17.9999 3.404 17.9999H6.5C5.46417 17.9999 4.58025 17.6339 3.84825 16.9019C3.11608 16.1698 2.75 15.2858 2.75 14.2499C2.75 14.0374 2.82192 13.8594 2.96575 13.7157C3.10958 13.5719 3.28775 13.4999 3.50025 13.4999C3.71292 13.4999 3.89108 13.5719 4.03475 13.7157C4.17825 13.8594 4.25 14.0374 4.25 14.2499C4.25 14.8688 4.47033 15.3984 4.911 15.8389C5.35167 16.2796 5.88133 16.4999 6.5 16.4999V13.9037C6.5 13.6477 6.58667 13.433 6.76 13.2597C6.93317 13.0865 7.14783 12.9999 7.404 12.9999H9.2L8.25 9.12495C7.90383 7.71345 7.17758 6.55028 6.07125 5.63545C4.96475 4.72078 3.68075 4.19103 2.21925 4.0462C2.00642 4.0257 1.83333 3.94061 1.7 3.79095C1.56667 3.64128 1.5 3.46053 1.5 3.2487C1.5 3.0367 1.56925 2.85895 1.70775 2.71545C1.84625 2.57178 2.01675 2.5102 2.21925 2.5307C4.01542 2.67553 5.601 3.31336 6.976 4.4442C8.351 5.57503 9.25708 7.01353 9.69425 8.7597L10.8628 13.3742C10.9376 13.6594 10.883 13.9183 10.699 14.1509C10.515 14.3836 10.2756 14.4999 9.98075 14.4999H8V17.6922C8 18.1894 7.823 18.6149 7.469 18.9689C7.115 19.3229 6.68942 19.4999 6.19225 19.4999H4ZM20 19.4999H17.8078C17.3106 19.4999 16.885 19.3229 16.531 18.9689C16.177 18.6149 16 18.1894 16 17.6922V14.4999H14.0193C13.7244 14.4999 13.485 14.381 13.301 14.1432C13.117 13.9054 13.0686 13.639 13.1557 13.3442L14.3057 8.7597C14.7634 7.0237 15.6772 5.59036 17.047 4.4597C18.417 3.32886 19.9949 2.68586 21.7808 2.5307C21.9832 2.5102 22.1537 2.57186 22.2922 2.7157C22.4307 2.85953 22.5 3.0377 22.5 3.2502C22.5 3.46286 22.4333 3.64353 22.3 3.7922C22.1667 3.94103 21.9936 4.0257 21.7808 4.0462C20.3294 4.19103 19.0557 4.72336 17.9595 5.6432C16.8633 6.56303 16.1319 7.72361 15.7653 9.12495L14.8 12.9999H16.596C16.8522 12.9999 17.0668 13.0865 17.24 13.2597C17.4133 13.433 17.5 13.6477 17.5 13.9037V16.4999C18.1268 16.4936 18.6586 16.2721 19.0953 15.8354C19.5318 15.3989 19.75 14.8704 19.75 14.2499C19.75 14.0374 19.8219 13.8594 19.9657 13.7157C20.1096 13.5719 20.2878 13.4999 20.5002 13.4999C20.7129 13.4999 20.891 13.5719 21.0345 13.7157C21.1782 13.8594 21.25 14.0374 21.25 14.2499C21.25 15.2858 20.8839 16.1681 20.1518 16.8969C19.4198 17.6259 18.5358 17.9936 17.5 17.9999H20.596C20.8522 17.9999 21.0668 18.0865 21.24 18.2597C21.4133 18.433 21.5 18.6477 21.5 18.9037V20.7499C21.5 20.9624 21.4281 21.1405 21.2843 21.2842C21.1404 21.428 20.9622 21.4999 20.7498 21.4999C20.5371 21.4999 20.359 21.428 20.2155 21.2842C20.0718 21.1405 20 20.9624 20 20.7499V19.4999Z" fill="#CCF501"/>
</g>
</svg>
