<svg width="24" height="24" viewBox="0 0 24 24" fill="none" xmlns="http://www.w3.org/2000/svg">
<mask id="mask0_693_4818" style="mask-type:alpha" maskUnits="userSpaceOnUse" x="0" y="0" width="24" height="24">
<rect width="24" height="24" fill="#D9D9D9"/>
</mask>
<g mask="url(#mask0_693_4818)">
<path d="M12.0001 8C10.9001 8 9.95839 8.39167 9.17506 9.175C8.39173 9.95833 8.00006 10.9 8.00006 12C8.00006 12.7948 8.21323 13.5202 8.63956 14.176C9.06573 14.8318 9.64106 15.3219 10.3656 15.6463C10.5617 15.7411 10.7027 15.8856 10.7886 16.0798C10.8744 16.2741 10.8751 16.4693 10.7906 16.6653C10.7059 16.8409 10.5773 16.9743 10.4048 17.0653C10.2325 17.1564 10.0585 17.1597 9.88281 17.075C8.85848 16.6455 8.03856 15.9712 7.42306 15.052C6.80773 14.1327 6.50006 13.1153 6.50006 12C6.50006 10.4743 7.03531 9.17625 8.10581 8.10575C9.17631 7.03525 10.4744 6.5 12.0001 6.5C13.1192 6.5 14.1426 6.80767 15.0703 7.423C15.9978 8.0385 16.6711 8.8655 17.0903 9.904C17.1648 10.0795 17.1575 10.2551 17.0683 10.4308C16.9791 10.6064 16.8468 10.7314 16.6713 10.8057C16.4686 10.8904 16.2692 10.8872 16.0731 10.7963C15.8769 10.7053 15.7314 10.5584 15.6366 10.3558C15.3122 9.63142 14.8221 9.05767 14.1663 8.6345C13.5106 8.2115 12.7886 8 12.0001 8ZM12.0001 4C9.76673 4 7.87506 4.775 6.32506 6.325C4.77506 7.875 4.00006 9.76667 4.00006 12C4.00006 14.1642 4.72056 16.0027 6.16156 17.5155C7.60256 19.0283 9.39365 19.8463 11.5348 19.9693C11.7475 19.9898 11.9307 20.0795 12.0846 20.2385C12.2386 20.3975 12.3104 20.5834 12.3001 20.7963C12.2897 21.0089 12.2128 21.1861 12.0693 21.3278C11.9256 21.4694 11.7475 21.5352 11.5348 21.525C10.2603 21.4737 9.07498 21.1807 7.97881 20.646C6.88281 20.1115 5.92673 19.4109 5.11056 18.5443C4.29456 17.6776 3.65548 16.6808 3.19331 15.5538C2.73114 14.4269 2.50006 13.2423 2.50006 12C2.50006 10.6872 2.74973 9.45292 3.24906 8.29725C3.74839 7.14142 4.42564 6.13592 5.28081 5.28075C6.13598 4.42558 7.14148 3.74833 8.29731 3.249C9.45298 2.74967 10.6872 2.5 12.0001 2.5C14.4949 2.5 16.6763 3.36442 18.5443 5.09325C20.4121 6.82208 21.4057 8.966 21.5251 11.525C21.5456 11.7275 21.484 11.9022 21.3403 12.049C21.1968 12.1958 21.0186 12.2743 20.8058 12.2845C20.593 12.2948 20.4029 12.224 20.2356 12.072C20.0682 11.9202 19.9743 11.7378 19.9538 11.525C19.8 9.47367 18.9612 7.70667 17.4376 6.224C15.9139 4.74133 14.1014 4 12.0001 4ZM19.3963 20.8845L15.6058 17.1L14.9711 19.0288C14.8942 19.2429 14.7487 19.3474 14.5346 19.3423C14.3206 19.3371 14.1783 19.2274 14.1078 19.0133L12.2463 12.8135C12.1925 12.643 12.2309 12.4923 12.3616 12.3615C12.4924 12.2308 12.6431 12.1924 12.8136 12.2463L19.0133 14.1078C19.2275 14.1783 19.3371 14.3205 19.3423 14.5345C19.3475 14.7487 19.243 14.8942 19.0288 14.971L17.1001 15.6058L20.9001 19.3963C21.1129 19.6089 21.2193 19.8569 21.2193 20.1403C21.2193 20.4236 21.1129 20.6717 20.9001 20.8845C20.6872 21.0973 20.4366 21.2038 20.1481 21.2038C19.8596 21.2038 19.609 21.0973 19.3963 20.8845Z" fill="#BFBFBF"/>
</g>
</svg>
