<svg width="24" height="24" viewBox="0 0 24 24" fill="none" xmlns="http://www.w3.org/2000/svg">
<mask id="mask0_693_119" style="mask-type:alpha" maskUnits="userSpaceOnUse" x="0" y="0" width="24" height="24">
<rect width="24" height="24" fill="#D9D9D9"/>
</mask>
<g mask="url(#mask0_693_119)">
<path d="M12.0001 7.99988C10.9001 7.99988 9.95846 8.39155 9.17512 9.17488C8.39179 9.95821 8.00012 10.8999 8.00012 11.9999C8.00012 12.7947 8.21329 13.52 8.63962 14.1759C9.06579 14.8317 9.64112 15.3218 10.3656 15.6461C10.5618 15.741 10.7028 15.8855 10.7886 16.0796C10.8745 16.274 10.8751 16.4691 10.7906 16.6651C10.706 16.8408 10.5774 16.9741 10.4049 17.0651C10.2325 17.1563 10.0585 17.1595 9.88287 17.0749C8.85854 16.6454 8.03862 15.971 7.42312 15.0519C6.80779 14.1325 6.50012 13.1152 6.50012 11.9999C6.50012 10.4742 7.03537 9.17613 8.10587 8.10563C9.17637 7.03513 10.4745 6.49988 12.0001 6.49988C13.1193 6.49988 14.1427 6.80754 15.0704 7.42288C15.9979 8.03838 16.6712 8.86538 17.0904 9.90388C17.1649 10.0794 17.1575 10.255 17.0684 10.4306C16.9792 10.6063 16.8469 10.7313 16.6714 10.8056C16.4687 10.8903 16.2693 10.8871 16.0731 10.7961C15.877 10.7051 15.7315 10.5583 15.6366 10.3556C15.3123 9.63129 14.8222 9.05755 14.1664 8.63438C13.5107 8.21138 12.7886 7.99988 12.0001 7.99988ZM12.0001 3.99988C9.76679 3.99988 7.87512 4.77488 6.32512 6.32488C4.77512 7.87488 4.00012 9.76655 4.00012 11.9999C4.00012 14.164 4.72062 16.0025 6.16162 17.5154C7.60262 19.0282 9.39371 19.8461 11.5349 19.9691C11.7475 19.9896 11.9308 20.0794 12.0846 20.2384C12.2386 20.3974 12.3105 20.5833 12.3001 20.7961C12.2898 21.0088 12.2129 21.186 12.0694 21.3276C11.9257 21.4693 11.7475 21.535 11.5349 21.5249C10.2604 21.4735 9.07504 21.1805 7.97887 20.6459C6.88287 20.1114 5.92679 19.4108 5.11062 18.5441C4.29462 17.6775 3.65554 16.6806 3.19337 15.5536C2.73121 14.4268 2.50012 13.2422 2.50012 11.9999C2.50012 10.687 2.74979 9.4528 3.24912 8.29713C3.74846 7.1413 4.42571 6.13579 5.28087 5.28063C6.13604 4.42546 7.14154 3.74821 8.29737 3.24888C9.45304 2.74955 10.6873 2.49988 12.0001 2.49988C14.495 2.49988 16.6764 3.36429 18.5444 5.09313C20.4122 6.82196 21.4058 8.96588 21.5251 11.5249C21.5456 11.7274 21.484 11.902 21.3404 12.0489C21.1969 12.1957 21.0187 12.2742 20.8059 12.2844C20.593 12.2947 20.403 12.2239 20.2356 12.0719C20.0683 11.92 19.9744 11.7377 19.9539 11.5249C19.8 9.47355 18.9613 7.70655 17.4376 6.22388C15.914 4.74121 14.1015 3.99988 12.0001 3.99988ZM19.3964 20.8844L15.6059 17.0999L14.9711 19.0286C14.8943 19.2428 14.7488 19.3473 14.5346 19.3421C14.3206 19.337 14.1784 19.2273 14.1079 19.0131L12.2464 12.8134C12.1925 12.6429 12.231 12.4922 12.3616 12.3614C12.4925 12.2307 12.6431 12.1923 12.8136 12.2461L19.0134 14.1076C19.2275 14.1781 19.3372 14.3204 19.3424 14.5344C19.3475 14.7485 19.243 14.894 19.0289 14.9709L17.1001 15.6056L20.9001 19.3961C21.113 19.6088 21.2194 19.8568 21.2194 20.1401C21.2194 20.4235 21.113 20.6715 20.9001 20.8844C20.6873 21.0972 20.4366 21.2036 20.1481 21.2036C19.8596 21.2036 19.609 21.0972 19.3964 20.8844Z" fill="#CCF501"/>
</g>
</svg>
