<svg width="16" height="16" viewBox="0 0 16 16" fill="none" xmlns="http://www.w3.org/2000/svg">
<path d="M4.61142 0.757841C3.17259 1.42451 1.91952 2.52185 1.06692 3.99821C0.214323 5.47458 -0.109715 7.10816 0.0321994 8.68723C2.01822 9.12196 4.15401 8.25687 5.22677 6.39928C6.29952 4.5417 5.98101 2.25998 4.61142 0.757841Z" fill="#201E22"/>
<path d="M15.9678 7.31276C13.9818 6.87804 11.846 7.74312 10.7732 9.60071C9.70048 11.4583 10.019 13.74 11.3886 15.2422C12.8274 14.5755 14.0805 13.4781 14.9331 12.0018C15.7857 10.5254 16.1097 8.89183 15.9678 7.31276Z" fill="#201E22"/>
<path d="M9.38661 8.80036C10.6995 6.52689 13.1901 5.36755 15.6416 5.63658C15.068 3.7806 13.8262 2.12118 12.0028 1.06871C10.1794 0.0162432 8.12105 -0.229189 6.2265 0.202156C7.68528 2.19014 7.9263 4.92618 6.61338 7.19964C5.30046 9.47311 2.80985 10.6324 0.358373 10.3634C0.931996 12.2194 2.17378 13.8788 3.99718 14.9313C5.82058 15.9838 7.87894 16.2292 9.77349 15.7978C8.31471 13.8099 8.07369 11.0738 9.38661 8.80036Z" fill="#201E22"/>
</svg>
