<svg width="16" height="16" viewBox="0 0 16 16" fill="none" xmlns="http://www.w3.org/2000/svg">
<mask id="mask0_926_2001" style="mask-type:alpha" maskUnits="userSpaceOnUse" x="0" y="0" width="16" height="16">
<rect width="16" height="16" fill="#D9D9D9"/>
</mask>
<g mask="url(#mask0_926_2001)">
<path d="M2.48717 4.18464V2.68714C2.48717 2.57781 2.53462 2.49298 2.62951 2.43264C2.7244 2.37242 2.82312 2.36792 2.92567 2.41914L4.40651 3.16798C4.51584 3.22353 4.57051 3.31281 4.57051 3.43581C4.57051 3.55892 4.51584 3.64825 4.40651 3.70381L2.92567 4.45248C2.82312 4.50381 2.7244 4.49936 2.62951 4.43914C2.53462 4.37881 2.48717 4.29398 2.48717 4.18464ZM11.718 4.18464V2.68714C11.718 2.57781 11.7654 2.49298 11.8602 2.43264C11.9551 2.37242 12.0538 2.36792 12.1563 2.41914L13.6372 3.16798C13.7465 3.22353 13.8012 3.31281 13.8012 3.43581C13.8012 3.55892 13.7465 3.64825 13.6372 3.70381L12.1563 4.45248C12.0538 4.50381 11.9551 4.49936 11.8602 4.43914C11.7654 4.37881 11.718 4.29398 11.718 4.18464ZM7.41034 3.56914V2.07181C7.41034 1.96236 7.45773 1.87753 7.55251 1.81731C7.6474 1.75709 7.74612 1.75259 7.84867 1.80381L9.32951 2.55248C9.43884 2.60803 9.49351 2.69736 9.49351 2.82047C9.49351 2.94359 9.43884 3.03292 9.32951 3.08847L7.84867 3.83714C7.74612 3.88847 7.6474 3.88397 7.55251 3.82364C7.45773 3.76342 7.41034 3.67859 7.41034 3.56914ZM6.62567 14.4063C5.15134 14.3174 3.94984 14.104 3.02117 13.766C2.09251 13.428 1.62817 13.0401 1.62817 12.6025V6.85897C1.62817 6.60253 1.79145 6.36447 2.11801 6.14481C2.44445 5.92514 2.89273 5.7322 3.46284 5.56597C4.03295 5.39975 4.70645 5.26814 5.48334 5.17114C6.26023 5.07414 7.09912 5.02564 8.00001 5.02564C8.9009 5.02564 9.73978 5.07414 10.5167 5.17114C11.2936 5.26814 11.9671 5.39975 12.5372 5.56597C13.1073 5.7322 13.5556 5.92514 13.882 6.14481C14.2086 6.36447 14.3718 6.60253 14.3718 6.85897V12.6025C14.3718 13.0469 13.9047 13.4365 12.9705 13.7711C12.0363 14.1057 10.832 14.3174 9.35767 14.4063C9.21067 14.4174 9.08656 14.3734 8.98534 14.2743C8.88401 14.1752 8.83334 14.0521 8.83334 13.9051V11.7691H7.16667V13.8885C7.16667 14.0355 7.11323 14.1613 7.00634 14.266C6.89956 14.3706 6.77267 14.4174 6.62567 14.4063ZM8.00001 7.69231C9.09056 7.69231 10.0724 7.61664 10.9455 7.46531C11.8186 7.31409 12.4906 7.1252 12.9615 6.89864C12.8888 6.75342 12.4122 6.57159 11.5315 6.35314C10.6507 6.13481 9.47356 6.02564 8.00001 6.02564C6.52645 6.02564 5.34928 6.13481 4.46851 6.35314C3.58784 6.57159 3.11117 6.75342 3.03851 6.89864C3.5094 7.1252 4.15684 7.31409 4.98084 7.46531C5.80473 7.61664 6.81112 7.69231 8.00001 7.69231ZM6.16667 13.3551V11.7691C6.16667 11.4965 6.26517 11.2616 6.46217 11.0646C6.65917 10.8676 6.89401 10.7691 7.16667 10.7691H8.83334C9.10601 10.7691 9.34084 10.8676 9.53784 11.0646C9.73484 11.2616 9.83334 11.4965 9.83334 11.7691V13.3551C10.8035 13.2705 11.59 13.1356 12.193 12.9506C12.796 12.7656 13.189 12.5915 13.3718 12.4281V7.81531C12.7008 8.10675 11.9107 8.32581 11.0013 8.47247C10.0919 8.61903 9.09145 8.69231 8.00001 8.69231C6.90856 8.69231 5.90812 8.61903 4.99867 8.47247C4.08934 8.32581 3.29917 8.10675 2.62817 7.81531V12.4281C2.81106 12.5915 3.19123 12.7656 3.76867 12.9506C4.34601 13.1356 5.14534 13.2705 6.16667 13.3551Z" fill="#AAAAAA"/>
</g>
</svg>
