<svg width="24" height="24" viewBox="0 0 24 24" fill="none" xmlns="http://www.w3.org/2000/svg">
<mask id="mask0_77_3711" style="mask-type:alpha" maskUnits="userSpaceOnUse" x="0" y="0" width="24" height="24">
<rect width="24" height="24" fill="#D9D9D9"/>
</mask>
<g mask="url(#mask0_77_3711)">
<path d="M5.30775 19.5C4.80258 19.5 4.375 19.325 4.025 18.975C3.675 18.625 3.5 18.1974 3.5 17.6923V11C3.5 9.83083 3.72308 8.73083 4.16925 7.7C4.61542 6.66917 5.22442 5.76792 5.99625 4.99625C6.76792 4.22442 7.66917 3.61542 8.7 3.16925C9.73083 2.72308 10.8308 2.5 12 2.5C13.1692 2.5 14.2692 2.72308 15.3 3.16925C16.3308 3.61542 17.2321 4.22442 18.0038 4.99625C18.7756 5.76792 19.3846 6.66917 19.8307 7.7C20.2769 8.73083 20.5 9.83083 20.5 11V20.3845C20.5 20.8897 20.325 21.3173 19.975 21.6673C19.625 22.0173 19.1974 22.1923 18.6923 22.1923H12.75C12.5372 22.1923 12.359 22.1204 12.2155 21.9768C12.0718 21.8333 12 21.6551 12 21.4423C12 21.2294 12.0718 21.0513 12.2155 20.9078C12.359 20.7641 12.5372 20.6923 12.75 20.6923H18.6923C18.7821 20.6923 18.8558 20.6634 18.9135 20.6058C18.9712 20.5481 19 20.4743 19 20.3845V19.5H17.2693C16.7706 19.5 16.3447 19.3234 15.9915 18.9703C15.6382 18.6169 15.4615 18.1909 15.4615 17.6923V14.2308C15.4615 13.7321 15.6382 13.3062 15.9915 12.953C16.3447 12.5997 16.7706 12.423 17.2693 12.423H19V11C19 9.06667 18.3167 7.41667 16.95 6.05C15.5833 4.68333 13.9333 4 12 4C10.0667 4 8.41667 4.68333 7.05 6.05C5.68333 7.41667 5 9.06667 5 11V12.423H6.73075C7.22942 12.423 7.65533 12.5997 8.0085 12.953C8.36183 13.3062 8.5385 13.7321 8.5385 14.2308V17.6923C8.5385 18.1909 8.36183 18.6169 8.0085 18.9703C7.65533 19.3234 7.22942 19.5 6.73075 19.5H5.30775ZM5.30775 18H6.73075C6.82042 18 6.89417 17.9712 6.952 17.9135C7.00967 17.8558 7.0385 17.7821 7.0385 17.6923V14.2308C7.0385 14.1411 7.00967 14.0673 6.952 14.0095C6.89417 13.9518 6.82042 13.923 6.73075 13.923H5V17.6923C5 17.7821 5.02883 17.8558 5.0865 17.9135C5.14417 17.9712 5.21792 18 5.30775 18ZM17.2693 18H19V13.923H17.2693C17.1796 13.923 17.1058 13.9518 17.048 14.0095C16.9903 14.0673 16.9615 14.1411 16.9615 14.2308V17.6923C16.9615 17.7821 16.9903 17.8558 17.048 17.9135C17.1058 17.9712 17.1796 18 17.2693 18ZM17.2693 13.923H16.9615H19H17.2693Z" fill="#D5D5D5"/>
</g>
</svg>
