<svg width="24" height="24" viewBox="0 0 24 24" fill="none" xmlns="http://www.w3.org/2000/svg">
<mask id="mask0_77_3722" style="mask-type:alpha" maskUnits="userSpaceOnUse" x="0" y="0" width="24" height="24">
<rect width="24" height="24" fill="#D9D9D9"/>
</mask>
<g mask="url(#mask0_77_3722)">
</g>
<g clip-path="url(#clip0_77_3722)">
<path d="M8.78564 14.6481L18.6599 17.9395C18.8533 18.0033 19.059 18.0203 19.2602 17.9889C19.4613 17.9577 19.6522 17.879 19.8171 17.7595C19.9832 17.6413 20.1188 17.4852 20.2128 17.304C20.3067 17.123 20.3562 16.9222 20.3571 16.7181V6.13672C20.3562 5.93274 20.3067 5.73191 20.2128 5.55083C20.1188 5.36975 19.9832 5.2136 19.8171 5.09529C19.6511 4.97795 19.4598 4.90163 19.2586 4.87258C19.0575 4.84353 18.8523 4.86257 18.6599 4.92814L8.78564 8.21957V14.6481Z" stroke="#D5D5D5" stroke-width="1.5" stroke-linecap="round" stroke-linejoin="round"/>
<path d="M3.64282 11.434C3.64282 11.8561 3.72596 12.2741 3.8875 12.6641C4.04903 13.054 4.2858 13.4084 4.58426 13.7069C5.18706 14.3097 6.00463 14.6483 6.85711 14.6483H8.78568V8.21973H6.85711C6.43501 8.21973 6.01704 8.30286 5.62705 8.4644C5.23708 8.62594 4.88274 8.8627 4.58426 9.16117C3.98147 9.76396 3.64282 10.5815 3.64282 11.434Z" stroke="#D5D5D5" stroke-width="1.5" stroke-linecap="round" stroke-linejoin="round"/>
<path d="M6.85706 14.6484V15.9342C6.85706 16.3563 6.94019 16.7743 7.10173 17.1642C7.26326 17.5542 7.50003 17.9085 7.79849 18.207C8.09697 18.5055 8.45132 18.7422 8.84129 18.9038C9.23127 19.0653 9.64924 19.1485 10.0713 19.1485" stroke="#D5D5D5" stroke-width="1.5" stroke-linecap="round" stroke-linejoin="round"/>
</g>
<defs>
<clipPath id="clip0_77_3722">
<rect width="18" height="18" fill="white" transform="translate(3 3)"/>
</clipPath>
</defs>
</svg>
