<svg width="20" height="20" viewBox="0 0 20 20" fill="none" xmlns="http://www.w3.org/2000/svg">
<mask id="mask0_705_7764" style="mask-type:alpha" maskUnits="userSpaceOnUse" x="0" y="0" width="20" height="20">
<rect width="20" height="20" fill="#D9D9D9"/>
</mask>
<g mask="url(#mask0_705_7764)">
<path d="M11.3798 10.1434L13.7739 8.52796C13.9973 8.3774 14.1089 8.16962 14.1089 7.90462C14.1089 7.63962 13.9973 7.43185 13.7739 7.28129L11.3798 5.66587C11.1287 5.4874 10.8707 5.47351 10.6058 5.62421C10.3408 5.7749 10.2083 6.00087 10.2083 6.30212V9.50712C10.2083 9.80837 10.3408 10.0343 10.6058 10.185C10.8707 10.3357 11.1287 10.3218 11.3798 10.1434ZM7.56414 13.9302C7.14317 13.9302 6.78685 13.7844 6.49518 13.4927C6.20352 13.2011 6.05768 12.8448 6.05768 12.4238V3.57775C6.05768 3.15678 6.20352 2.80046 6.49518 2.50879C6.78685 2.21712 7.14317 2.07129 7.56414 2.07129H16.4102C16.8312 2.07129 17.1875 2.21712 17.4791 2.50879C17.7708 2.80046 17.9166 3.15678 17.9166 3.57775V12.4238C17.9166 12.8448 17.7708 13.2011 17.4791 13.4927C17.1875 13.7844 16.8312 13.9302 16.4102 13.9302H7.56414ZM7.56414 12.6802H16.4102C16.485 12.6802 16.5465 12.6562 16.5946 12.6082C16.6426 12.5601 16.6666 12.4987 16.6666 12.4238V3.57775C16.6666 3.50289 16.6426 3.44143 16.5946 3.39337C16.5465 3.34532 16.485 3.32129 16.4102 3.32129H7.56414C7.48928 3.32129 7.42782 3.34532 7.37977 3.39337C7.33171 3.44143 7.30768 3.50289 7.30768 3.57775V12.4238C7.30768 12.4987 7.33171 12.5601 7.37977 12.6082C7.42782 12.6562 7.48928 12.6802 7.56414 12.6802ZM4.95039 17.7763C4.5347 17.8266 4.16157 17.7262 3.83102 17.475C3.50032 17.2241 3.30984 16.8907 3.25956 16.475L2.1956 7.87587C2.14532 7.46018 2.25136 7.0865 2.51373 6.75483C2.77595 6.42303 3.11484 6.23046 3.53039 6.17712L3.73248 6.169C3.9097 6.14344 4.06803 6.19129 4.20748 6.31254C4.34692 6.43379 4.41664 6.59004 4.41664 6.78129C4.41664 6.93615 4.36241 7.07261 4.25393 7.19066C4.1456 7.30872 4.01393 7.3806 3.85893 7.40629L3.68581 7.41421C3.61109 7.41962 3.55234 7.45032 3.50956 7.50629C3.46678 7.5624 3.45074 7.62789 3.46143 7.70275L4.52248 16.3148C4.53317 16.3897 4.56518 16.4484 4.61852 16.4911C4.67199 16.5339 4.73609 16.5499 4.81081 16.5392L14.6539 15.323C14.8312 15.3005 14.9873 15.3413 15.1225 15.4455C15.2578 15.5496 15.3366 15.6904 15.3589 15.8677C15.3814 16.0451 15.3406 16.1979 15.2364 16.3261C15.1323 16.4543 14.9915 16.5296 14.8141 16.5521L4.95039 17.7763Z" fill="#E9E9E9"/>
</g>
</svg>
