<svg width="24" height="24" viewBox="0 0 24 24" fill="none" xmlns="http://www.w3.org/2000/svg">
<path d="M12.4998 9.95459V13.2464H17.0744C16.8735 14.305 16.2707 15.2014 15.3666 15.8041L18.1252 17.9446C19.7325 16.461 20.6598 14.2819 20.6598 11.6933C20.6598 11.0906 20.6057 10.511 20.5052 9.95468L12.4998 9.95459Z" fill="#4285F4"/>
<path d="M7.73625 13.1179L7.11408 13.5942L4.91177 15.3096C6.31041 18.0837 9.17701 20 12.4997 20C14.7946 20 16.7187 19.2428 18.1251 17.9446L15.3665 15.8042C14.6092 16.3142 13.6433 16.6233 12.4997 16.6233C10.2897 16.6233 8.41205 15.1319 7.73973 13.1228L7.73625 13.1179Z" fill="#34A853"/>
<path d="M4.91175 7.69043C4.33224 8.83401 4 10.1245 4 11.4999C4 12.8753 4.33224 14.1658 4.91175 15.3094C4.91175 15.3171 7.73998 13.1149 7.73998 13.1149C7.56998 12.6049 7.4695 12.064 7.4695 11.4998C7.4695 10.9357 7.56998 10.3948 7.73998 9.88479L4.91175 7.69043Z" fill="#FBBC05"/>
<path d="M12.4999 6.38453C13.7517 6.38453 14.8644 6.81724 15.7531 7.6518L18.1871 5.21775C16.7112 3.84232 14.7949 3 12.4999 3C9.17718 3 6.31041 4.90863 4.91177 7.69044L7.73992 9.88498C8.41215 7.87588 10.2899 6.38453 12.4999 6.38453Z" fill="#EA4335"/>
</svg>
