<svg width="20" height="20" viewBox="0 0 20 20" fill="none" xmlns="http://www.w3.org/2000/svg">
<mask id="mask0_926_4251" style="mask-type:alpha" maskUnits="userSpaceOnUse" x="0" y="0" width="20" height="20">
<rect width="20" height="20" fill="#D9D9D9"/>
</mask>
<g mask="url(#mask0_926_4251)">
<path d="M4.16669 15.8332H5.21794L13.7484 7.30275L12.6971 6.2515L4.16669 14.7819V15.8332ZM3.67002 17.0832C3.45655 17.0832 3.27766 17.0109 3.13335 16.8665C2.98891 16.7222 2.91669 16.5433 2.91669 16.3298V14.8861C2.91669 14.6829 2.95571 14.4892 3.03377 14.305C3.11169 14.1209 3.21905 13.9604 3.35585 13.8236L13.9088 3.27546C14.0347 3.16102 14.1738 3.07262 14.3261 3.01025C14.4784 2.94775 14.6381 2.9165 14.8052 2.9165C14.9723 2.9165 15.1341 2.94616 15.2906 3.00546C15.4473 3.06477 15.586 3.15907 15.7067 3.28838L16.7244 4.3188C16.8537 4.43949 16.9459 4.57838 17.0009 4.73546C17.0559 4.89255 17.0834 5.04963 17.0834 5.20671C17.0834 5.37435 17.0547 5.53428 16.9975 5.6865C16.9403 5.83887 16.8493 5.97803 16.7244 6.104L6.17627 16.644C6.03946 16.7808 5.87898 16.8882 5.69481 16.9661C5.51065 17.0441 5.31697 17.0832 5.11377 17.0832H3.67002ZM13.2136 6.7863L12.6971 6.2515L13.7484 7.30275L13.2136 6.7863Z" fill="#111111"/>
</g>
</svg>
