<svg width="20" height="20" viewBox="0 0 20 20" fill="none" xmlns="http://www.w3.org/2000/svg">
<mask id="mask0_678_4939" style="mask-type:alpha" maskUnits="userSpaceOnUse" x="0" y="0" width="20" height="20">
<rect width="20" height="20" fill="#D9D9D9"/>
</mask>
<g mask="url(#mask0_678_4939)">
<path d="M5.25646 17.9167C4.8409 17.9167 4.4859 17.7696 4.19146 17.4753C3.89715 17.1808 3.75 16.8258 3.75 16.4103V8.58987C3.75 8.17432 3.89715 7.81932 4.19146 7.52487C4.4859 7.23057 4.8409 7.08341 5.25646 7.08341H6.25V5.41675C6.25 4.37619 6.61486 3.49105 7.34458 2.76133C8.07431 2.03161 8.95944 1.66675 10 1.66675C11.0406 1.66675 11.9257 2.03161 12.6554 2.76133C13.3851 3.49105 13.75 4.37619 13.75 5.41675V7.08341H14.7435C15.1591 7.08341 15.5141 7.23057 15.8085 7.52487C16.1028 7.81932 16.25 8.17432 16.25 8.58987V16.4103C16.25 16.8258 16.1028 17.1808 15.8085 17.4753C15.5141 17.7696 15.1591 17.9167 14.7435 17.9167H5.25646ZM5.25646 16.6667H14.7435C14.8184 16.6667 14.8799 16.6427 14.9279 16.5947C14.976 16.5466 15 16.4852 15 16.4103V8.58987C15 8.51501 14.976 8.45355 14.9279 8.4055C14.8799 8.35744 14.8184 8.33341 14.7435 8.33341H5.25646C5.1816 8.33341 5.12014 8.35744 5.07208 8.4055C5.02403 8.45355 5 8.51501 5 8.58987V16.4103C5 16.4852 5.02403 16.5466 5.07208 16.5947C5.12014 16.6427 5.1816 16.6667 5.25646 16.6667ZM10 13.9584C10.4049 13.9584 10.7492 13.8166 11.0329 13.533C11.3165 13.2492 11.4583 12.9049 11.4583 12.5001C11.4583 12.0952 11.3165 11.7509 11.0329 11.4672C10.7492 11.1836 10.4049 11.0417 10 11.0417C9.59514 11.0417 9.25083 11.1836 8.96708 11.4672C8.68347 11.7509 8.54167 12.0952 8.54167 12.5001C8.54167 12.9049 8.68347 13.2492 8.96708 13.533C9.25083 13.8166 9.59514 13.9584 10 13.9584ZM7.5 7.08341H12.5V5.41675C12.5 4.7223 12.2569 4.13203 11.7708 3.64591C11.2847 3.1598 10.6944 2.91675 10 2.91675C9.30556 2.91675 8.71528 3.1598 8.22917 3.64591C7.74306 4.13203 7.5 4.7223 7.5 5.41675V7.08341Z" fill="#4D4B4E"/>
</g>
</svg>
