<svg width="30" height="30" viewBox="0 0 30 30" fill="none" xmlns="http://www.w3.org/2000/svg">
<mask id="mask0_705_10994" style="mask-type:alpha" maskUnits="userSpaceOnUse" x="0" y="0" width="30" height="30">
<rect width="30" height="30" fill="#FDE047"/>
</mask>
<g mask="url(#mask0_705_10994)">
<path d="M15.7578 2.25L15.9532 2.25781C16.4065 2.29339 16.8442 2.44792 17.2207 2.70703C17.6509 3.00311 17.9819 3.42207 18.17 3.90918L18.8653 5.70703L21.0987 6.99219L23.0157 6.7002L23.0274 6.69922C23.5369 6.63006 24.0558 6.71322 24.5176 6.93945C24.9215 7.13742 25.2662 7.43678 25.5186 7.80664L25.6211 7.96973L25.6231 7.97266L26.3555 9.25488L26.4483 9.42773C26.6493 9.83764 26.7395 10.2949 26.7071 10.7529C26.6701 11.2741 26.4754 11.7713 26.1504 12.1807L24.9658 13.6914V16.2637L26.1817 17.7725L26.1846 17.7754C26.5117 18.1857 26.7061 18.6859 26.7432 19.209C26.7802 19.7322 26.6582 20.2542 26.3926 20.7061L26.3916 20.7051L25.6592 21.9883L25.6573 21.9922C25.3997 22.437 25.0159 22.7953 24.5547 23.0215C24.0933 23.2473 23.5741 23.3319 23.0645 23.2627L21.1367 22.9678L18.9033 24.2529L18.2061 26.0527C18.018 26.5395 17.687 26.9589 17.2569 27.2549C16.8266 27.5508 16.317 27.7094 15.795 27.7109H14.2422C13.7199 27.7094 13.2097 27.551 12.7793 27.2549C12.349 26.9587 12.0181 26.5389 11.8301 26.0518L11.1328 24.2529L8.89944 22.9678L6.9844 23.2607L6.97268 23.2627C6.52661 23.3233 6.07368 23.2662 5.65823 23.0996L5.48245 23.0215C5.02093 22.7952 4.63652 22.4371 4.37893 21.9922L4.37698 21.9883L3.63968 20.6982L3.64065 20.6973C3.37824 20.2471 3.25627 19.7288 3.293 19.209C3.33003 18.6858 3.52477 18.1855 3.85159 17.7754L5.03421 16.2686V13.6973L3.81839 12.1895L3.81546 12.1855C3.48867 11.7755 3.29394 11.276 3.25686 10.7529C3.21983 10.2298 3.34164 9.70701 3.60745 9.25488L4.33987 7.97266L4.3428 7.96973C4.60034 7.52476 4.98371 7.16571 5.44534 6.93945C5.84934 6.74149 6.2973 6.65252 6.74417 6.67969L6.93558 6.69922L6.94827 6.7002L8.86526 6.99219L11.1348 5.7041L11.8301 3.90918C12.0181 3.42204 12.3492 3.0031 12.7793 2.70703C13.2096 2.41091 13.7198 2.25154 14.2422 2.25H15.7578ZM14.083 3.7627C13.9211 3.78768 13.766 3.84872 13.6299 3.94238C13.4486 4.06718 13.3088 4.24388 13.2295 4.44922L12.4366 6.49609C12.3741 6.65735 12.2579 6.79257 12.1075 6.87793L9.37991 8.42578C9.2334 8.50894 9.06306 8.54103 8.89651 8.51562L6.73343 8.18457C6.51879 8.15554 6.29999 8.19181 6.1055 8.28711C5.91107 8.38248 5.74918 8.53327 5.64065 8.7207L4.9053 10.0078L4.90042 10.0156C4.78851 10.2061 4.73742 10.4261 4.75296 10.6465C4.76846 10.8654 4.84937 11.0749 4.98538 11.2471L6.36819 12.9619C6.47556 13.0952 6.53421 13.2614 6.53421 13.4326V16.5293C6.53413 16.6971 6.47766 16.8602 6.37405 16.9922L5.02835 18.7061L5.02542 18.7109C4.88772 18.8838 4.8057 19.094 4.79007 19.3145C4.77447 19.5348 4.82565 19.7548 4.93753 19.9453L4.94241 19.9541L5.67776 21.2402L5.76858 21.374C5.86904 21.5001 5.99656 21.6032 6.14261 21.6748L6.293 21.7344C6.39547 21.7669 6.50201 21.7847 6.6094 21.7861L6.77054 21.7764L8.93362 21.4463L9.0596 21.4375C9.18574 21.4397 9.31039 21.4735 9.42093 21.5371L12.1114 23.0859L12.2168 23.1582C12.3146 23.2394 12.3901 23.345 12.4366 23.4648L13.2295 25.5107C13.3088 25.7162 13.4486 25.8937 13.6299 26.0186C13.8112 26.1433 14.026 26.2102 14.2461 26.2109H15.7901C16.0103 26.2103 16.2259 26.1434 16.4073 26.0186C16.5884 25.8938 16.7284 25.7161 16.8076 25.5107L17.5996 23.4648C17.6615 23.3051 17.7765 23.1714 17.9248 23.0859L20.6162 21.5371C20.7635 21.4524 20.9356 21.4207 21.1035 21.4463L23.2657 21.7764C23.4798 21.8054 23.699 21.7699 23.8936 21.6748L24.0332 21.5928C24.1661 21.5012 24.278 21.381 24.3594 21.2402L25.0948 19.9541L25.0987 19.9453C25.2108 19.7546 25.2627 19.5347 25.2471 19.3145C25.2314 19.094 25.1494 18.8837 25.0117 18.7109L23.6319 17C23.5244 16.8667 23.4659 16.7005 23.4658 16.5293V13.4326C23.4658 13.2648 23.5224 13.1018 23.626 12.9697L24.9717 11.2549L24.9746 11.251C25.1124 11.0782 25.1944 10.8671 25.21 10.6465C25.2256 10.4263 25.1746 10.2063 25.0625 10.0156L25.0576 10.0078L24.3223 8.7207C24.2409 8.5801 24.1298 8.45966 23.9971 8.36816L23.8575 8.28711C23.6628 8.19174 23.4443 8.15645 23.2295 8.18555L23.2285 8.18457L21.0664 8.51562C20.8984 8.54122 20.7264 8.50858 20.5791 8.42383L17.8887 6.87598C17.7401 6.79049 17.6254 6.65595 17.5635 6.49609L16.7705 4.4502C16.6912 4.24483 16.5515 4.06717 16.3701 3.94238C16.234 3.84872 16.0789 3.78768 15.917 3.7627L15.7539 3.75H14.2461L14.083 3.7627ZM15 10.5439C15.8774 10.5439 16.7353 10.8045 17.4649 11.292C18.1944 11.7795 18.7629 12.4726 19.0987 13.2832C19.4343 14.0936 19.5226 14.9854 19.3516 15.8457C19.1804 16.7062 18.7571 17.4968 18.1367 18.1172C17.5163 18.7376 16.7258 19.1609 15.8653 19.332C15.0049 19.5031 14.1132 19.4147 13.3028 19.0791C12.4924 18.7433 11.7989 18.1747 11.3116 17.4453C10.8241 16.7158 10.5635 15.8579 10.5635 14.9805C10.5636 13.8039 11.0314 12.6757 11.8633 11.8438C12.6953 11.0118 13.8235 10.5439 15 10.5439ZM12.0635 14.9805C12.0635 15.5612 12.236 16.1294 12.5586 16.6123C12.8812 17.095 13.3397 17.4711 13.876 17.6934C14.4126 17.9156 15.0037 17.9736 15.5733 17.8604C16.1427 17.747 16.6656 17.4672 17.0762 17.0566C17.4867 16.6461 17.7666 16.1232 17.8799 15.5537C17.9932 14.9843 17.935 14.3939 17.7129 13.8574C17.4907 13.3209 17.1138 12.8617 16.6309 12.5391C16.1481 12.2166 15.5806 12.0439 15 12.0439C14.2213 12.0439 13.4745 12.3537 12.9239 12.9043C12.3732 13.4549 12.0636 14.2018 12.0635 14.9805Z" fill="#959595"/>
</g>
</svg>
