<svg width="24" height="24" viewBox="0 0 24 24" fill="none" xmlns="http://www.w3.org/2000/svg">
<mask id="mask0_77_3707" style="mask-type:alpha" maskUnits="userSpaceOnUse" x="0" y="0" width="24" height="24">
<rect width="24" height="24" fill="#D9D9D9"/>
</mask>
<g mask="url(#mask0_77_3707)">
<path d="M13.723 8.93606L18.8808 3.80356C19.0193 3.66506 19.1891 3.59481 19.3902 3.59281C19.5916 3.59097 19.7666 3.66439 19.9153 3.81306C20.0538 3.95156 20.123 4.12556 20.123 4.33506C20.123 4.54472 20.0538 4.71881 19.9153 4.85731L14.3558 10.4168C14.1749 10.5976 13.964 10.6881 13.723 10.6881C13.482 10.6881 13.2711 10.5976 13.0903 10.4168L10.3558 7.68231C10.2071 7.53364 10.1337 7.35797 10.1355 7.15531C10.1375 6.95281 10.2161 6.77722 10.3713 6.62856C10.5199 6.49006 10.6955 6.41981 10.898 6.41781C11.1007 6.41597 11.2763 6.48939 11.425 6.63806L13.723 8.93606ZM14.6712 20.6016C14.7032 20.6144 14.7321 20.6208 14.7578 20.6208C14.7834 20.6208 14.8123 20.6144 14.8443 20.6016L20.727 18.7803C20.6757 18.5535 20.5693 18.3795 20.4078 18.2583C20.2461 18.1371 20.0653 18.0766 19.8652 18.0766H14.9693C14.5321 18.0766 14.1609 18.0599 13.8558 18.0266C13.5506 17.9932 13.2371 17.9201 12.9152 17.8073L11.3463 17.2938C11.1436 17.2296 10.9983 17.1015 10.9105 16.9093C10.8227 16.717 10.8108 16.5195 10.875 16.3168C10.9392 16.1206 11.0632 15.9761 11.247 15.8833C11.431 15.7903 11.6243 15.7759 11.827 15.8401L13.127 16.2958C13.4295 16.392 13.7679 16.4602 14.1423 16.5006C14.5166 16.5409 15.0025 16.5662 15.6 16.5766H15.8652C15.8652 16.3291 15.8095 16.1156 15.698 15.9361C15.5865 15.7566 15.4398 15.6354 15.2578 15.5726L9.45575 13.4418C9.43658 13.4355 9.41892 13.4307 9.40275 13.4276C9.38675 13.4242 9.36917 13.4226 9.35 13.4226H7.5V18.5766L14.6712 20.6016ZM14.2807 22.0708L7.5 20.1266C7.38583 20.5406 7.15375 20.8729 6.80375 21.1236C6.45375 21.3742 6.08325 21.4996 5.69225 21.4996H4.30775C3.80908 21.4996 3.38308 21.323 3.02975 20.9698C2.67658 20.6165 2.5 20.1905 2.5 19.6918V13.7303C2.5 13.2316 2.67658 12.8057 3.02975 12.4526C3.38308 12.0994 3.80908 11.9228 4.30775 11.9228H9.34025C9.44425 11.9228 9.54975 11.9336 9.65675 11.9553C9.76375 11.9771 9.86408 12.0047 9.95775 12.0381L15.7845 14.1843C16.2383 14.3521 16.6152 14.6492 16.9152 15.0756C17.2153 15.5019 17.3652 16.0022 17.3652 16.5766H19.8652C20.5833 16.5766 21.1683 16.8083 21.6203 17.2718C22.0721 17.7351 22.298 18.3367 22.298 19.0766C22.298 19.3599 22.223 19.5881 22.073 19.7611C21.923 19.9342 21.6961 20.0714 21.3923 20.1726L15.325 22.0553C15.1608 22.1091 14.9884 22.1376 14.8077 22.1408C14.6269 22.1441 14.4512 22.1208 14.2807 22.0708ZM4 19.6918C4 19.7816 4.02883 19.8554 4.0865 19.9131C4.14417 19.9707 4.21792 19.9996 4.30775 19.9996H5.69225C5.78208 19.9996 5.85583 19.9756 5.9135 19.9276C5.97117 19.8794 6 19.8008 6 19.6918V13.4226H4.30775C4.21792 13.4226 4.14417 13.4515 4.0865 13.5093C4.02883 13.567 4 13.6406 4 13.7303V19.6918Z" fill="#D5D5D5"/>
</g>
</svg>
