<svg width="20" height="20" viewBox="0 0 20 20" fill="none" xmlns="http://www.w3.org/2000/svg">
<mask id="mask0_824_63662" style="mask-type:alpha" maskUnits="userSpaceOnUse" x="0" y="0" width="20" height="20">
<rect width="20" height="20" fill="#D9D9D9"/>
</mask>
<g mask="url(#mask0_824_63662)">
<path d="M6.18122 17.0837C5.81594 17.0837 5.49518 16.9685 5.21893 16.7383C4.94281 16.508 4.77268 16.2102 4.70851 15.8449L3.20851 7.67992C2.76948 7.73964 2.38677 7.62694 2.06038 7.3418C1.734 7.05652 1.5708 6.69541 1.5708 6.25846C1.5708 5.86416 1.71129 5.52652 1.99226 5.24555C2.27323 4.96457 2.61351 4.82409 3.01309 4.82409C3.40726 4.82409 3.74483 4.96457 4.0258 5.24555C4.30677 5.52652 4.44726 5.86416 4.44726 6.25846C4.44726 6.4368 4.41816 6.60395 4.35997 6.75992C4.30177 6.91589 4.21712 7.05534 4.10601 7.17825C4.38476 7.33214 4.66705 7.46006 4.95288 7.56201C5.23872 7.66409 5.5392 7.71513 5.85434 7.71513C6.50281 7.71513 7.09816 7.54096 7.64038 7.19263C8.18261 6.8443 8.61288 6.38756 8.93122 5.82242L9.32393 5.1045C9.09212 4.97839 8.90781 4.80506 8.77101 4.5845C8.6342 4.36395 8.5658 4.11527 8.5658 3.83846C8.5658 3.4443 8.70636 3.10673 8.98747 2.82575C9.26844 2.54478 9.60601 2.4043 10.0002 2.4043C10.3943 2.4043 10.7319 2.54478 11.0129 2.82575C11.294 3.10673 11.4346 3.4443 11.4346 3.83846C11.4346 4.11527 11.3661 4.36395 11.2293 4.5845C11.0925 4.80506 10.9082 4.97839 10.6764 5.1045L11.0691 5.82242C11.3875 6.38756 11.8177 6.8443 12.36 7.19263C12.9022 7.54096 13.4975 7.71513 14.146 7.71513C14.4611 7.71513 14.7616 7.66624 15.0475 7.56846C15.3333 7.47069 15.6156 7.34492 15.8943 7.19117C15.7832 7.06825 15.6986 6.92666 15.6404 6.76638C15.5822 6.6061 15.5531 6.4368 15.5531 6.25846C15.5531 5.86416 15.6936 5.52652 15.9746 5.24555C16.2555 4.96457 16.5931 4.82409 16.9873 4.82409C17.3868 4.82409 17.7271 4.96457 18.0081 5.24555C18.2891 5.52652 18.4296 5.86416 18.4296 6.25846C18.4296 6.69541 18.2664 7.05652 17.94 7.3418C17.6136 7.62694 17.2335 7.73964 16.7998 7.67992L15.2918 15.8449C15.2277 16.2049 15.0575 16.5014 14.7814 16.7343C14.5052 16.9672 14.1844 17.0837 13.8191 17.0837H6.18122ZM6.20205 15.8337H13.7983C13.857 15.8337 13.9118 15.8137 13.9625 15.7737C14.0133 15.7335 14.0441 15.6841 14.0548 15.6253L15.3208 8.78555C15.1305 8.83471 14.936 8.8777 14.7373 8.91451C14.5386 8.95145 14.3416 8.96992 14.146 8.96992C13.2763 8.96992 12.4771 8.74818 11.7485 8.30471C11.0199 7.86138 10.4371 7.26207 10.0002 6.5068C9.55781 7.2568 8.97233 7.85478 8.24372 8.30075C7.51511 8.74687 6.71865 8.96992 5.85434 8.96992C5.65879 8.96992 5.4617 8.95145 5.26309 8.91451C5.06434 8.8777 4.86983 8.83471 4.67955 8.78555L5.94559 15.6253C5.95629 15.6841 5.98705 15.7335 6.03788 15.7737C6.08858 15.8137 6.1433 15.8337 6.20205 15.8337Z" fill="#E9E9E9"/>
</g>
</svg>
