<svg width="20" height="20" viewBox="0 0 20 20" fill="none" xmlns="http://www.w3.org/2000/svg">
<mask id="mask0_705_6156" style="mask-type:alpha" maskUnits="userSpaceOnUse" x="0" y="0" width="20" height="20">
<rect width="20" height="20" fill="#D9D9D9"/>
</mask>
<g mask="url(#mask0_705_6156)">
<path d="M3.58971 16.25C3.16874 16.25 2.81242 16.1042 2.52075 15.8125C2.22909 15.5208 2.08325 15.1645 2.08325 14.7435V5.25646C2.08325 4.83549 2.22909 4.47917 2.52075 4.1875C2.81242 3.89583 3.16874 3.75 3.58971 3.75H16.4101C16.8311 3.75 17.1874 3.89583 17.4791 4.1875C17.7708 4.47917 17.9166 4.83549 17.9166 5.25646V14.7435C17.9166 15.1645 17.7708 15.5208 17.4791 15.8125C17.1874 16.1042 16.8311 16.25 16.4101 16.25H3.58971ZM16.6666 6.20187L10.4053 10.21C10.3413 10.2462 10.2751 10.2748 10.2066 10.2956C10.1383 10.3165 10.0694 10.3269 9.99992 10.3269C9.93047 10.3269 9.86159 10.3165 9.79325 10.2956C9.72478 10.2748 9.65853 10.2462 9.5945 10.21L3.33325 6.20187V14.7435C3.33325 14.8184 3.35728 14.8799 3.40534 14.9279C3.45339 14.976 3.51485 15 3.58971 15H16.4101C16.485 15 16.5464 14.976 16.5945 14.9279C16.6426 14.8799 16.6666 14.8184 16.6666 14.7435V6.20187ZM9.99992 9.16667L16.5385 5H3.46138L9.99992 9.16667ZM3.33325 6.39417V5.44146V5.46625V5.43979V6.39417Z" fill="#4D4B4E"/>
</g>
</svg>
