<svg width="24" height="24" viewBox="0 0 24 24" fill="none" xmlns="http://www.w3.org/2000/svg">
<path d="M16.6647 19.3179C15.7601 20.215 14.7724 20.0734 13.8217 19.6485C12.8156 19.2141 11.8925 19.1952 10.831 19.6485C9.5018 20.2339 8.80028 20.064 8.00645 19.3179C3.50196 14.568 4.16656 7.33445 9.28026 7.07004C10.5264 7.13614 11.3941 7.76884 12.1233 7.8255C13.2125 7.59886 14.2555 6.94728 15.4186 7.03227C16.8124 7.14559 17.8646 7.71218 18.5569 8.73205C15.677 10.4979 16.3601 14.3791 19 15.4651C18.4739 16.8816 17.7908 18.2886 16.6554 19.3274L16.6647 19.3179ZM12.031 7.01338C11.8925 4.90754 13.5632 3.16998 15.4832 3C15.7509 5.43636 13.3232 7.24946 12.031 7.01338Z" fill="white"/>
</svg>
