<svg width="22" height="22" viewBox="0 0 22 22" fill="none" xmlns="http://www.w3.org/2000/svg">
<mask id="mask0_146_8771" style="mask-type:alpha" maskUnits="userSpaceOnUse" x="0" y="0" width="22" height="22">
<rect width="22" height="22" fill="#D9D9D9"/>
</mask>
<g mask="url(#mask0_146_8771)">
<path d="M11.0001 7.33317C9.99172 7.33317 9.12852 7.6922 8.41047 8.41025C7.69241 9.12831 7.33338 9.9915 7.33338 10.9998C7.33338 11.7284 7.52879 12.3933 7.91959 12.9945C8.31024 13.5957 8.83763 14.0449 9.50176 14.3422C9.68158 14.4292 9.81083 14.5616 9.88951 14.7396C9.96819 14.9177 9.9688 15.0967 9.89134 15.2763C9.81373 15.4373 9.69586 15.5596 9.53774 15.643C9.37977 15.7266 9.22027 15.7295 9.05924 15.6519C8.12027 15.2582 7.36868 14.6401 6.80447 13.7975C6.24041 12.9548 5.95838 12.0222 5.95838 10.9998C5.95838 9.60131 6.44903 8.4114 7.43032 7.43011C8.41161 6.44882 9.60152 5.95817 11.0001 5.95817C12.026 5.95817 12.9641 6.2402 13.8144 6.80425C14.6647 7.36846 15.2819 8.12654 15.6661 9.0785C15.7344 9.23938 15.7277 9.40033 15.6459 9.56136C15.5642 9.72239 15.4429 9.83697 15.282 9.90511C15.0963 9.98272 14.9135 9.97982 14.7336 9.8964C14.5538 9.81298 14.4204 9.67839 14.3335 9.49261C14.0362 8.82864 13.587 8.3027 12.9858 7.9148C12.3848 7.52705 11.7228 7.33317 11.0001 7.33317ZM11.0001 3.6665C8.95283 3.6665 7.2188 4.37692 5.79797 5.79775C4.37713 7.21859 3.66672 8.95262 3.66672 10.9998C3.66672 12.9837 4.32718 14.6689 5.64809 16.0557C6.96901 17.4425 8.61084 18.1922 10.5736 18.305C10.7685 18.3238 10.9365 18.406 11.0775 18.5518C11.2187 18.6975 11.2845 18.868 11.2751 19.0631C11.2656 19.258 11.1951 19.4204 11.0635 19.5503C10.9318 19.6801 10.7685 19.7404 10.5736 19.7311C9.40528 19.684 8.31872 19.4154 7.3139 18.9253C6.30924 18.4354 5.43283 17.7932 4.68468 16.9987C3.93668 16.2043 3.35085 15.2905 2.9272 14.2574C2.50354 13.2245 2.29172 12.1386 2.29172 10.9998C2.29172 9.79641 2.52058 8.66501 2.9783 7.60565C3.43602 6.54614 4.05684 5.62443 4.84074 4.84052C5.62464 4.05662 6.54635 3.43581 7.60586 2.97809C8.66522 2.52037 9.79662 2.2915 11.0001 2.2915C13.287 2.2915 15.2866 3.08389 16.9989 4.66865C18.7111 6.25341 19.6219 8.21867 19.7313 10.5644C19.7501 10.75 19.6936 10.9102 19.5619 11.0448C19.4304 11.1794 19.2671 11.2513 19.072 11.2606C18.8769 11.2701 18.7026 11.2052 18.5493 11.0658C18.3959 10.9267 18.3098 10.7595 18.291 10.5644C18.15 8.68403 17.3811 7.06428 15.9844 5.70517C14.5877 4.34606 12.9263 3.6665 11.0001 3.6665ZM17.7799 19.144L14.3053 15.6748L13.7235 17.4429C13.653 17.6392 13.5197 17.735 13.3233 17.7302C13.1272 17.7255 12.9968 17.625 12.9322 17.4287L11.2258 11.7455C11.1764 11.5893 11.2116 11.4511 11.3314 11.3312C11.4514 11.2114 11.5895 11.1762 11.7458 11.2256L17.4289 12.9319C17.6252 12.9966 17.7257 13.127 17.7304 13.3231C17.7352 13.5194 17.6394 13.6528 17.4431 13.7233L15.6751 14.3051L19.1584 17.7797C19.3535 17.9747 19.451 18.202 19.451 18.4617C19.451 18.7215 19.3535 18.9489 19.1584 19.144C18.9633 19.3391 18.7335 19.4366 18.4691 19.4366C18.2046 19.4366 17.9749 19.3391 17.7799 19.144Z" fill="#111111"/>
</g>
</svg>
