<svg width="20" height="20" viewBox="0 0 20 20" fill="none" xmlns="http://www.w3.org/2000/svg">
<mask id="mask0_77_3560" style="mask-type:alpha" maskUnits="userSpaceOnUse" x="0" y="0" width="20" height="20">
<rect x="0.5" y="0.5" width="19" height="19" fill="#D9D9D9" stroke="#959595"/>
</mask>
<g mask="url(#mask0_77_3560)">
<path d="M4.16699 2.5127H15.833C16.288 2.5127 16.6779 2.67398 17.002 2.99805C17.326 3.32211 17.4873 3.712 17.4873 4.16699V9.16699C17.4872 9.39981 17.4091 9.59476 17.252 9.75195C17.0948 9.90914 16.8998 9.98723 16.667 9.9873C16.4342 9.9873 16.2392 9.909 16.082 9.75195C15.9248 9.59476 15.8458 9.39981 15.8457 9.16699V4.1543H4.1543V15.8457H9.16699C9.39981 15.8458 9.59476 15.9248 9.75195 16.082C9.909 16.2392 9.9873 16.4342 9.9873 16.667C9.98723 16.8998 9.90914 17.0948 9.75195 17.252C9.59476 17.4091 9.39981 17.4872 9.16699 17.4873H4.16699C3.712 17.4873 3.32211 17.326 2.99805 17.002C2.67398 16.6779 2.5127 16.288 2.5127 15.833V4.16699C2.5127 3.712 2.67398 3.32211 2.99805 2.99805C3.32211 2.67398 3.712 2.5127 4.16699 2.5127ZM8.08301 7.2832C8.31614 7.2832 8.508 7.35858 8.6582 7.50879L15.8242 14.6543L15.8457 14.6758V12.5C15.8457 12.267 15.9248 12.0723 16.082 11.915C16.2393 11.7579 16.4341 11.6787 16.667 11.6787C16.8998 11.6788 17.0948 11.7578 17.252 11.915C17.4091 12.0723 17.4873 12.2671 17.4873 12.5V16.667C17.4872 16.8998 17.4091 17.0948 17.252 17.252C17.0948 17.4091 16.8998 17.4872 16.667 17.4873H12.5C12.2671 17.4873 12.0723 17.4091 11.915 17.252C11.7578 17.0948 11.6788 16.8998 11.6787 16.667C11.6787 16.4341 11.7579 16.2393 11.915 16.082C12.0723 15.9248 12.267 15.8457 12.5 15.8457H14.6973L14.6758 15.8242L7.50879 8.6582C7.35849 8.5079 7.27939 8.31979 7.27246 8.09375C7.26562 7.86814 7.34448 7.6731 7.50879 7.50879C7.65892 7.35865 7.85002 7.28327 8.08301 7.2832Z" fill="#959595" stroke="#959595" stroke-width="0.025"/>
</g>
</svg>
