<svg width="20" height="20" viewBox="0 0 20 20" fill="none" xmlns="http://www.w3.org/2000/svg">
<mask id="mask0_678_5503" style="mask-type:alpha" maskUnits="userSpaceOnUse" x="0" y="0" width="20" height="20">
<rect width="20" height="20" fill="#D9D9D9"/>
</mask>
<g mask="url(#mask0_678_5503)">
<path d="M10 17.9166C8.9049 17.9166 7.87573 17.7088 6.91254 17.2933C5.94935 16.8777 5.1115 16.3137 4.399 15.6014C3.6865 14.889 3.12247 14.0513 2.70692 13.0883C2.29122 12.1252 2.08337 11.0962 2.08337 10.0014C2.08337 8.90638 2.29115 7.87714 2.70671 6.91367C3.12226 5.9502 3.68622 5.11214 4.39858 4.3995C5.11094 3.68686 5.94865 3.12263 6.91171 2.70679C7.87476 2.2911 8.90372 2.08325 9.99858 2.08325C11.0936 2.08325 12.1228 2.2911 13.0863 2.70679C14.0498 3.12235 14.8878 3.68638 15.6005 4.39888C16.3131 5.11138 16.8773 5.94922 17.2932 6.91242C17.7089 7.87561 17.9167 8.90478 17.9167 9.99992V11.016C17.9167 11.7767 17.6555 12.4225 17.1332 12.9535C16.6108 13.4844 15.9692 13.7499 15.2084 13.7499C14.7168 13.7499 14.2612 13.6297 13.8413 13.3893C13.4214 13.1489 13.0897 12.8182 12.8461 12.3972C12.4861 12.8268 12.0607 13.1596 11.5698 13.3958C11.0789 13.6319 10.5556 13.7499 10 13.7499C8.95949 13.7499 8.07435 13.3851 7.34462 12.6553C6.6149 11.9256 6.25004 11.0405 6.25004 9.99992C6.25004 8.95936 6.6149 8.07422 7.34462 7.3445C8.07435 6.61478 8.95949 6.24992 10 6.24992C11.0406 6.24992 11.9257 6.61478 12.6555 7.3445C13.3852 8.07422 13.75 8.95936 13.75 9.99992V11.016C13.75 11.4251 13.8908 11.7748 14.1723 12.0649C14.4539 12.3549 14.7992 12.4999 15.2084 12.4999C15.6175 12.4999 15.9629 12.3549 16.2444 12.0649C16.5259 11.7748 16.6667 11.4251 16.6667 11.016V9.99992C16.6667 8.13881 16.0209 6.56242 14.7292 5.27075C13.4375 3.97909 11.8612 3.33325 10 3.33325C8.13893 3.33325 6.56254 3.97909 5.27087 5.27075C3.97921 6.56242 3.33337 8.13881 3.33337 9.99992C3.33337 11.861 3.97921 13.4374 5.27087 14.7291C6.56254 16.0208 8.13893 16.6666 10 16.6666H13.5417C13.7188 16.6666 13.8673 16.7265 13.9871 16.8464C14.1068 16.9662 14.1667 17.1147 14.1667 17.2918C14.1667 17.469 14.1068 17.6174 13.9871 17.737C13.8673 17.8567 13.7188 17.9166 13.5417 17.9166H10ZM10 12.4999C10.6945 12.4999 11.2848 12.2569 11.7709 11.7708C12.257 11.2846 12.5 10.6944 12.5 9.99992C12.5 9.30547 12.257 8.7152 11.7709 8.22908C11.2848 7.74297 10.6945 7.49992 10 7.49992C9.3056 7.49992 8.71532 7.74297 8.22921 8.22908C7.7431 8.7152 7.50004 9.30547 7.50004 9.99992C7.50004 10.6944 7.7431 11.2846 8.22921 11.7708C8.71532 12.2569 9.3056 12.4999 10 12.4999Z" fill="#4D4B4E"/>
</g>
</svg>
