<svg width="20" height="20" viewBox="0 0 20 20" fill="none" xmlns="http://www.w3.org/2000/svg">
<mask id="mask0_47_4197" style="mask-type:alpha" maskUnits="userSpaceOnUse" x="0" y="0" width="20" height="20">
<rect width="20" height="20" fill="#D9D9D9"/>
</mask>
<g mask="url(#mask0_47_4197)">
<path d="M14.8877 10.609C15.0651 10.609 15.2137 10.5491 15.3334 10.4294C15.453 10.3098 15.5127 10.1613 15.5127 9.98396C15.5127 9.8066 15.453 9.65813 15.3334 9.53854C15.2137 9.41882 15.0651 9.35896 14.8877 9.35896H12.3559C12.1785 9.35896 12.03 9.41882 11.9102 9.53854C11.7907 9.65813 11.7309 9.8066 11.7309 9.98396C11.7309 10.1613 11.7907 10.3098 11.9102 10.4294C12.03 10.5491 12.1785 10.609 12.3559 10.609H14.8877ZM14.8877 8.20521C15.0651 8.20521 15.2137 8.14535 15.3334 8.02562C15.453 7.90604 15.5127 7.75757 15.5127 7.58021C15.5127 7.40285 15.453 7.25431 15.3334 7.13458C15.2137 7.015 15.0651 6.95521 14.8877 6.95521H12.3559C12.1785 6.95521 12.03 7.015 11.9102 7.13458C11.7907 7.25431 11.7309 7.40285 11.7309 7.58021C11.7309 7.75757 11.7907 7.90604 11.9102 8.02562C12.03 8.14535 12.1785 8.20521 12.3559 8.20521H14.8877ZM7.53212 10.9615C7.05351 10.9615 6.63414 10.9999 6.274 11.0769C5.914 11.1538 5.59455 11.2762 5.31567 11.444C5.0615 11.5924 4.86872 11.7585 4.73733 11.9423C4.6058 12.126 4.54004 12.3231 4.54004 12.5335C4.54004 12.679 4.59587 12.8005 4.70754 12.8981C4.81921 12.9959 4.95733 13.0448 5.12192 13.0448H9.94233C10.1069 13.0448 10.245 12.9924 10.3565 12.8877C10.4682 12.7831 10.524 12.6539 10.524 12.5C10.524 12.3119 10.4596 12.1295 10.3309 11.9527C10.2021 11.7759 10.008 11.6063 9.74837 11.444C9.46962 11.2762 9.15018 11.1538 8.79004 11.0769C8.43004 10.9999 8.01074 10.9615 7.53212 10.9615ZM7.53212 9.87187C7.93699 9.87187 8.28122 9.73 8.56483 9.44625C8.84858 9.16264 8.99046 8.8184 8.99046 8.41354C8.99046 8.00854 8.84858 7.66424 8.56483 7.38063C8.28122 7.09701 7.93699 6.95521 7.53212 6.95521C7.12726 6.95521 6.78296 7.09701 6.49921 7.38063C6.2156 7.66424 6.07379 8.00854 6.07379 8.41354C6.07379 8.8184 6.2156 9.16264 6.49921 9.44625C6.78296 9.73 7.12726 9.87187 7.53212 9.87187ZM3.58983 16.25C3.16886 16.25 2.81254 16.1042 2.52087 15.8125C2.22921 15.5208 2.08337 15.1645 2.08337 14.7435V5.25646C2.08337 4.83549 2.22921 4.47917 2.52087 4.1875C2.81254 3.89583 3.16886 3.75 3.58983 3.75H16.4102C16.8312 3.75 17.1875 3.89583 17.4792 4.1875C17.7709 4.47917 17.9167 4.83549 17.9167 5.25646V14.7435C17.9167 15.1645 17.7709 15.5208 17.4792 15.8125C17.1875 16.1042 16.8312 16.25 16.4102 16.25H3.58983ZM3.58983 15H16.4102C16.4744 15 16.5332 14.9733 16.5865 14.9198C16.64 14.8665 16.6667 14.8077 16.6667 14.7435V5.25646C16.6667 5.19229 16.64 5.13354 16.5865 5.08021C16.5332 5.02674 16.4744 5 16.4102 5H3.58983C3.52567 5 3.46692 5.02674 3.41358 5.08021C3.36011 5.13354 3.33337 5.19229 3.33337 5.25646V14.7435C3.33337 14.8077 3.36011 14.8665 3.41358 14.9198C3.46692 14.9733 3.52567 15 3.58983 15Z" fill="#4D4B4E"/>
</g>
</svg>
