<svg width="20" height="20" viewBox="0 0 20 20" fill="none" xmlns="http://www.w3.org/2000/svg">
<mask id="mask0_380_17594" style="mask-type:alpha" maskUnits="userSpaceOnUse" x="0" y="0" width="20" height="20">
<rect width="20" height="20" fill="#D9D9D9"/>
</mask>
<g mask="url(#mask0_380_17594)">
<path d="M1.875 4.16699V2.54845C1.875 2.13415 2.0225 1.77949 2.3175 1.48449C2.6125 1.18949 2.96715 1.04199 3.38146 1.04199H5C5.17708 1.04199 5.32549 1.10192 5.44521 1.22178C5.56507 1.34165 5.625 1.49012 5.625 1.6672C5.625 1.84442 5.56507 1.99283 5.44521 2.11241C5.32549 2.23213 5.17708 2.29199 5 2.29199H3.38146C3.3066 2.29199 3.24514 2.31602 3.19708 2.36408C3.14903 2.41213 3.125 2.47359 3.125 2.54845V4.16699C3.125 4.34408 3.06507 4.49248 2.94521 4.6122C2.82535 4.73206 2.67687 4.79199 2.49979 4.79199C2.32257 4.79199 2.17417 4.73206 2.05458 4.6122C1.93486 4.49248 1.875 4.34408 1.875 4.16699ZM16.875 4.16699V2.54845C16.875 2.47359 16.851 2.41213 16.8029 2.36408C16.7549 2.31602 16.6934 2.29199 16.6185 2.29199H15C14.8229 2.29199 14.6745 2.23206 14.5548 2.1122C14.4349 1.99234 14.375 1.84387 14.375 1.66678C14.375 1.48956 14.4349 1.34116 14.5548 1.22158C14.6745 1.10185 14.8229 1.04199 15 1.04199H16.6185C17.0328 1.04199 17.3875 1.18949 17.6825 1.48449C17.9775 1.77949 18.125 2.13415 18.125 2.54845V4.16699C18.125 4.34408 18.0651 4.49248 17.9452 4.6122C17.8253 4.73206 17.6769 4.79199 17.4998 4.79199C17.3226 4.79199 17.1742 4.73206 17.0546 4.6122C16.9349 4.49248 16.875 4.34408 16.875 4.16699ZM1.875 17.4522V15.8337C1.875 15.6566 1.93493 15.5082 2.05479 15.3885C2.17465 15.2686 2.32313 15.2087 2.50021 15.2087C2.67743 15.2087 2.82583 15.2686 2.94542 15.3885C3.06514 15.5082 3.125 15.6566 3.125 15.8337V17.4522C3.125 17.5271 3.14903 17.5885 3.19708 17.6366C3.24514 17.6846 3.3066 17.7087 3.38146 17.7087H5C5.17708 17.7087 5.32549 17.7686 5.44521 17.8885C5.56507 18.0083 5.625 18.1568 5.625 18.3339C5.625 18.5111 5.56507 18.6595 5.44521 18.7791C5.32549 18.8988 5.17708 18.9587 5 18.9587H3.38146C2.96715 18.9587 2.6125 18.8112 2.3175 18.5162C2.0225 18.2212 1.875 17.8665 1.875 17.4522ZM16.6185 18.9587H15C14.8229 18.9587 14.6745 18.8987 14.5548 18.7789C14.4349 18.659 14.375 18.5105 14.375 18.3335C14.375 18.1562 14.4349 18.0078 14.5548 17.8882C14.6745 17.7685 14.8229 17.7087 15 17.7087H16.6185C16.6934 17.7087 16.7549 17.6846 16.8029 17.6366C16.851 17.5885 16.875 17.5271 16.875 17.4522V15.8337C16.875 15.6566 16.9349 15.5082 17.0548 15.3885C17.1747 15.2686 17.3231 15.2087 17.5002 15.2087C17.6774 15.2087 17.8258 15.2686 17.9454 15.3885C18.0651 15.5082 18.125 15.6566 18.125 15.8337V17.4522C18.125 17.8665 17.9775 18.2212 17.6825 18.5162C17.3875 18.8112 17.0328 18.9587 16.6185 18.9587ZM5.625 14.9522C5.625 15.0164 5.65174 15.0751 5.70521 15.1285C5.75854 15.1819 5.81729 15.2087 5.88146 15.2087H14.1185C14.1827 15.2087 14.2415 15.1819 14.2948 15.1285C14.3483 15.0751 14.375 15.0164 14.375 14.9522V5.04845C14.375 4.98428 14.3483 4.92553 14.2948 4.8722C14.2415 4.81873 14.1827 4.79199 14.1185 4.79199H5.88146C5.81729 4.79199 5.75854 4.81873 5.70521 4.8722C5.65174 4.92553 5.625 4.98428 5.625 5.04845V14.9522ZM5.88146 16.4587C5.46049 16.4587 5.10417 16.3128 4.8125 16.0212C4.52083 15.7295 4.375 15.3732 4.375 14.9522V5.04845C4.375 4.62748 4.52083 4.27116 4.8125 3.97949C5.10417 3.68783 5.46049 3.54199 5.88146 3.54199H14.1185C14.5395 3.54199 14.8958 3.68783 15.1875 3.97949C15.4792 4.27116 15.625 4.62748 15.625 5.04845V14.9522C15.625 15.3732 15.4792 15.7295 15.1875 16.0212C14.8958 16.3128 14.5395 16.4587 14.1185 16.4587H5.88146ZM8.33333 8.12533H11.6667C11.8438 8.12533 11.9922 8.0654 12.1119 7.94553C12.2317 7.82567 12.2917 7.6772 12.2917 7.50012C12.2917 7.3229 12.2317 7.17449 12.1119 7.05491C11.9922 6.93519 11.8438 6.87533 11.6667 6.87533H8.33333C8.15625 6.87533 8.00785 6.93526 7.88812 7.05512C7.76826 7.17498 7.70833 7.32345 7.70833 7.50053C7.70833 7.67776 7.76826 7.82616 7.88812 7.94574C8.00785 8.06546 8.15625 8.12533 8.33333 8.12533ZM8.33333 10.6253H11.6667C11.8438 10.6253 11.9922 10.5654 12.1119 10.4455C12.2317 10.3257 12.2917 10.1772 12.2917 10.0001C12.2917 9.8229 12.2317 9.67449 12.1119 9.55491C11.9922 9.43519 11.8438 9.37533 11.6667 9.37533H8.33333C8.15625 9.37533 8.00785 9.43526 7.88812 9.55512C7.76826 9.67498 7.70833 9.82345 7.70833 10.0005C7.70833 10.1778 7.76826 10.3262 7.88812 10.4457C8.00785 10.5655 8.15625 10.6253 8.33333 10.6253ZM8.33333 13.1253H11.6667C11.8438 13.1253 11.9922 13.0654 12.1119 12.9455C12.2317 12.8257 12.2917 12.6772 12.2917 12.5001C12.2917 12.3229 12.2317 12.1745 12.1119 12.0549C11.9922 11.9352 11.8438 11.8753 11.6667 11.8753H8.33333C8.15625 11.8753 8.00785 11.9353 7.88812 12.0551C7.76826 12.175 7.70833 12.3235 7.70833 12.5005C7.70833 12.6778 7.76826 12.8262 7.88812 12.9457C8.00785 13.0655 8.15625 13.1253 8.33333 13.1253ZM5.625 14.9522V4.79199V15.2087V14.9522Z" fill="#E9E9E9"/>
</g>
</svg>
