<svg width="20" height="20" viewBox="0 0 20 20" fill="none" xmlns="http://www.w3.org/2000/svg">
<mask id="mask0_57_3850" style="mask-type:alpha" maskUnits="userSpaceOnUse" x="0" y="0" width="20" height="20">
<rect width="20" height="20" fill="#D9D9D9"/>
</mask>
<g mask="url(#mask0_57_3850)">
<path d="M16.2002 17.0834C14.6298 17.0834 13.052 16.7183 11.467 15.988C9.88218 15.2577 8.426 14.2276 7.0985 12.8976C5.77114 11.5674 4.74232 10.1112 4.01204 8.52883C3.28176 6.94661 2.91663 5.37029 2.91663 3.79987C2.91663 3.54751 2.99996 3.33723 3.16663 3.16904C3.33329 3.00084 3.54163 2.91675 3.79163 2.91675H6.50954C6.71996 2.91675 6.90558 2.98543 7.06642 3.12279C7.22725 3.26001 7.32954 3.4296 7.37329 3.63154L7.851 6.08341C7.88406 6.31091 7.87711 6.5064 7.83017 6.66987C7.78308 6.83335 7.69864 6.97064 7.57683 7.08175L5.65225 8.95529C5.96197 9.52251 6.31586 10.0591 6.71392 10.5651C7.11183 11.0709 7.54267 11.554 8.00642 12.0145C8.46364 12.4718 8.94975 12.8965 9.46475 13.2886C9.97975 13.6807 10.5359 14.0456 11.1331 14.3832L13.0031 12.497C13.1335 12.3613 13.2914 12.2661 13.4768 12.2115C13.6621 12.1571 13.8547 12.1438 14.0545 12.1715L16.3685 12.6428C16.5789 12.6983 16.7507 12.8057 16.8837 12.9649C17.0168 13.124 17.0833 13.3046 17.0833 13.5065V16.2084C17.0833 16.4584 16.9992 16.6667 16.831 16.8334C16.6628 17.0001 16.4525 17.0834 16.2002 17.0834ZM5.06079 7.77258L6.54808 6.34946C6.57475 6.32807 6.59211 6.29869 6.60017 6.26133C6.60822 6.22397 6.6069 6.18925 6.59621 6.15716L6.23392 4.29487C6.22322 4.25223 6.20454 4.22022 6.17788 4.19883C6.15121 4.17744 6.11649 4.16675 6.07371 4.16675H4.29163C4.25954 4.16675 4.23281 4.17744 4.21142 4.19883C4.19017 4.22022 4.17954 4.24696 4.17954 4.27904C4.22218 4.84848 4.31538 5.42696 4.45913 6.01446C4.60274 6.6021 4.80329 7.18814 5.06079 7.77258ZM12.3108 14.9745C12.8632 15.232 13.4393 15.4288 14.0391 15.5651C14.6391 15.7012 15.1998 15.7821 15.721 15.8078C15.7531 15.8078 15.7798 15.7971 15.8012 15.7757C15.8226 15.7543 15.8333 15.7276 15.8333 15.6955V13.9424C15.8333 13.8996 15.8226 13.8649 15.8012 13.8382C15.7798 13.8115 15.7478 13.7929 15.7052 13.7822L13.9552 13.4263C13.9231 13.4156 13.895 13.4143 13.871 13.4224C13.847 13.4304 13.8216 13.4478 13.7948 13.4745L12.3108 14.9745Z" fill="#4D4B4E"/>
</g>
</svg>
