<svg width="24" height="24" viewBox="0 0 24 24" fill="none" xmlns="http://www.w3.org/2000/svg">
<mask id="mask0_746_18444" style="mask-type:alpha" maskUnits="userSpaceOnUse" x="0" y="0" width="24" height="24">
<rect width="24" height="24" fill="#D9D9D9"/>
</mask>
<g mask="url(#mask0_746_18444)">
<path d="M12.5962 11.6424C13.0217 11.1795 13.3364 10.6481 13.5404 10.0481C13.7443 9.44813 13.8462 8.82955 13.8462 8.19238C13.8462 7.55522 13.7443 6.93663 13.5404 6.33663C13.3364 5.73663 13.0217 5.20522 12.5962 4.74238C13.4744 4.84372 14.2035 5.22288 14.7837 5.87988C15.3637 6.53705 15.6537 7.30788 15.6537 8.19238C15.6537 9.07705 15.3637 9.84788 14.7837 10.5049C14.2035 11.1619 13.4744 11.541 12.5962 11.6424ZM17.4594 19.3079C17.5851 19.0784 17.6809 18.8341 17.7469 18.5751C17.8131 18.3161 17.8462 18.054 17.8462 17.7886V16.9616C17.8462 16.4165 17.7353 15.8978 17.5134 15.4056C17.2916 14.9135 16.9769 14.4911 16.5692 14.1386C17.3359 14.3938 18.0416 14.738 18.6864 15.1714C19.3313 15.6047 19.6537 16.2015 19.6537 16.9616V17.7886C19.6537 18.2103 19.5059 18.569 19.2104 18.8646C18.9149 19.1601 18.5564 19.3079 18.1347 19.3079H17.4594ZM19.6537 10.7501H18.4037C18.1912 10.7501 18.0131 10.6782 17.8694 10.5344C17.7256 10.3905 17.6537 10.2124 17.6537 9.99988C17.6537 9.78722 17.7256 9.60913 17.8694 9.46563C18.0131 9.32197 18.1912 9.25013 18.4037 9.25013H19.6537V8.00013C19.6537 7.78763 19.7256 7.60955 19.8694 7.46588C20.0133 7.32205 20.1915 7.25013 20.4042 7.25013C20.6167 7.25013 20.7948 7.32205 20.9384 7.46588C21.0819 7.60955 21.1537 7.78763 21.1537 8.00013V9.25013H22.4037C22.6162 9.25013 22.7944 9.32205 22.9382 9.46588C23.0819 9.60972 23.1537 9.78788 23.1537 10.0004C23.1537 10.213 23.0819 10.3911 22.9382 10.5346C22.7944 10.6783 22.6162 10.7501 22.4037 10.7501H21.1537V12.0001C21.1537 12.2126 21.0818 12.3907 20.9379 12.5344C20.7941 12.6782 20.6159 12.7501 20.4034 12.7501C20.1908 12.7501 20.0127 12.6782 19.8692 12.5344C19.7255 12.3907 19.6537 12.2126 19.6537 12.0001V10.7501ZM8.34619 11.6924C7.38369 11.6924 6.55969 11.3497 5.87419 10.6644C5.18886 9.97888 4.84619 9.15488 4.84619 8.19238C4.84619 7.22988 5.18886 6.40597 5.87419 5.72063C6.55969 5.03513 7.38369 4.69238 8.34619 4.69238C9.30869 4.69238 10.1326 5.03513 10.8179 5.72063C11.5034 6.40597 11.8462 7.22988 11.8462 8.19238C11.8462 9.15488 11.5034 9.97888 10.8179 10.6644C10.1326 11.3497 9.30869 11.6924 8.34619 11.6924ZM0.846191 17.7886V17.0846C0.846191 16.595 0.979191 16.1415 1.24519 15.7241C1.51119 15.3068 1.86661 14.986 2.31144 14.7616C3.29994 14.2771 4.29711 13.9137 5.30294 13.6714C6.30861 13.429 7.32302 13.3079 8.34619 13.3079C9.36919 13.3079 10.3836 13.429 11.3894 13.6714C12.3951 13.9137 13.3922 14.2771 14.3807 14.7616C14.8255 14.986 15.1809 15.3068 15.4469 15.7241C15.7131 16.1415 15.8462 16.595 15.8462 17.0846V17.7886C15.8462 18.2103 15.6984 18.569 15.4029 18.8646C15.1074 19.1601 14.7488 19.3079 14.3269 19.3079H2.36544C1.94361 19.3079 1.58494 19.1601 1.28944 18.8646C0.993941 18.569 0.846191 18.2103 0.846191 17.7886ZM8.34619 10.1924C8.89619 10.1924 9.36703 9.99655 9.75869 9.60488C10.1504 9.21322 10.3462 8.74238 10.3462 8.19238C10.3462 7.64238 10.1504 7.17155 9.75869 6.77988C9.36703 6.38822 8.89619 6.19238 8.34619 6.19238C7.79619 6.19238 7.32536 6.38822 6.93369 6.77988C6.54202 7.17155 6.34619 7.64238 6.34619 8.19238C6.34619 8.74238 6.54202 9.21322 6.93369 9.60488C7.32536 9.99655 7.79619 10.1924 8.34619 10.1924ZM2.34619 17.8079H14.3462V17.0846C14.3462 16.8821 14.2875 16.6946 14.1702 16.5221C14.0529 16.3498 13.8935 16.2091 13.6922 16.1001C12.8307 15.6758 11.9523 15.3543 11.0569 15.1356C10.1614 14.9171 9.25786 14.8079 8.34619 14.8079C7.43436 14.8079 6.53078 14.9171 5.63544 15.1356C4.73994 15.3543 3.86144 15.6758 2.99994 16.1001C2.79861 16.2091 2.63936 16.3498 2.52219 16.5221C2.40486 16.6946 2.34619 16.8821 2.34619 17.0846V17.8079Z" fill="#D5D5D5"/>
</g>
</svg>
