<svg width="20" height="20" viewBox="0 0 20 20" fill="none" xmlns="http://www.w3.org/2000/svg">
<mask id="mask0_394_31164" style="mask-type:alpha" maskUnits="userSpaceOnUse" x="0" y="0" width="20" height="20">
<rect width="20" height="20" fill="#D9D9D9"/>
</mask>
<g mask="url(#mask0_394_31164)">
<path d="M7.39758 17.0833H4.16675C3.82064 17.0833 3.52578 16.9615 3.28216 16.7179C3.03855 16.4743 2.91675 16.1794 2.91675 15.8333V12.6025C3.4873 12.533 3.97716 12.2959 4.38633 11.891C4.7955 11.486 5.00008 10.9946 5.00008 10.4166C5.00008 9.83872 4.7955 9.34726 4.38633 8.94226C3.97716 8.5374 3.4873 8.30025 2.91675 8.23081V4.99997C2.91675 4.65386 3.03855 4.359 3.28216 4.11539C3.52578 3.87178 3.82064 3.74997 4.16675 3.74997H7.50008C7.57494 3.22011 7.80703 2.78317 8.19633 2.43914C8.58578 2.09511 9.04814 1.9231 9.58342 1.9231C10.1187 1.9231 10.5811 2.09511 10.9705 2.43914C11.3598 2.78317 11.5919 3.22011 11.6667 3.74997H15.0001C15.3462 3.74997 15.6411 3.87178 15.8847 4.11539C16.1283 4.359 16.2501 4.65386 16.2501 4.99997V8.3333C16.7799 8.40817 17.2169 8.64025 17.5609 9.02955C17.9049 9.419 18.077 9.88136 18.077 10.4166C18.077 10.9519 17.9049 11.4143 17.5609 11.8037C17.2169 12.193 16.7799 12.4251 16.2501 12.5V15.8333C16.2501 16.1794 16.1283 16.4743 15.8847 16.7179C15.6411 16.9615 15.3462 17.0833 15.0001 17.0833H11.7692C11.6945 16.485 11.4504 15.9882 11.037 15.5929C10.6235 15.1976 10.139 15 9.58342 15C9.02786 15 8.54335 15.1976 8.12987 15.5929C7.7164 15.9882 7.4723 16.485 7.39758 17.0833ZM4.16675 15.8333H6.42633C6.71161 15.0983 7.16223 14.5673 7.77821 14.2404C8.39404 13.9134 8.99578 13.75 9.58342 13.75C10.1711 13.75 10.7728 13.9134 11.3886 14.2404C12.0046 14.5673 12.4552 15.0983 12.7405 15.8333H15.0001V11.2981H16.0257C16.281 11.266 16.4783 11.1629 16.6178 10.9887C16.7572 10.8146 16.827 10.6239 16.827 10.4166C16.827 10.2094 16.7572 10.0187 16.6178 9.84455C16.4783 9.67039 16.281 9.56726 16.0257 9.53518H15.0001V4.99997H10.4649V3.97435C10.4328 3.71907 10.3297 3.52171 10.1555 3.38226C9.98133 3.24282 9.79064 3.1731 9.58342 3.1731C9.37619 3.1731 9.1855 3.24282 9.01133 3.38226C8.83717 3.52171 8.73404 3.71907 8.70196 3.97435V4.99997H4.16675V7.28205C4.79925 7.54386 5.3046 7.95969 5.68279 8.52955C6.06098 9.09955 6.25008 9.72858 6.25008 10.4166C6.25008 11.0961 6.06098 11.7208 5.68279 12.2908C5.3046 12.8608 4.79925 13.2809 4.16675 13.5512V15.8333Z" fill="#4D4B4E"/>
</g>
</svg>
