<svg width="24" height="24" viewBox="0 0 24 24" fill="none" xmlns="http://www.w3.org/2000/svg">
<path d="M12.4717 4.00879C16.9812 4.1905 20.5664 7.15498 20.5664 10.7861C20.5663 14.5335 16.746 17.5713 12.0332 17.5713C11.5641 17.5704 11.0953 17.5403 10.6299 17.4805L7.04785 19.8701C6.64078 20.0898 6.49682 20.0661 6.66406 19.5283L7.38867 16.4785C5.04817 15.2681 3.50004 13.1705 3.5 10.7861C3.5 7.03872 7.31961 4.00005 12.0332 4L12.4717 4.00879ZM6.00098 8.83398C5.89924 8.83398 5.80143 8.87485 5.72949 8.94824C5.65762 9.02157 5.61726 9.12092 5.61719 9.22461C5.61719 9.3284 5.65755 9.42857 5.72949 9.50195C5.80141 9.5752 5.89934 9.61621 6.00098 9.61621H6.94336V12.7139C6.94342 12.8175 6.98384 12.9169 7.05566 12.9902C7.1276 13.0636 7.22541 13.1045 7.32715 13.1045C7.42883 13.1045 7.52673 13.0636 7.59863 12.9902C7.67036 12.9169 7.71088 12.8175 7.71094 12.7139V9.61621H8.63672C8.68715 9.61643 8.73754 9.6065 8.78418 9.58691C8.8308 9.56733 8.87353 9.53833 8.90918 9.50195C8.94472 9.46562 8.97303 9.42247 8.99219 9.375C9.01139 9.32742 9.02072 9.27606 9.02051 9.22461C9.02069 9.17339 9.01125 9.12258 8.99219 9.0752C8.97307 9.02776 8.94467 8.98457 8.90918 8.94824C8.87372 8.91199 8.83152 8.88291 8.78516 8.86328C8.73861 8.84364 8.68806 8.83387 8.6377 8.83398H6.00098ZM15.5459 8.81738C15.4442 8.81738 15.3464 8.85825 15.2744 8.93164C15.2026 9.00495 15.1622 9.10437 15.1621 9.20801V11.3281C15.1486 11.3887 15.1486 11.4521 15.1621 11.5127V12.7051C15.1621 12.8089 15.2025 12.909 15.2744 12.9824C15.3463 13.0557 15.4442 13.0967 15.5459 13.0967C15.6476 13.0967 15.7455 13.0558 15.8174 12.9824C15.8893 12.909 15.9297 12.8089 15.9297 12.7051V11.5752L16.2764 11.2324L17.4365 12.918C17.4654 12.9599 17.5026 12.9959 17.5449 13.0234C17.5874 13.0509 17.6351 13.0702 17.6846 13.0791C17.7342 13.088 17.7858 13.0864 17.835 13.0752C17.884 13.064 17.9305 13.0432 17.9717 13.0137C18.0129 12.9841 18.0482 12.9467 18.0752 12.9033C18.1022 12.8599 18.1202 12.8114 18.1289 12.7607C18.1376 12.7102 18.1369 12.6585 18.126 12.6084C18.115 12.5582 18.0944 12.5099 18.0654 12.4678L16.835 10.6826L18.0293 9.50195C18.0982 9.42892 18.1368 9.33088 18.1367 9.22949C18.1365 9.12824 18.0973 9.03078 18.0283 8.95801C17.9593 8.88545 17.8656 8.84242 17.7666 8.83887C17.6673 8.8354 17.5699 8.87158 17.4961 8.93945L15.9297 10.4863V9.20801C15.9296 9.10442 15.8891 9.00494 15.8174 8.93164C15.7455 8.85827 15.6476 8.81741 15.5459 8.81738ZM10.2598 8.78418C10.1451 8.78418 10.0331 8.81965 9.93848 8.88574C9.84389 8.95185 9.77096 9.04525 9.72949 9.1543L8.37891 12.5332C8.34055 12.6291 8.34068 12.7365 8.37988 12.832C8.41928 12.9277 8.49468 13.0037 8.58887 13.043C8.68305 13.0822 8.78902 13.0822 8.88281 13.042C8.97641 13.0018 9.05041 12.925 9.08887 12.8291L9.3584 12.1553H11.041L11.2832 12.8184C11.2997 12.8679 11.3263 12.9131 11.3604 12.9521C11.3945 12.9912 11.436 13.0235 11.4824 13.0459C11.5287 13.0682 11.5788 13.0808 11.6299 13.083C11.6811 13.0852 11.7322 13.0769 11.7803 13.0586C11.8284 13.0403 11.8729 13.0125 11.9102 12.9766C11.9474 12.9406 11.9774 12.8975 11.998 12.8496C12.0187 12.8017 12.0296 12.7496 12.0303 12.6973C12.0309 12.6451 12.0212 12.5933 12.002 12.5449L11.7217 11.7764L11.7227 11.7637C11.7224 11.6652 11.6861 11.57 11.6201 11.498L10.7695 9.17676C10.7339 9.06627 10.6661 8.96961 10.5752 8.89941C10.4841 8.82919 10.3738 8.78899 10.2598 8.78418ZM12.8613 8.84766C12.7626 8.84766 12.6671 8.88653 12.5957 8.95605C12.5246 9.02555 12.4821 9.12032 12.4775 9.2207V12.6689C12.4776 12.8844 12.6484 13.0604 12.8604 13.0605H14.4307C14.5324 13.0605 14.6302 13.0187 14.7021 12.9453C14.7739 12.872 14.8144 12.7726 14.8145 12.6689C14.8145 12.5653 14.7739 12.4659 14.7021 12.3926C14.6302 12.3192 14.5324 12.2773 14.4307 12.2773H13.2441V9.2207C13.2396 9.12022 13.1972 9.02556 13.126 8.95605C13.0547 8.88659 12.9599 8.84773 12.8613 8.84766ZM10.7549 11.3721L9.6709 11.373L10.2363 9.95703L10.7549 11.3721Z" fill="#201E22"/>
</svg>
