<svg width="18" height="17" viewBox="0 0 18 17" fill="none" xmlns="http://www.w3.org/2000/svg">
<path d="M9 0C4.02941 0 0 3.25162 0 7.26258C0 9.85572 1.68458 12.1311 4.21858 13.416C4.08071 13.9026 3.3327 16.5463 3.30289 16.7541C3.30289 16.7541 3.285 16.9101 3.38372 16.9696C3.48249 17.0291 3.59859 16.9829 3.59859 16.9829C3.88176 16.9424 6.88213 14.7854 7.40149 14.4109C7.92028 14.4861 8.45449 14.5252 9 14.5252C13.9706 14.5252 18 11.2736 18 7.26258C18 3.25162 13.9706 0 9 0Z" fill="#E9E9E9"/>
<path d="M5.41797 5.37305C5.69873 5.37313 5.9275 5.60596 5.92773 5.89258C5.92773 6.1794 5.69882 6.41301 5.41797 6.41309H4.60742V9.57031C4.60742 9.85007 4.37503 10.0779 4.08887 10.0781C3.8025 10.0781 3.56934 9.85021 3.56934 9.57031V6.41309H2.75879C2.47792 6.41297 2.24902 6.17937 2.24902 5.89258C2.24925 5.60598 2.47812 5.37316 2.75879 5.37305H5.41797ZM7.16016 5.37305C7.49904 5.38104 7.76481 5.64263 7.85254 5.89746L9.09375 9.24219C9.25168 9.74442 9.11384 9.9307 8.9707 9.99805C8.86723 10.0462 8.75434 10.0713 8.64062 10.0713C8.42433 10.0712 8.2589 9.98057 8.20898 9.83594L7.95215 9.14746H6.36816L6.11133 9.83691C6.06143 9.98112 5.89594 10.0712 5.67969 10.0713C5.5659 10.0714 5.45307 10.0464 5.34961 9.99805C5.20647 9.93047 5.06896 9.74427 5.22656 9.24316L6.46875 5.89746C6.55627 5.64301 6.82193 5.38093 7.16016 5.37305ZM12.8125 5.37305C13.0988 5.37311 13.332 5.61125 13.332 5.9043V7.0459L14.7803 5.56348C14.8547 5.48725 14.9572 5.44531 15.0684 5.44531C15.1979 5.44533 15.3283 5.50284 15.4258 5.60254C15.5166 5.69554 15.5706 5.8153 15.5781 5.93945C15.5856 6.06463 15.5451 6.17945 15.4639 6.2627L14.2803 7.47363L15.5586 9.20605C15.5999 9.26167 15.6294 9.32597 15.6465 9.39355C15.6636 9.46106 15.6679 9.53154 15.6582 9.60059C15.649 9.66954 15.6262 9.73588 15.5918 9.7959C15.5573 9.85591 15.5114 9.90839 15.457 9.9502C15.3673 10.0201 15.2573 10.0578 15.1445 10.0576C15.0641 10.058 14.9841 10.0396 14.9121 10.0029C14.8402 9.96621 14.7776 9.91251 14.7295 9.84668L13.5117 8.19531L13.332 8.37988V9.53906C13.3319 9.68001 13.277 9.8154 13.1797 9.91504C13.0823 10.0147 12.9502 10.071 12.8125 10.0713C12.5263 10.0713 12.2932 9.8329 12.293 9.54004V5.9043C12.293 5.61121 12.5261 5.37305 12.8125 5.37305ZM9.96875 5.37305C10.2608 5.37323 10.498 5.61133 10.498 5.9043V9.02637H11.6016C11.876 9.02637 12.0996 9.24511 12.0996 9.51367C12.0994 9.78204 11.8759 10 11.6016 10H9.93555C9.66143 9.99979 9.43871 9.78191 9.43848 9.51367V5.9043C9.43848 5.61121 9.67648 5.37305 9.96875 5.37305ZM6.6416 8.20508H7.67969L7.16016 6.69727L6.6416 8.20508Z" fill="#1C1F20"/>
</svg>
