<svg width="24" height="24" viewBox="0 0 24 24" fill="none" xmlns="http://www.w3.org/2000/svg">
<mask id="mask0_77_3545" style="mask-type:alpha" maskUnits="userSpaceOnUse" x="0" y="0" width="24" height="24">
<rect width="24" height="24" fill="#D9D9D9"/>
</mask>
<g mask="url(#mask0_77_3545)">
<path d="M4.99988 12C4.99988 13.8051 5.59571 15.3676 6.78738 16.6875C7.97904 18.0073 9.46913 18.7646 11.2576 18.9595C11.4601 18.9865 11.6296 19.0743 11.7661 19.223C11.9028 19.3718 11.9711 19.5475 11.9711 19.75C11.9711 19.9628 11.8823 20.1385 11.7046 20.277C11.5271 20.4153 11.3236 20.471 11.0941 20.4442C8.92746 20.2185 7.12013 19.3031 5.67213 17.698C4.22396 16.0928 3.49988 14.1935 3.49988 12C3.49988 9.82946 4.21496 7.94005 5.64513 6.33172C7.07529 4.72338 8.87046 3.79805 11.0306 3.55571C11.2768 3.52888 11.4935 3.58046 11.6806 3.71046C11.8678 3.84063 11.9614 4.02047 11.9614 4.24997C11.9614 4.45247 11.8947 4.62813 11.7614 4.77697C11.628 4.92563 11.4601 5.01347 11.2576 5.04047C9.46913 5.2353 7.97904 5.99263 6.78738 7.31247C5.59571 8.6323 4.99988 10.1948 4.99988 12ZM17.7806 12.75H9.99988C9.78705 12.75 9.60888 12.6781 9.46538 12.5345C9.32171 12.391 9.24988 12.2128 9.24988 12C9.24988 11.7871 9.32171 11.609 9.46538 11.4655C9.60888 11.3218 9.78705 11.25 9.99988 11.25H17.7711L15.4729 8.94222C15.3242 8.79355 15.2499 8.61697 15.2499 8.41247C15.2499 8.20797 15.3242 8.03138 15.4729 7.88272C15.6217 7.73405 15.7974 7.65972 15.9999 7.65972C16.2024 7.65972 16.378 7.73405 16.5269 7.88272L20.0114 11.3672C20.1922 11.548 20.2826 11.759 20.2826 12C20.2826 12.241 20.1922 12.4519 20.0114 12.6327L16.5269 16.1172C16.378 16.2659 16.2024 16.3377 15.9999 16.3327C15.7974 16.3275 15.6217 16.2506 15.4729 16.102C15.3242 15.9531 15.2499 15.7775 15.2499 15.575C15.2499 15.3725 15.3242 15.1968 15.4729 15.048L17.7806 12.75Z" fill="#E11936"/>
</g>
</svg>
