<svg width="20" height="20" viewBox="0 0 20 20" fill="none" xmlns="http://www.w3.org/2000/svg">
<mask id="mask0_723_14069" style="mask-type:alpha" maskUnits="userSpaceOnUse" x="0" y="0" width="20" height="20">
<rect width="20" height="20" fill="#D9D9D9"/>
</mask>
<g mask="url(#mask0_723_14069)">
<path d="M4.16669 15.8337H5.21794L13.7484 7.30324L12.6971 6.25199L4.16669 14.7824V15.8337ZM3.67002 17.0837C3.45655 17.0837 3.27766 17.0114 3.13335 16.867C2.98891 16.7227 2.91669 16.5438 2.91669 16.3303V14.8866C2.91669 14.6834 2.95571 14.4897 3.03377 14.3055C3.11169 14.1214 3.21905 13.9609 3.35585 13.8241L13.9088 3.27595C14.0347 3.16151 14.1738 3.0731 14.3261 3.01074C14.4784 2.94824 14.6381 2.91699 14.8052 2.91699C14.9723 2.91699 15.1341 2.94665 15.2906 3.00595C15.4473 3.06526 15.586 3.15956 15.7067 3.28887L16.7244 4.31928C16.8537 4.43998 16.9459 4.57887 17.0009 4.73595C17.0559 4.89303 17.0834 5.05012 17.0834 5.2072C17.0834 5.37484 17.0547 5.53477 16.9975 5.68699C16.9403 5.83935 16.8493 5.97852 16.7244 6.10449L6.17627 16.6445C6.03946 16.7813 5.87898 16.8887 5.69481 16.9666C5.51065 17.0446 5.31697 17.0837 5.11377 17.0837H3.67002ZM13.2136 6.78678L12.6971 6.25199L13.7484 7.30324L13.2136 6.78678Z" fill="#111111"/>
</g>
</svg>
